<svg xmlns="http://www.w3.org/2000/svg" width="80" height="80" viewBox="0 0 80 80" fill="none">
  <path d="M56.3748 27.7159C57.3387 29.0756 58.1191 30.5132 58.7219 31.9979C56.7724 30.1134 54.133 28.9623 51.2318 28.9763L39.5897 29.0325C33.624 29.0613 28.8108 34.0056 28.8392 40.0759C28.8675 46.1462 33.7266 51.0438 39.6922 51.0149L51.3344 50.9587C54.2184 50.9448 56.833 49.782 58.7615 47.8986C57.3531 51.4388 54.9793 54.6311 51.7104 57.0304C42.4669 63.8148 29.5686 61.6898 22.9012 52.2841C16.2338 42.8785 18.3221 29.7539 27.5656 22.9696C36.8091 16.1852 49.7074 18.3102 56.3748 27.7159Z" fill="currentColor"/>
  <path d="M56.9038 48.1499C52.4835 51.3942 46.3154 50.378 43.127 45.8801C39.9386 41.3823 40.9373 35.106 45.3576 31.8616C49.7779 28.6173 55.946 29.6335 59.1344 34.1314C62.3228 38.6292 61.3242 44.9055 56.9038 48.1499Z" fill="currentColor"/>
</svg> 