<svg width="17" height="16" viewBox="0 0 17 16" fill="none" xmlns="http://www.w3.org/2000/svg">
<path d="M12.1899 1C12.9856 1 13.7487 1.31607 14.3113 1.87868C14.8739 2.44129 15.1899 3.20435 15.1899 4V13.696C15.1899 13.8745 15.1422 14.0498 15.0516 14.2036C14.961 14.3574 14.8308 14.4841 14.6747 14.5706C14.5186 14.6572 14.3421 14.7003 14.1637 14.6957C13.9852 14.691 13.8113 14.6386 13.6599 14.544L11.9199 13.456C11.4431 13.158 10.8922 13 10.3299 13H4.18994C3.39429 13 2.63123 12.6839 2.06862 12.1213C1.50601 11.5587 1.18994 10.7956 1.18994 10V4C1.18994 3.20435 1.50601 2.44129 2.06862 1.87868C2.63123 1.31607 3.39429 1 4.18994 1H12.1899ZM12.1899 2.6H4.18994C3.80294 2.6 3.47294 2.737 3.19994 3.01C2.92694 3.283 2.78994 3.613 2.78994 4V10C2.78994 10.387 2.92694 10.717 3.19994 10.99C3.47294 11.263 3.80294 11.4 4.18994 11.4H10.3299C11.2099 11.4 12.0219 11.633 12.7679 12.1L13.5899 12.613V4C13.5899 3.613 13.4529 3.283 13.1799 3.01C13.0516 2.87771 12.8976 2.77308 12.7274 2.70257C12.5571 2.63206 12.3742 2.59715 12.1899 2.6Z" fill="white"/>
<path d="M10.1899 7C10.1899 7.26522 10.2953 7.51957 10.4828 7.70711C10.6704 7.89464 10.9247 8 11.1899 8C11.4552 8 11.7095 7.89464 11.897 7.70711C12.0846 7.51957 12.1899 7.26522 12.1899 7C12.1899 6.73478 12.0846 6.48043 11.897 6.29289C11.7095 6.10536 11.4552 6 11.1899 6C10.9247 6 10.6704 6.10536 10.4828 6.29289C10.2953 6.48043 10.1899 6.73478 10.1899 7ZM4.18994 7C4.18994 7.26522 4.2953 7.51957 4.48283 7.70711C4.67037 7.89464 4.92472 8 5.18994 8C5.45516 8 5.70951 7.89464 5.89705 7.70711C6.08458 7.51957 6.18994 7.26522 6.18994 7C6.18994 6.73478 6.08458 6.48043 5.89705 6.29289C5.70951 6.10536 5.45516 6 5.18994 6C4.92472 6 4.67037 6.10536 4.48283 6.29289C4.2953 6.48043 4.18994 6.73478 4.18994 7ZM7.18994 7C7.18994 7.26522 7.2953 7.51957 7.48283 7.70711C7.67037 7.89464 7.92472 8 8.18994 8C8.45516 8 8.70951 7.89464 8.89705 7.70711C9.08458 7.51957 9.18994 7.26522 9.18994 7C9.18994 6.73478 9.08458 6.48043 8.89705 6.29289C8.70951 6.10536 8.45516 6 8.18994 6C7.92472 6 7.67037 6.10536 7.48283 6.29289C7.2953 6.48043 7.18994 6.73478 7.18994 7Z" fill="white"/>
</svg>
