<svg xmlns="http://www.w3.org/2000/svg" width="26" height="22" viewBox="0 0 26 22" fill="none">
<path d="M13 0C8.814 0 3.38086 1.04874 3.38086 1.04874L3.36719 1.06436C1.46066 1.36924 0 3.00736 0 4.99956V10.999V11.001V16.9985V17.0004C0.00186045 17.9519 0.34287 18.8715 0.961798 19.5942C1.58073 20.3169 2.43703 20.7953 3.37695 20.9435L3.38086 20.9493C3.38086 20.9493 8.814 22 13 22C17.186 22 22.6191 20.9493 22.6191 20.9493L22.6211 20.9474C23.562 20.7995 24.4193 20.3207 25.0387 19.5972C25.6581 18.8736 25.999 17.9529 26 17.0004V16.9985V11.001V10.999V4.99956C25.9986 4.04777 25.6578 3.12768 25.0388 2.40459C24.4199 1.68151 23.5633 1.20285 22.623 1.05459L22.6191 1.04874C22.6191 1.04874 17.186 0 13 0ZM10 6.39787L18 10.999L10 15.6002V6.39787Z" fill="currentColor"/>
</svg>