<svg xmlns="http://www.w3.org/2000/svg" width="36" height="36" viewBox="0 0 36 36" fill="none">
<path d="M12.6304 11C10.6067 11 8.66589 11.7902 7.2349 13.1967C5.80392 14.6032 5 16.5109 5 18.5C5 20.4891 5.80392 22.3968 7.2349 23.8033C8.66589 25.2098 10.6067 26 12.6304 26C14.6542 26 16.595 25.2098 18.026 23.8033C19.457 22.3968 20.2609 20.4891 20.2609 18.5C20.2609 16.5109 19.457 14.6032 18.026 13.1967C16.595 11.7902 14.6542 11 12.6304 11ZM24.663 11.5769C22.5559 11.5769 20.8478 14.6767 20.8478 18.5C20.8478 19.2171 20.9077 19.9083 21.0192 20.5585C21.1677 21.4256 21.4078 22.2194 21.7189 22.9037C21.8744 23.2458 22.0476 23.5602 22.236 23.8423C22.6128 24.4065 23.0507 24.8421 23.5285 25.1121C23.8871 25.314 24.268 25.4231 24.663 25.4231C25.0581 25.4231 25.439 25.314 25.7976 25.1121C26.2754 24.8421 26.7133 24.4065 27.0901 23.8423C27.2785 23.5602 27.4517 23.2458 27.6072 22.9037C27.9183 22.22 28.1584 21.4256 28.3069 20.5585C28.4184 19.9083 28.4783 19.2171 28.4783 18.5C28.4783 14.6767 26.7702 11.5769 24.663 11.5769ZM30.5326 12.1538C30.3806 12.1538 30.2338 12.2537 30.0965 12.4394C30.0043 12.5629 29.9163 12.7244 29.8335 12.92C29.7919 13.0175 29.7514 13.1237 29.7126 13.2379C29.6346 13.4658 29.5618 13.726 29.4955 14.0127C29.3628 14.5867 29.2554 15.271 29.1808 16.0302C29.1439 16.4098 29.1151 16.8085 29.0951 17.2215C29.0752 17.634 29.0652 18.0621 29.0652 18.5C29.0652 18.9379 29.0752 19.366 29.0951 19.779C29.1145 20.1921 29.1433 20.5908 29.1808 20.9704C29.2554 21.7296 29.3628 22.4133 29.4955 22.9879C29.5618 23.2752 29.6346 23.5348 29.7126 23.7627C29.7514 23.8769 29.7919 23.9831 29.8335 24.0806C29.9169 24.2762 30.0049 24.4377 30.0965 24.5612C30.2338 24.7463 30.3806 24.8462 30.5326 24.8462C31.3432 24.8462 32 22.0048 32 18.5C32 14.9952 31.3432 12.1538 30.5326 12.1538Z" fill="currentColor" />
</svg>