<svg width="184" height="26" viewBox="0 0 184 26" fill="none" xmlns="http://www.w3.org/2000/svg">
<g clip-path="url(#clip0_1910_13603)">
<mask id="mask0_1910_13603" style="mask-type:luminance" maskUnits="userSpaceOnUse" x="0" y="0" width="24" height="26">
<path d="M0.5 10.872C1.00991 11.7458 1.36005 12.7034 1.534 13.7C2.95378 12.9598 4.57968 12.7135 6.155 13C7.21729 13.2228 8.20843 13.7036 9.041 14.4C9.61197 14.8773 10.2576 15.2574 10.952 15.525C12.0897 15.8004 13.2737 15.8253 14.422 15.598C17.655 15.085 19.786 15.24 21.58 16.067C21.346 16.11 21.099 16.167 20.832 16.231C18.7885 15.6005 16.6139 15.5259 14.532 16.015C13.5821 16.1773 12.6145 16.2093 11.656 16.11C10.9099 16.0011 10.1968 15.7297 9.567 15.315C9.301 15.129 9.009 14.906 8.704 14.687C7.99701 14.1706 7.21489 13.7659 6.385 13.487C5.60378 13.3042 4.79661 13.2596 4 13.355C3.31481 13.4593 2.64992 13.6691 2.029 13.977C1.56463 14.2286 1.18269 14.6088 0.929 15.072C0.977 15.3447 1.02033 15.566 1.059 15.736C1.075 15.713 1.459 14.527 2.37 14.465C3.281 14.403 3.593 15.436 3.721 16.005C3.84486 16.7423 3.85666 17.4941 3.756 18.235C3.721 18.644 3.685 19.066 3.685 19.478C3.67567 20.1261 3.75303 20.7724 3.915 21.4C4.175 21.694 4.451 21.972 4.74 22.24C4.27082 21.399 4.05156 20.4414 4.108 19.48C4.108 19.088 4.143 18.68 4.175 18.273C4.28167 17.4844 4.26683 16.6841 4.131 15.9C4.08747 15.5635 3.97307 15.24 3.79535 14.9509C3.61764 14.6619 3.38064 14.4138 3.1 14.223C4.06643 14.1643 5.02858 14.3933 5.865 14.881C6.706 15.434 7.054 16.208 7.932 17.022C8.91794 17.9177 10.127 18.5312 11.432 18.798C12.3197 18.8832 13.2151 18.7588 14.046 18.435C14.936 18.148 16.546 17.444 17.477 17.159C18.1461 16.9593 18.8341 16.83 19.53 16.773C18.68 17.159 17.53 18.093 17.559 18.799C17.588 19.525 17.944 19.988 17.752 20.692C17.56 21.396 17.166 21.739 17.166 22.252C13.976 23.106 11.341 22.922 9.351 21.699C7.96933 20.8449 6.93024 19.5341 6.414 17.994L6.321 17.694H5.867C6.36686 19.5105 7.5321 21.0724 9.131 22.069C10.464 22.8464 11.9886 23.2338 13.531 23.187C14.7865 23.1702 16.0345 22.9911 17.244 22.654C17.308 23.01 17.389 23.02 17.652 23.527C17.9451 23.9536 18.074 24.4718 18.015 24.986C16.4563 25.6547 14.778 25.9997 13.082 26C12.3864 25.9996 11.692 25.9418 11.006 25.827C7.63674 25.2231 4.6424 23.3129 2.67476 20.512C0.707124 17.7111 -0.0745107 14.2464 0.5 10.872ZM22.22 17.013C22.476 16.9736 22.7377 17.0238 22.961 17.155L23.149 17.273C23.3714 17.4249 23.5605 17.6204 23.7049 17.8476C23.8493 18.0749 23.946 18.3292 23.989 18.595C24.0062 18.9114 23.948 19.2273 23.8192 19.5168C23.6903 19.8063 23.4946 20.061 23.248 20.26C23.2287 20.2802 23.2054 20.2962 23.1796 20.3069C23.1537 20.3176 23.1259 20.3227 23.098 20.322C23.0768 20.3251 23.0552 20.3251 23.034 20.322L18.914 19.053L18.876 19.038C18.7834 19.1621 18.7342 19.3132 18.736 19.468C18.7522 19.6321 18.7895 19.7934 18.847 19.948C19.0159 20.356 19.0319 20.8112 18.892 21.23C18.813 21.4653 18.7073 21.6908 18.577 21.902C18.4483 22.0495 18.3733 22.2361 18.364 22.4316C18.3547 22.6271 18.4118 22.82 18.526 22.979C18.609 23.14 18.698 23.279 18.774 23.406C19.0847 23.8041 19.2397 24.3018 19.21 24.806C19.2055 24.8587 19.1815 24.9078 19.1426 24.9437C19.1038 24.9796 19.0529 24.9997 19 25H18.984C18.9573 24.9986 18.9312 24.9919 18.9071 24.9802C18.8831 24.9685 18.8616 24.9521 18.844 24.932C18.8694 24.4174 18.718 23.9096 18.415 23.493C18.342 23.36 18.253 23.208 18.167 23.038C18.0527 22.8619 17.9962 22.6546 18.0054 22.4448C18.0145 22.2351 18.0889 22.0335 18.218 21.868C18.3484 21.64 18.453 21.3982 18.53 21.147C18.6664 20.7054 18.6494 20.2307 18.482 19.8C18.4224 19.6314 18.386 19.4554 18.374 19.277C18.3688 19.1745 18.3862 19.0721 18.425 18.977C18.629 18.6342 18.9114 18.3446 19.249 18.132C19.8043 17.7358 20.4227 17.4366 21.078 17.247C21.298 17.191 21.504 17.142 21.698 17.102L21.914 17.065L22.068 17.036L22.22 17.013ZM22.459 17.413H22.347C22.0468 17.4445 21.7492 17.4963 21.456 17.568C20.7525 17.7372 20.0882 18.04 19.499 18.46C19.399 18.537 19.289 18.618 19.187 18.701L23.033 19.893C23.2067 19.7321 23.344 19.5359 23.4356 19.3175C23.5272 19.0991 23.571 18.8637 23.564 18.627C23.4922 18.2127 23.2597 17.8436 22.917 17.6L22.771 17.51C22.6444 17.4322 22.4961 17.3971 22.348 17.41L22.459 17.413ZM8.633 9.384C8.30904 9.57041 7.97101 9.73123 7.622 9.865C6.01477 10.4763 4.25381 10.5559 2.598 10.092C2.68431 10.6294 2.65367 11.1791 2.50819 11.7035C2.36271 12.228 2.1058 12.7149 1.755 13.131C1.52525 11.7861 0.9164 10.5348 0 9.524C0.447257 9.50163 0.892936 9.45455 1.335 9.383C6.711 8.553 8.229 9.109 8.633 9.384ZM9.416 9.4C9.37278 10.0881 9.19315 10.7607 8.88756 11.3788C8.58198 11.9968 8.15654 12.5479 7.636 13C5.91822 12.4123 4.05378 12.4123 2.336 13C2.8323 12.2896 3.07276 11.4318 3.018 10.567C4.1065 10.8338 5.23907 10.8677 6.3416 10.6666C7.44413 10.4655 8.49178 10.0339 9.416 9.4ZM19.179 1.594C21.0535 2.64568 22.6373 4.14665 23.788 5.962L24 6.307L18.887 9.316C18.861 9.273 18.836 9.234 18.81 9.192C18.33 8.4265 17.7016 7.76482 16.962 7.24593C16.2223 6.72704 15.3862 6.36144 14.503 6.17068C13.6198 5.97992 12.7074 5.96785 11.8195 6.13518C10.9316 6.30251 10.0862 6.64586 9.333 7.145C11.8503 4.18251 15.3412 2.21439 19.179 1.594ZM17.889 0.966002C16.2165 1.35846 14.6121 1.99888 13.129 2.866C10.7373 4.27113 8.71078 6.22058 7.214 8.556C5.22756 8.44741 3.23527 8.57802 1.28 8.945C1.164 8.965 1.055 8.981 0.93 8.994C1.03 8.694 1.135 8.389 1.254 8.094C1.86545 6.52394 2.78366 5.09148 3.95499 3.88029C5.12632 2.66911 6.52727 1.7035 8.076 1.03988C9.62473 0.376257 11.2902 0.027929 12.9751 0.0152443C14.6599 0.00255965 16.3305 0.325773 17.889 0.966002Z" fill="white"/>
</mask>
<g mask="url(#mask0_1910_13603)">
<mask id="mask1_1910_13603" style="mask-type:luminance" maskUnits="userSpaceOnUse" x="-9" y="-88" width="202" height="202">
<path d="M-9 114H193V-88H-9V114Z" fill="white"/>
</mask>
<g mask="url(#mask1_1910_13603)">
<path d="M-1 -1H25.056V27H-1V-1Z" fill="white"/>
</g>
</g>
<mask id="mask2_1910_13603" style="mask-type:luminance" maskUnits="userSpaceOnUse" x="32" y="6" width="152" height="14">
<path d="M67.007 9.132C67.6978 9.09433 68.3888 9.20173 69.0356 9.44729C69.6823 9.69285 70.2705 10.0711 70.7622 10.5578C71.254 11.0444 71.6383 11.6286 71.8906 12.2728C72.1429 12.917 72.2575 13.6069 72.227 14.298C72.2534 14.9912 72.1348 15.6823 71.8788 16.327C71.6228 16.9717 71.235 17.5559 70.7402 18.0421C70.2455 18.5284 69.6547 18.906 69.0057 19.1509C68.3566 19.3957 67.6636 19.5024 66.971 19.464C66.282 19.501 65.593 19.3929 64.9485 19.1466C64.3039 18.9003 63.7184 18.5214 63.2296 18.0344C62.7409 17.5473 62.36 16.9631 62.1114 16.3194C61.8629 15.6758 61.7524 14.9871 61.787 14.298C61.7581 13.6072 61.8737 12.9181 62.1265 12.2746C62.3793 11.6311 62.7638 11.0475 63.2551 10.5612C63.7465 10.0749 64.3341 9.69659 64.9802 9.45047C65.6262 9.20436 66.3166 9.09589 67.007 9.132ZM157.798 9.132C158.489 9.09433 159.18 9.20173 159.827 9.44729C160.473 9.69285 161.062 10.0711 161.553 10.5578C162.045 11.0444 162.429 11.6286 162.682 12.2728C162.934 12.917 163.048 13.6069 163.018 14.298C163.044 14.9912 162.926 15.6823 162.67 16.327C162.414 16.9717 162.026 17.5559 161.531 18.0421C161.037 18.5284 160.446 18.906 159.797 19.1509C159.148 19.3957 158.455 19.5024 157.762 19.464C157.073 19.501 156.384 19.3929 155.739 19.1466C155.095 18.9003 154.509 18.5214 154.021 18.0344C153.532 17.5473 153.151 16.9631 152.902 16.3194C152.654 15.6758 152.543 14.9871 152.578 14.298C152.549 13.6071 152.665 12.9177 152.918 12.2741C153.171 11.6305 153.555 11.0468 154.047 10.5605C154.538 10.0741 155.126 9.69583 155.773 9.44984C156.419 9.20386 157.109 9.0956 157.8 9.132H157.798ZM78.124 9.132C78.7323 9.10071 79.3382 9.22871 79.8819 9.50336C80.4256 9.77801 80.8882 10.1898 81.224 10.698V9.276H84.3V19.32H81.219V17.898C80.8784 18.4047 80.4128 18.815 79.8673 19.0894C79.3219 19.3637 78.7149 19.4927 78.105 19.464C75.657 19.464 73.695 17.448 73.695 14.28C73.695 11.112 75.658 9.132 78.124 9.132ZM122.341 9.132C123.008 9.09319 123.675 9.19594 124.299 9.43349C124.924 9.67104 125.49 10.038 125.963 10.5103C126.435 10.9825 126.802 11.5494 127.039 12.1736C127.277 12.7978 127.38 13.4652 127.341 14.132C127.34 14.4328 127.322 14.7333 127.287 15.032H120.321C120.312 15.2858 120.355 15.5387 120.448 15.7751C120.54 16.0116 120.68 16.2266 120.859 16.407C121.038 16.5874 121.251 16.7294 121.487 16.8241C121.723 16.9189 121.975 16.9644 122.229 16.958C122.563 16.979 122.896 16.8971 123.182 16.7233C123.468 16.5495 123.694 16.2922 123.829 15.986H127.105C126.827 17.0233 126.202 17.9341 125.334 18.5663C124.466 19.1985 123.408 19.5139 122.335 19.46C121.652 19.4947 120.968 19.3841 120.331 19.1355C119.693 18.8869 119.116 18.506 118.636 18.0178C118.156 17.5297 117.786 16.9454 117.548 16.3035C117.311 15.6617 117.212 14.9768 117.259 14.294C117.21 13.6104 117.307 12.9241 117.544 12.2809C117.781 11.6378 118.152 11.0525 118.633 10.5641C119.114 10.0757 119.693 9.6953 120.333 9.44837C120.972 9.20143 121.657 9.09358 122.341 9.132ZM48.319 6.54C49.6763 6.46952 51.0161 6.87251 52.1093 7.68012C53.2025 8.48774 53.9814 9.64987 54.313 10.968H50.929C50.6985 10.4659 50.3238 10.0437 49.8526 9.75525C49.3814 9.46676 48.835 9.325 48.283 9.348C46.393 9.348 45.097 10.748 45.097 12.984C45.097 15.22 46.393 16.62 48.283 16.62C48.835 16.643 49.3814 16.5012 49.8526 16.2128C50.3238 15.9243 50.6985 15.5021 50.929 15H54.313C53.9805 16.3162 53.2007 17.4759 52.1072 18.2804C51.0137 19.085 49.6745 19.4843 48.319 19.41C47.4696 19.443 46.6226 19.2988 45.832 18.9866C45.0413 18.6743 44.3243 18.2009 43.7267 17.5965C43.129 16.992 42.6637 16.2697 42.3604 15.4756C42.0571 14.6815 41.9224 13.833 41.965 12.984C41.9221 12.1341 42.0565 11.2846 42.3594 10.4894C42.6624 9.69415 43.1274 8.97061 43.7249 8.36466C44.3223 7.75871 45.0393 7.28361 45.8302 6.96949C46.621 6.65538 47.4686 6.50912 48.319 6.54ZM139.193 9.276L140.615 16.458L142.307 9.276H145.565L147.275 16.422L148.675 9.276H151.575L148.859 19.32H145.459L143.875 12.804L142.235 19.32H138.851L136.115 9.276H139.193ZM40.262 9.276V11.72L36 16.782H40.356V19.32H32.558V16.872L36.734 11.814H32.594V9.276H40.262ZM106.976 6.684L112.124 14.514V6.684H115.2V19.32H112.122L106.974 11.526V19.32H103.9V6.684H106.976ZM171.326 9.168V12.426H170.48C169.022 12.426 168.18 12.926 168.18 14.658V19.32H165.1V9.276H168.178V10.95C168.51 10.4109 168.972 9.96474 169.523 9.6531C170.074 9.34147 170.695 9.17457 171.328 9.168H171.326ZM59.724 6V19.32H56.646V6H59.724ZM90.051 6V13.362L93.093 9.276H96.893L92.714 14.32L96.926 19.32H93.11L90.05 15.108V19.32H86.972V6H90.051ZM132.972 6.828V9.276H134.988V11.832H132.972V15.864C132.972 16.458 133.224 16.71 133.908 16.71H135.008V19.32H133.44C131.352 19.32 129.894 18.438 129.894 15.828V11.828H128.67V9.272H129.894V6.824L132.972 6.828ZM176.323 6V13.362L179.365 9.276H183.165L178.987 14.32L183.2 19.32H179.384L176.324 15.108V19.32H173.246V6H176.323ZM67.006 11.8C65.89 11.8 64.918 12.592 64.918 14.3C64.918 15.992 65.854 16.8 66.97 16.8C67.2795 16.7922 67.584 16.7192 67.8633 16.5856C68.1427 16.4521 68.3907 16.2611 68.5912 16.0251C68.7917 15.7892 68.9401 15.5135 69.0268 15.2162C69.1134 14.919 69.1363 14.6067 69.094 14.3C69.095 12.588 68.087 11.796 67.007 11.796L67.006 11.8ZM157.797 11.8C156.681 11.8 155.709 12.592 155.709 14.3C155.709 15.992 156.645 16.8 157.761 16.8C158.071 16.7922 158.375 16.7192 158.654 16.5856C158.934 16.4521 159.182 16.2611 159.382 16.0251C159.583 15.7892 159.731 15.5135 159.818 15.2162C159.904 14.919 159.927 14.6067 159.885 14.3C159.885 12.588 158.877 11.796 157.8 11.796L157.797 11.8ZM79.023 11.818C78.712 11.8214 78.4051 11.8896 78.122 12.0182C77.8388 12.1469 77.5856 12.3333 77.3786 12.5653C77.1715 12.7974 77.0152 13.0701 76.9195 13.3661C76.8239 13.662 76.791 13.9746 76.823 14.284C76.791 14.5951 76.8238 14.9094 76.9191 15.2072C77.0143 15.505 77.1702 15.7799 77.3768 16.0147C77.5833 16.2494 77.8362 16.4389 78.1195 16.5713C78.4028 16.7037 78.7104 16.7761 79.023 16.784C79.3353 16.7798 79.6434 16.7104 79.9273 16.5803C80.2113 16.4502 80.465 16.2622 80.6721 16.0283C80.8792 15.7945 81.0352 15.52 81.1301 15.2223C81.2249 14.9247 81.2566 14.6106 81.223 14.3C81.2569 13.9893 81.2254 13.6749 81.1307 13.377C81.036 13.0792 80.8801 12.8044 80.6729 12.5703C80.4658 12.3363 80.212 12.1481 79.9279 12.0178C79.6437 11.8876 79.3355 11.8181 79.023 11.814V11.818ZM122.304 11.602C121.818 11.5842 121.344 11.7534 120.979 12.0749C120.614 12.3964 120.386 12.8456 120.342 13.33H124.194C124.194 13.0884 124.144 12.8494 124.047 12.6283C123.95 12.4071 123.808 12.2087 123.63 12.0457C123.451 11.8827 123.241 11.7587 123.012 11.6816C122.783 11.6045 122.541 11.576 122.3 11.598L122.304 11.602Z" fill="white"/>
</mask>
<g mask="url(#mask2_1910_13603)">
<mask id="mask3_1910_13603" style="mask-type:luminance" maskUnits="userSpaceOnUse" x="2" y="-88" width="202" height="203">
<path d="M2 114.32H204V-87.68H2V114.32Z" fill="white"/>
</mask>
<g mask="url(#mask3_1910_13603)">
<path d="M31.558 5H184.2V20.464H31.558V5Z" fill="white"/>
</g>
</g>
</g>
<defs>
<clipPath id="clip0_1910_13603">
<rect width="183.199" height="26" fill="white"/>
</clipPath>
</defs>
</svg>
