<svg width="1024" height="1024" viewBox="0 0 1024 1024" fill="none" xmlns="http://www.w3.org/2000/svg">
<rect width="1024" height="1024" fill="#101011"/>
<path d="M721.754 354.646C734.1 372.063 744.098 390.478 751.818 409.497C726.847 385.358 693.038 370.612 655.874 370.791L506.744 371.511C430.327 371.88 368.672 435.215 369.035 512.973C369.398 590.73 431.64 653.465 508.057 653.096L657.188 652.376C694.131 652.197 727.623 637.302 752.326 613.177C734.285 658.526 703.878 699.418 662.004 730.151C543.599 817.056 378.378 789.836 292.972 669.354C207.566 548.872 234.317 380.753 352.721 293.849C471.126 206.944 636.347 234.164 721.754 354.646Z" fill="white"/>
<path d="M728.53 616.396C671.908 657.954 592.897 644.937 552.055 587.322C511.213 529.706 524.006 449.31 580.628 407.751C637.25 366.193 716.261 379.21 757.103 436.825C797.945 494.441 785.152 574.837 728.53 616.396Z" fill="white"/>
</svg>
