<svg width="41" height="41" viewBox="0 0 41 41" fill="none" xmlns="http://www.w3.org/2000/svg">
<g clip-path="url(#clip0_1682_212)">
<path d="M0.355469 10.3857C0.355469 6.82216 0.355469 5.04038 1.03472 3.67928C1.63221 2.48203 2.58559 1.50863 3.75823 0.898593C5.09133 0.205078 6.83647 0.205078 10.3267 0.205078H30.9975C34.4878 0.205078 36.2329 0.205078 37.566 0.898593C38.7386 1.50863 39.692 2.48203 40.2895 3.67928C40.9688 5.04038 40.9688 6.82216 40.9688 10.3857V31.4905C40.9688 35.0541 40.9688 36.8358 40.2895 38.1969C39.692 39.3942 38.7386 40.3676 37.566 40.9776C36.2329 41.6711 34.4878 41.6711 30.9975 41.6711H10.3267C6.83647 41.6711 5.09133 41.6711 3.75823 40.9776C2.58559 40.3676 1.63221 39.3942 1.03472 38.1969C0.355469 36.8358 0.355469 35.0541 0.355469 31.4905V10.3857Z" fill="#3E75F8"/>
<g filter="url(#filter0_f_1682_212)">
<path d="M43.6719 -2.08417C43.6719 7.32129 33.0316 14.9459 19.9062 14.9459C6.78086 14.9459 -3.85938 7.32129 -3.85938 -2.08417C-3.85938 -11.4896 6.78086 -19.1143 19.9062 -19.1143C33.0316 -19.1143 43.6719 -11.4896 43.6719 -2.08417Z" fill="#27C4FF"/>
</g>
<g filter="url(#filter1_f_1682_212)">
<path d="M27.2715 37.313C27.2715 45.0362 19.2826 51.2971 9.42773 51.2971C-0.427096 51.2971 -8.41602 45.0362 -8.41602 37.313C-8.41602 29.5898 -0.427096 23.3289 9.42773 23.3289C19.2826 23.3289 27.2715 29.5898 27.2715 37.313Z" fill="#2C1EE6"/>
</g>
<g filter="url(#filter2_f_1682_212)">
<path d="M70.1348 42.6189C70.1348 51.2706 59.4945 58.2842 46.3691 58.2842C33.2437 58.2842 22.6035 51.2706 22.6035 42.6189C22.6035 33.9672 33.2437 26.9536 46.3691 26.9536C59.4945 26.9536 70.1348 33.9672 70.1348 42.6189Z" fill="#6634FB"/>
</g>
<path d="M8.58713 18.0772C9.29587 18.8855 9.61505 20.9251 9.64789 20.9087C11.3279 20.0629 13.0607 19.9533 14.3758 20.2051C15.6909 20.4568 16.4917 21.0001 17.3288 21.6082C18.1659 22.2164 18.5632 22.4716 19.2842 22.7331C20.0051 22.9945 21.4334 23.0238 22.8344 22.8065C26.1427 22.2936 28.3232 22.4485 30.1589 23.2757C29.9191 23.3182 29.6663 23.3738 29.3937 23.4392C27.7846 22.867 25.7256 22.7331 22.9475 23.2234C21.9755 23.3869 20.9837 23.4163 20.0051 23.3182C19.2433 23.2103 18.5143 22.9389 17.8673 22.5237C17.5948 22.3373 17.2959 22.115 16.984 21.896C16.7311 21.6933 15.4223 20.8868 14.6112 20.6973C13.8001 20.5077 12.8288 20.4631 12.1708 20.5605C11.5128 20.6579 10.5716 20.9358 10.1541 21.182C9.60194 21.5076 9.2253 21.8724 9.02419 22.2765C9.07318 22.5493 9.11737 22.7707 9.15677 22.9408C9.17319 22.9179 9.57 21.7325 10.4983 21.6704C11.4267 21.6082 11.7495 22.6414 11.8808 23.2103C12.0089 23.9492 12.0188 24.7012 11.917 25.4401C11.8808 25.8488 11.8447 26.2706 11.8447 26.6825C11.8382 27.3299 11.917 27.974 12.0844 28.5985C12.3504 28.8927 12.6329 29.1706 12.9284 29.4387C12.4916 28.7587 12.2815 27.8824 12.2815 26.6793C12.2815 26.2869 12.3176 25.875 12.3504 25.4728C12.4588 24.6849 12.4424 23.8904 12.3045 23.1089C12.1041 22.2425 11.7342 21.683 11.2515 21.428C12.2727 21.4411 13.2207 21.5337 14.081 22.0863C14.9414 22.6388 15.2972 23.413 16.1958 24.2271C17.0945 25.0412 18.712 25.8954 19.781 26.0029C20.8499 26.1104 21.5442 25.9267 22.4553 25.6396C23.3664 25.3524 25.0172 24.6486 25.9655 24.3637C26.5978 24.1738 27.2978 24.0451 28.0657 23.9777C27.1959 24.3637 26.0203 25.2975 26.049 26.0029C26.0785 26.7287 26.443 27.1917 26.246 27.8951C26.049 28.5985 25.6468 28.9415 25.6468 29.4551C22.3827 30.3084 19.6866 30.1253 17.6506 28.9025C16.1781 27.9918 15.1157 26.6868 14.5921 25.0503L14.5459 24.9006H14.081C14.5999 26.725 15.7919 28.2846 17.4207 29.272C18.7901 30.0501 20.3499 30.4392 21.9262 30.3901C23.2102 30.3738 24.4876 30.194 25.7256 29.8572C25.7912 30.2129 25.8737 30.2231 26.1427 30.7302C26.4117 31.2372 26.5893 31.5345 26.5138 32.1884C24.9145 32.8586 23.1971 33.2019 21.4632 33.2019C20.7506 33.2019 20.0413 33.1431 19.3385 33.0286C12.2224 31.8549 7.40822 25.1622 8.58713 18.0772ZM30.4347 23.6844C30.7007 23.6419 30.97 23.6975 31.1998 23.8348L31.3936 23.959C31.8599 24.2892 32.1752 24.7927 32.2605 25.3551C32.3295 25.9469 32.0734 26.5419 31.4954 27.1141C31.456 27.1566 31.4002 27.1795 31.341 27.1795C31.3181 27.1828 31.2984 27.1828 31.2754 27.1795L27.0228 25.839L26.9834 25.8226C26.8881 25.9567 26.8356 26.1136 26.8389 26.2771C26.8553 26.4504 26.8947 26.6204 26.9538 26.7839C27.1278 27.2155 27.1443 27.6961 26.9998 28.1375C26.9177 28.3859 26.8093 28.6246 26.6747 28.8469C26.4547 29.2393 26.3332 29.4551 26.6221 29.9847C26.7075 30.1547 26.7995 30.3051 26.8783 30.4359C27.1574 30.9035 27.3774 31.2598 27.3282 31.917C27.3183 32.0314 27.2231 32.1197 27.1081 32.1197H27.0917C27.0359 32.1164 26.9834 32.0903 26.9472 32.0478C26.9866 31.3841 26.783 31.0179 26.5039 30.5275C26.4284 30.3869 26.3364 30.2267 26.2478 30.0468C25.9555 29.4714 26.0869 29.2229 26.3003 28.811C26.435 28.569 26.5433 28.314 26.6221 28.0492C26.7633 27.5849 26.7469 27.0847 26.5762 26.6302C26.5138 26.4504 26.4776 26.2673 26.4645 26.0777C26.4579 25.9698 26.4776 25.8619 26.517 25.7605C26.7272 25.4009 27.0162 25.0935 27.3676 24.8679C27.939 24.4494 28.576 24.1356 29.2558 23.9329C29.4824 23.874 29.6958 23.8217 29.8961 23.7792L30.1195 23.74L30.2253 23.719C30.2961 23.7062 30.3668 23.6953 30.4347 23.6844ZM30.5661 24.1062C30.2574 24.1388 29.9487 24.1944 29.6466 24.2696C28.9176 24.4494 28.2312 24.7699 27.627 25.2112C27.5186 25.293 27.4103 25.378 27.3052 25.4663L31.2754 26.725H31.2787V26.7283C31.6859 26.264 31.8698 25.8226 31.8271 25.3878C31.7515 24.953 31.5118 24.5639 31.1539 24.3056L31.0028 24.2108C30.8747 24.129 30.7204 24.0931 30.5661 24.1062ZM14.3471 16.1518C16.0095 16.1606 16.6643 16.4253 16.9117 16.5896C16.5801 16.7759 16.2353 16.9361 15.8773 17.0702C14.3076 17.6325 13.0995 17.765 10.7365 17.2975C10.7221 17.2947 11.1116 18.9498 9.87353 20.336C9.49589 18.4691 8.62981 17.2761 8.07812 16.7301C8.53787 16.7073 8.99104 16.6615 9.44421 16.5896C11.5423 16.2728 13.0661 16.1577 14.1715 16.1518L14.3471 16.1518ZM17.713 16.6059C17.713 16.6124 17.6584 18.8029 15.8917 20.2051C15.8917 20.2051 13.104 19.1811 10.465 20.2051C10.9773 19.5348 11.209 18.6167 11.1631 17.7732C14.667 18.4924 17.007 17.1258 17.713 16.6059ZM27.7025 8.80159C29.6736 9.87953 31.3329 11.4402 32.5246 13.3344L32.6349 13.5129L27.4037 16.5209C27.3774 16.4784 27.3512 16.4392 27.3249 16.3967C25.2134 13.1631 20.8721 12.2476 17.6276 14.3499C20.2252 11.378 23.7947 9.40971 27.7025 8.80159ZM26.3824 8.17384C24.6748 8.56618 23.0329 9.207 21.5124 10.0767C19.0758 11.4728 17.0004 13.4214 15.4603 15.7656C14.2715 15.6479 12.3866 15.7035 9.38839 16.1547C9.27017 16.1743 9.15852 16.1907 9.03045 16.2037C9.12896 15.8997 9.24062 15.5989 9.36212 15.3014C12.0844 8.65446 19.7063 5.46342 26.3824 8.17384Z" fill="white"/>
</g>
<defs>
<filter id="filter0_f_1682_212" x="-16.6594" y="-31.9143" width="73.1313" height="59.6601" filterUnits="userSpaceOnUse" color-interpolation-filters="sRGB">
<feFlood flood-opacity="0" result="BackgroundImageFix"/>
<feBlend mode="normal" in="SourceGraphic" in2="BackgroundImageFix" result="shape"/>
<feGaussianBlur stdDeviation="6.4" result="effect1_foregroundBlur_1682_212"/>
</filter>
<filter id="filter1_f_1682_212" x="-21.216" y="10.5289" width="61.2875" height="53.5683" filterUnits="userSpaceOnUse" color-interpolation-filters="sRGB">
<feFlood flood-opacity="0" result="BackgroundImageFix"/>
<feBlend mode="normal" in="SourceGraphic" in2="BackgroundImageFix" result="shape"/>
<feGaussianBlur stdDeviation="6.4" result="effect1_foregroundBlur_1682_212"/>
</filter>
<filter id="filter2_f_1682_212" x="9.80352" y="14.1536" width="73.1313" height="56.9306" filterUnits="userSpaceOnUse" color-interpolation-filters="sRGB">
<feFlood flood-opacity="0" result="BackgroundImageFix"/>
<feBlend mode="normal" in="SourceGraphic" in2="BackgroundImageFix" result="shape"/>
<feGaussianBlur stdDeviation="6.4" result="effect1_foregroundBlur_1682_212"/>
</filter>
<clipPath id="clip0_1682_212">
<rect x="0.355469" y="0.205078" width="40" height="40" rx="20" fill="white"/>
</clipPath>
</defs>
</svg>
