<svg width="185" height="76" viewBox="0 0 185 76" fill="none" xmlns="http://www.w3.org/2000/svg">
<g opacity="0.8">
<g clip-path="url(#clip0_2130_1207)">
<mask id="mask0_2130_1207" style="mask-type:luminance" maskUnits="userSpaceOnUse" x="24" y="19" width="137" height="38">
<path d="M160.624 19.7568H24.2639V56.2428H160.624V19.7568Z" fill="white"/>
</mask>
<g mask="url(#mask0_2130_1207)">
<path fill-rule="evenodd" clip-rule="evenodd" d="M70.6609 34.6458L75.2769 22.8138H76.2989L80.9149 34.6508H79.9989L78.5719 30.9508H72.9719L71.5449 34.6508L70.6609 34.6458ZM75.7879 23.7038H75.7529L73.2529 30.2038H78.2919L75.7879 23.7038ZM82.0429 30.5138C82.0358 29.9015 82.1342 29.2926 82.3339 28.7138C82.5116 28.1962 82.7866 27.7173 83.1439 27.3028C83.4773 26.9169 83.8886 26.606 84.3509 26.3908C84.8149 26.1774 85.3202 26.0688 85.8309 26.0728C86.1685 26.0714 86.5047 26.1148 86.8309 26.2018C87.1388 26.284 87.4327 26.4117 87.7029 26.5808C87.9673 26.749 88.2036 26.9579 88.4029 27.1998C88.6131 27.4558 88.7819 27.7433 88.9029 28.0518H88.9559C88.9439 27.9258 88.9352 27.7078 88.9299 27.3978C88.9246 27.0878 88.9186 26.7524 88.9119 26.3918C88.9059 26.0304 88.9029 25.6971 88.9029 25.3918V22.0518H89.7489V34.6458H88.9669V32.8228H88.9139C88.7925 33.1322 88.6212 33.4197 88.4069 33.6738C88.1968 33.9192 87.9502 34.131 87.6759 34.3018C87.3969 34.475 87.0935 34.6054 86.7759 34.6888C86.4441 34.7746 86.1026 34.8167 85.7599 34.8138C85.2546 34.8182 84.7539 34.7185 84.2889 34.5208C83.8365 34.3255 83.4333 34.0317 83.1089 33.6608C82.7613 33.2599 82.495 32.7953 82.3249 32.2928C82.1307 31.72 82.0353 31.1185 82.0429 30.5138ZM82.9239 30.5138C82.9169 31.023 82.9943 31.5298 83.1529 32.0138C83.2881 32.4299 83.5034 32.8155 83.7869 33.1488C84.0477 33.4514 84.3725 33.6922 84.7379 33.8538C85.1043 34.0149 85.5006 34.097 85.9009 34.0948C86.2983 34.0976 86.6918 34.0155 87.0549 33.8538C87.4154 33.6915 87.739 33.4574 88.0059 33.1658C88.2946 32.8464 88.5163 32.4724 88.6579 32.0658C88.8214 31.6013 88.9075 31.1131 88.9129 30.6208V30.2768C88.9075 29.7844 88.8214 29.2962 88.6579 28.8318C88.517 28.4268 88.2986 28.0532 88.0149 27.7318C87.7511 27.4364 87.4274 27.2007 87.0652 27.0405C86.7031 26.8803 86.3109 26.7992 85.9149 26.8028C85.5066 26.7977 85.1025 26.8862 84.7336 27.0615C84.3648 27.2367 84.0409 27.494 83.7869 27.8138C83.5053 28.1677 83.2905 28.5699 83.1529 29.0008C82.9956 29.4895 82.9183 30.0004 82.9239 30.5138ZM94.7819 34.6428L91.4699 26.2428H92.3699L95.2419 33.7428H95.2769L98.1489 26.2428H98.9949L95.6999 34.6428H94.7819ZM100.121 32.5428C100.115 32.2314 100.169 31.9218 100.28 31.6308C100.387 31.3637 100.552 31.1244 100.765 30.9308C101.006 30.7149 101.283 30.5429 101.584 30.4228C101.958 30.2729 102.348 30.1688 102.747 30.1128L104.791 29.7858C105.014 29.7511 105.196 29.7178 105.337 29.6858C105.461 29.658 105.579 29.6114 105.689 29.5478C105.777 29.4961 105.85 29.4219 105.9 29.3328C105.948 29.2403 105.972 29.1371 105.97 29.0328C105.966 28.6957 105.906 28.3616 105.794 28.0438C105.7 27.7799 105.547 27.541 105.347 27.3452C105.147 27.1494 104.905 27.0018 104.639 26.9138C104.335 26.8119 104.016 26.7625 103.696 26.7678C103.371 26.7639 103.047 26.8105 102.736 26.9058C102.462 26.9886 102.208 27.1245 101.987 27.3058C101.772 27.4881 101.598 27.7136 101.476 27.9678C101.342 28.2484 101.265 28.5524 101.247 28.8628H100.437C100.455 28.465 100.55 28.0746 100.719 27.7138C100.88 27.374 101.111 27.0721 101.397 26.8278C101.693 26.576 102.036 26.3856 102.407 26.2678C102.823 26.1374 103.257 26.0736 103.693 26.0788C104.141 26.0726 104.587 26.1402 105.014 26.2788C105.381 26.3929 105.716 26.5911 105.992 26.8576C106.269 27.1241 106.479 27.4515 106.607 27.8138C106.754 28.2277 106.825 28.6646 106.818 29.1038V34.6438H106.025V33.0438H105.972C105.857 33.3157 105.696 33.566 105.496 33.7838C105.292 34.0043 105.056 34.1928 104.796 34.3428C104.521 34.5021 104.224 34.621 103.915 34.6958C103.572 34.7782 103.22 34.8185 102.867 34.8158C102.473 34.8218 102.081 34.7668 101.704 34.6528C101.388 34.557 101.095 34.3989 100.841 34.1878C100.611 33.993 100.427 33.749 100.304 33.4738C100.178 33.1813 100.115 32.8653 100.12 32.5468L100.121 32.5428ZM105.971 31.0628V29.9488C105.919 30.0103 105.86 30.065 105.795 30.1118C105.718 30.167 105.635 30.2133 105.548 30.2498C105.451 30.2909 105.351 30.3227 105.248 30.3448C105.142 30.3674 105.025 30.3904 104.896 30.4138L102.905 30.7238C102.609 30.7611 102.319 30.8364 102.042 30.9478C101.82 31.0359 101.614 31.161 101.434 31.3178C101.278 31.4571 101.158 31.6311 101.082 31.8258C101.003 32.0346 100.964 32.2565 100.967 32.4798C100.965 32.7101 101.01 32.9384 101.099 33.1508C101.185 33.3541 101.318 33.5341 101.487 33.6758C101.674 33.8284 101.89 33.9425 102.121 34.0118C102.404 34.0962 102.698 34.1367 102.993 34.1318C103.376 34.1343 103.758 34.0731 104.121 33.9508C104.471 33.8314 104.794 33.6442 105.072 33.3998C105.365 33.1381 105.591 32.8108 105.733 32.4448C105.9 32.0053 105.98 31.5377 105.969 31.0678L105.971 31.0628ZM109.671 34.6418V26.2418H110.464V27.8848H110.517C110.639 27.5973 110.806 27.3305 111.01 27.0938C111.209 26.8655 111.446 26.6734 111.71 26.5258C111.975 26.3763 112.26 26.2637 112.556 26.1908C112.858 26.1158 113.169 26.0782 113.481 26.0788C113.894 26.0734 114.305 26.1373 114.697 26.2678C115.075 26.3981 115.417 26.6147 115.696 26.9005C115.976 27.1862 116.185 27.5331 116.307 27.9138C116.47 28.4104 116.547 28.9312 116.536 29.4538V34.6538H115.69V29.5538C115.699 29.126 115.643 28.6994 115.523 28.2888C115.43 27.9709 115.264 27.6792 115.038 27.4368C114.829 27.2203 114.572 27.0553 114.289 26.9548C113.98 26.848 113.655 26.7956 113.329 26.7998C112.954 26.7973 112.583 26.8704 112.237 27.0148C111.893 27.1601 111.585 27.3805 111.337 27.6598C111.062 27.9755 110.855 28.3445 110.729 28.7438C110.576 29.2219 110.501 29.7217 110.509 30.2238V34.6458L109.671 34.6418ZM118.727 30.4418C118.72 29.8387 118.819 29.2391 119.018 28.6698C119.198 28.1542 119.479 27.6801 119.846 27.2758C120.195 26.8923 120.621 26.5871 121.096 26.3803C121.571 26.1734 122.085 26.0696 122.603 26.0758C123.045 26.0703 123.484 26.1399 123.903 26.2818C124.284 26.4123 124.637 26.6138 124.943 26.8758C125.245 27.1362 125.498 27.4476 125.692 27.7958C125.894 28.1591 126.031 28.5551 126.097 28.9658H125.251C125.184 28.6521 125.068 28.351 124.907 28.0738C124.759 27.8163 124.569 27.5862 124.343 27.3938C124.114 27.201 123.851 27.0522 123.568 26.9548C123.256 26.8484 122.928 26.796 122.599 26.7998C122.196 26.798 121.798 26.8894 121.436 27.0668C121.068 27.2475 120.741 27.5021 120.476 27.8148C120.188 28.1564 119.97 28.5508 119.833 28.9758C119.677 29.4503 119.599 29.9472 119.604 30.4468C119.598 30.9486 119.672 31.4482 119.824 31.9268C119.958 32.3497 120.17 32.7435 120.45 33.0878C120.708 33.408 121.036 33.6651 121.408 33.8395C121.78 34.0138 122.188 34.1008 122.599 34.0938C122.928 34.0975 123.256 34.0451 123.568 33.9388C123.851 33.8414 124.114 33.6926 124.343 33.4998C124.569 33.3073 124.759 33.0772 124.907 32.8198C125.065 32.5411 125.178 32.239 125.242 31.9248H126.088C126.022 32.3354 125.885 32.7314 125.683 33.0948C125.489 33.4429 125.235 33.7543 124.934 34.0148C124.628 34.2767 124.275 34.4783 123.894 34.6088C123.475 34.7506 123.036 34.8202 122.594 34.8148C122.05 34.8209 121.51 34.7154 121.008 34.5048C120.536 34.3051 120.115 34.0024 119.775 33.6188C119.423 33.2146 119.156 32.7435 118.991 32.2338C118.806 31.6568 118.716 31.0535 118.726 30.4478L118.727 30.4418ZM127.642 30.4418C127.636 29.8443 127.735 29.2505 127.933 28.6868C128.111 28.1727 128.39 27.699 128.752 27.2928C129.094 26.9118 129.51 26.6054 129.976 26.3928C130.449 26.1788 130.963 26.0702 131.482 26.0748C131.973 26.0701 132.461 26.1607 132.918 26.3418C133.354 26.5163 133.745 26.7867 134.063 27.1328C134.396 27.499 134.65 27.9295 134.811 28.3978C134.995 28.9347 135.084 29.4993 135.076 30.0668V30.4278H128.522V30.4448C128.516 30.946 128.588 31.4452 128.734 31.9248C128.861 32.3453 129.064 32.7388 129.334 33.0858C129.586 33.4078 129.912 33.6644 130.285 33.8338C130.684 34.0105 131.117 34.0985 131.553 34.0918C131.885 34.095 132.215 34.0457 132.531 33.9458C132.815 33.8563 133.08 33.7164 133.315 33.5328C133.537 33.3559 133.725 33.14 133.87 32.8958C134.016 32.6498 134.115 32.3784 134.161 32.0958H134.988C134.943 32.4781 134.82 32.8471 134.627 33.1798C134.433 33.5129 134.179 33.8075 133.879 34.0488C133.564 34.3005 133.206 34.493 132.822 34.6168C132.412 34.751 131.984 34.8185 131.553 34.8168C130.988 34.8256 130.428 34.7201 129.905 34.5068C129.431 34.3099 129.009 34.0068 128.672 33.6208C128.326 33.2154 128.065 32.7443 127.906 32.2358C127.724 31.6575 127.634 31.054 127.641 30.4478L127.642 30.4418ZM131.483 26.7948C131.12 26.7921 130.761 26.8622 130.426 27.0008C130.095 27.1395 129.795 27.3436 129.545 27.6008C129.277 27.8792 129.059 28.2024 128.902 28.5558C128.727 28.9463 128.611 29.3609 128.559 29.7858H134.214C134.198 29.3516 134.114 28.9225 133.967 28.5138C133.84 28.164 133.645 27.8426 133.394 27.5678C133.159 27.3141 132.87 27.1171 132.548 26.9918C132.207 26.8616 131.845 26.7968 131.481 26.8008L131.483 26.7948ZM136.697 30.5138C136.69 29.9015 136.788 29.2926 136.988 28.7138C137.166 28.1962 137.441 27.7173 137.798 27.3028C138.131 26.9171 138.543 26.6063 139.005 26.3908C139.469 26.1774 139.974 26.0688 140.485 26.0728C140.822 26.0715 141.159 26.1148 141.485 26.2018C141.792 26.2841 142.086 26.4118 142.356 26.5808C142.622 26.7487 142.86 26.9576 143.061 27.1998C143.271 27.4559 143.44 27.7434 143.561 28.0518H143.614C143.602 27.9258 143.594 27.7078 143.587 27.3978C143.58 27.0878 143.576 26.7528 143.57 26.3918C143.564 26.0308 143.561 25.6978 143.561 25.3918V22.0518H144.407V34.6458H143.614V32.8228H143.561C143.438 33.1328 143.266 33.4207 143.05 33.6748C142.84 33.9203 142.593 34.1321 142.319 34.3028C142.04 34.476 141.737 34.6064 141.419 34.6898C141.088 34.7768 140.748 34.8201 140.406 34.8188C139.901 34.8232 139.4 34.7234 138.935 34.5258C138.482 34.3306 138.079 34.0368 137.755 33.6658C137.407 33.2651 137.141 32.8005 136.971 32.2978C136.779 31.723 136.686 31.1197 136.697 30.5138ZM137.578 30.5138C137.571 31.023 137.649 31.5299 137.808 32.0138C137.943 32.43 138.159 32.8156 138.443 33.1488C138.703 33.4517 139.028 33.6926 139.394 33.8538C139.76 34.015 140.157 34.0971 140.557 34.0948C140.954 34.0976 141.347 34.0154 141.71 33.8538C142.07 33.6916 142.394 33.4575 142.661 33.1658C142.95 32.8468 143.172 32.4726 143.313 32.0658C143.477 31.6014 143.563 31.1132 143.568 30.6208V30.2768C143.563 29.7843 143.477 29.2961 143.313 28.8318C143.172 28.4267 142.954 28.0531 142.67 27.7318C142.407 27.4393 142.086 27.205 141.728 27.0438C141.365 26.8822 140.971 26.8001 140.574 26.8028C140.165 26.7971 139.76 26.8853 139.39 27.0606C139.021 27.2358 138.696 27.4935 138.442 27.8138C138.16 28.1675 137.945 28.5698 137.807 29.0008C137.65 29.4895 137.572 30.0004 137.578 30.5138Z" fill="black"/>
<path fill-rule="evenodd" clip-rule="evenodd" d="M70.6829 51.5413V39.7043H76.4079C76.9988 39.6945 77.5883 39.7638 78.1609 39.9103C78.6149 40.024 79.0398 40.2322 79.4079 40.5213C79.7283 40.7797 79.9795 41.1137 80.1389 41.4933C80.3045 41.9091 80.3854 42.3538 80.3769 42.8013C80.3786 43.0751 80.3399 43.3477 80.2619 43.6103C80.1852 43.8634 80.0661 44.1018 79.9099 44.3153C79.7466 44.5375 79.543 44.7271 79.3099 44.8743C79.0503 45.0376 78.7683 45.1622 78.4729 45.2443V45.3133C78.8219 45.3758 79.1592 45.4918 79.4729 45.6573C79.7595 45.8076 80.0163 46.0089 80.2309 46.2513C80.4381 46.4892 80.5995 46.7635 80.7069 47.0603C80.8196 47.3718 80.8761 47.7009 80.8739 48.0323C80.8783 48.5117 80.7886 48.9874 80.6099 49.4323C80.4359 49.8591 80.1679 50.2413 79.8259 50.5503C79.4489 50.8828 79.0059 51.1319 78.5259 51.2813C77.9562 51.4613 77.3612 51.5484 76.7639 51.5393L70.6829 51.5413ZM76.4439 46.2943H73.0619V49.7183H76.4269C76.7318 49.7238 77.0357 49.6802 77.3269 49.5893C77.5637 49.5155 77.7824 49.3928 77.9689 49.2293C78.1382 49.076 78.2681 48.8843 78.3479 48.6703C78.4323 48.4387 78.474 48.1937 78.4709 47.9473C78.4747 47.7147 78.4329 47.4837 78.3479 47.2673C78.2657 47.0668 78.1356 46.8896 77.9689 46.7513C77.7791 46.5974 77.5605 46.4832 77.3259 46.4153C77.04 46.3306 76.743 46.2894 76.4449 46.2933L76.4439 46.2943ZM76.1079 41.5293H73.0619V44.5743H76.0919C76.3755 44.5794 76.6581 44.5389 76.9289 44.4543C77.1518 44.3841 77.3584 44.2702 77.5369 44.1193C77.6969 43.982 77.8208 43.8075 77.8979 43.6113C77.9769 43.4024 78.0159 43.1806 78.0129 42.9573C78.0161 42.7572 77.9801 42.5585 77.9069 42.3723C77.8343 42.1976 77.7191 42.0439 77.5719 41.9253C77.3975 41.7879 77.1966 41.6882 76.9819 41.6323C76.6966 41.5579 76.4025 41.5233 76.1079 41.5293ZM82.8909 51.5423V38.9473H85.1639V51.5413L82.8909 51.5423ZM87.0669 47.3423C87.0598 46.7152 87.1756 46.0928 87.4079 45.5103C87.6195 44.9819 87.9441 44.5061 88.3589 44.1163C88.7767 43.7278 89.2699 43.4293 89.8079 43.2393C90.3938 43.0342 91.0111 42.9327 91.6319 42.9393C92.2634 42.9305 92.892 43.0285 93.4909 43.2293C94.0269 43.409 94.5166 43.7051 94.9248 44.0963C95.333 44.4876 95.6496 44.9643 95.8519 45.4923C96.0773 46.0822 96.188 46.7098 96.1779 47.3413C96.1869 47.9679 96.0731 48.5903 95.8429 49.1733C95.6311 49.7016 95.3066 50.1774 94.8919 50.5673C94.4749 50.9549 93.9832 51.2533 93.4469 51.4443C92.8641 51.6498 92.2498 51.7514 91.6319 51.7443C90.9972 51.7516 90.3658 51.6526 89.7639 51.4513C89.2243 51.271 88.731 50.9743 88.3189 50.5823C87.9138 50.1896 87.5983 49.7141 87.3939 49.1883C87.1692 48.5995 87.0589 47.9733 87.0689 47.3433L87.0669 47.3423ZM89.4099 47.3423C89.4055 47.7238 89.4591 48.1038 89.5689 48.4693C89.6613 48.7824 89.8138 49.0745 90.0179 49.3293C90.2067 49.5611 90.4462 49.7465 90.7179 49.8713C91.0041 49.9961 91.3131 50.0605 91.6254 50.0605C91.9377 50.0605 92.2466 49.9961 92.5329 49.8713C92.8061 49.749 93.046 49.5631 93.2329 49.3293C93.4318 49.0725 93.581 48.7808 93.6729 48.4693C93.7826 48.1038 93.8362 47.7238 93.8319 47.3423C93.8372 46.9587 93.7867 46.5763 93.6819 46.2073C93.5937 45.8967 93.4441 45.6069 93.2419 45.3553C93.0541 45.1246 92.8142 44.9419 92.5419 44.8223C92.2554 44.6996 91.9465 44.638 91.6349 44.6413C91.3224 44.6378 91.0129 44.7023 90.7279 44.8303C90.4561 44.955 90.2167 45.1404 90.0279 45.3723C89.8249 45.6248 89.6725 45.9141 89.5789 46.2243C89.4645 46.5862 89.4069 46.9637 89.4079 47.3433L89.4099 47.3423ZM97.4799 47.3423C97.4707 46.7164 97.5814 46.0946 97.8059 45.5103C98.0093 44.9861 98.3215 44.511 98.7219 44.1163C99.126 43.7251 99.6096 43.4257 100.14 43.2383C101.266 42.8586 102.482 42.8376 103.62 43.1783C104.074 43.3208 104.498 43.5451 104.871 43.8403C105.21 44.1132 105.489 44.4537 105.69 44.8403C105.889 45.2234 106.015 45.6407 106.06 46.0703H103.825C103.791 45.8785 103.728 45.6928 103.64 45.5193C103.549 45.3434 103.427 45.1858 103.279 45.0543C103.115 44.9103 102.923 44.802 102.715 44.7363C102.47 44.6583 102.214 44.6205 101.957 44.6243C101.657 44.6208 101.361 44.6894 101.094 44.8243C100.831 44.9601 100.599 45.1507 100.416 45.3833C100.213 45.6411 100.063 45.9364 99.9749 46.2523C99.7753 46.9669 99.7753 47.7226 99.9749 48.4373C100.063 48.7531 100.213 49.0484 100.416 49.3063C100.599 49.5387 100.831 49.7293 101.094 49.8653C101.361 50.0001 101.657 50.0686 101.957 50.0653C102.214 50.069 102.47 50.0312 102.715 49.9533C102.923 49.8875 103.115 49.7792 103.279 49.6353C103.427 49.5038 103.549 49.3461 103.64 49.1703C103.728 48.9967 103.791 48.8111 103.825 48.6193H106.063C106.021 49.0511 105.898 49.4713 105.702 49.8583C105.504 50.2412 105.228 50.5782 104.892 50.8473C104.516 51.1436 104.089 51.368 103.632 51.5093C103.09 51.677 102.525 51.7584 101.958 51.7503C101.329 51.7586 100.703 51.6595 100.108 51.4573C99.5787 51.2761 99.095 50.9828 98.6899 50.5973C98.2882 50.2067 97.9805 49.7301 97.7899 49.2033C97.5765 48.6068 97.4721 47.9767 97.4819 47.3433L97.4799 47.3423ZM107.822 51.5423V38.9473H110.095V46.6383L113.319 43.1453H115.891L112.687 46.4993L116.208 51.5413H113.608L111.194 48.0663L110.102 49.2023V51.5423H107.822ZM116.913 47.3423C116.904 46.7164 117.014 46.0946 117.239 45.5103C117.442 44.9861 117.755 44.511 118.155 44.1163C118.559 43.7252 119.043 43.4257 119.573 43.2383C120.699 42.8586 121.915 42.8376 123.053 43.1783C123.507 43.3208 123.931 43.5451 124.304 43.8403C124.643 44.1132 124.922 44.4537 125.123 44.8403C125.322 45.2234 125.448 45.6407 125.493 46.0703H123.259C123.225 45.8785 123.162 45.6928 123.074 45.5193C122.983 45.3435 122.861 45.1859 122.713 45.0543C122.549 44.9104 122.357 44.8021 122.149 44.7363C121.904 44.6583 121.648 44.6205 121.391 44.6243C121.091 44.6209 120.795 44.6895 120.528 44.8243C120.265 44.9602 120.033 45.1508 119.85 45.3833C119.648 45.6413 119.498 45.9366 119.41 46.2523C119.21 46.9669 119.21 47.7226 119.41 48.4373C119.498 48.753 119.648 49.0482 119.85 49.3063C120.034 49.5387 120.265 49.7293 120.528 49.8653C120.795 50 121.091 50.0686 121.391 50.0653C121.648 50.069 121.904 50.0312 122.149 49.9533C122.356 49.885 122.546 49.7747 122.708 49.6293C122.856 49.4977 122.978 49.3401 123.069 49.1643C123.157 48.9907 123.22 48.8051 123.254 48.6133H125.492C125.45 49.0451 125.327 49.4653 125.131 49.8523C124.933 50.2352 124.657 50.5722 124.321 50.8413C123.945 51.1376 123.518 51.362 123.061 51.5033C122.519 51.671 121.954 51.7524 121.387 51.7443C120.758 51.7526 120.132 51.6535 119.537 51.4513C119.008 51.2701 118.524 50.9768 118.119 50.5913C117.717 50.2007 117.409 49.7241 117.219 49.1973C117.008 48.6023 116.905 47.9744 116.916 47.3433L116.913 47.3423ZM127.255 51.5423V38.9473H129.528V42.1293C129.528 42.3126 129.525 42.5276 129.52 42.7743C129.515 43.0209 129.503 43.2789 129.484 43.5483C129.467 43.8149 129.446 44.0816 129.422 44.3483H129.493C129.608 44.1215 129.76 43.9151 129.942 43.7373C130.123 43.5606 130.327 43.4101 130.55 43.2903C130.78 43.1672 131.026 43.0773 131.281 43.0233C131.562 42.9642 131.849 42.9354 132.136 42.9373C132.572 42.9339 133.005 42.9977 133.422 43.1263C133.812 43.2463 134.17 43.4512 134.471 43.7263C134.79 44.0308 135.034 44.4049 135.185 44.8193C135.372 45.3405 135.461 45.8917 135.448 46.4453V51.5383H133.176V46.7233C133.182 46.3985 133.143 46.0744 133.061 45.7603C133 45.5249 132.885 45.3069 132.726 45.1233C132.581 44.9641 132.4 44.8429 132.198 44.7703C131.973 44.6923 131.736 44.6544 131.498 44.6583C131.228 44.6557 130.96 44.7113 130.714 44.8213C130.471 44.9318 130.257 45.0968 130.089 45.3033C129.903 45.533 129.763 45.7955 129.675 46.0773C129.571 46.4085 129.52 46.7541 129.525 47.1013V51.5403L127.255 51.5423ZM137.316 49.3743C137.31 49.0482 137.367 48.7241 137.483 48.4193C137.598 48.1339 137.779 47.8802 138.012 47.6793C138.284 47.4492 138.594 47.2688 138.928 47.1463C139.353 46.9889 139.793 46.8766 140.241 46.8113L141.897 46.5703C142.087 46.5449 142.275 46.5075 142.461 46.4583C142.575 46.4292 142.684 46.3858 142.787 46.3293C142.857 46.2902 142.912 46.23 142.946 46.1573C142.977 46.075 142.992 45.9873 142.99 45.8993C142.991 45.7054 142.957 45.513 142.89 45.3313C142.828 45.1642 142.732 45.0119 142.608 44.8843C142.474 44.7513 142.311 44.651 142.132 44.5913C141.913 44.5195 141.683 44.4857 141.453 44.4913C141.216 44.4876 140.98 44.5196 140.753 44.5863C140.562 44.6409 140.385 44.7345 140.233 44.8613C140.092 44.9808 139.981 45.1309 139.907 45.3003C139.828 45.4808 139.777 45.6723 139.757 45.8683H137.643C137.67 45.436 137.787 45.0141 137.986 44.6293C138.178 44.2628 138.452 43.9451 138.786 43.7003C139.144 43.4393 139.547 43.2467 139.975 43.1323C140.454 43.0027 140.949 42.9391 141.445 42.9433C142.006 42.935 142.566 43.0023 143.11 43.1433C143.542 43.2538 143.947 43.453 144.299 43.7283C144.613 43.9815 144.859 44.3099 145.013 44.6833C145.18 45.1047 145.261 45.5551 145.251 46.0083V51.5483H143.098V50.5483H142.992C142.863 50.7429 142.705 50.9169 142.524 51.0643C142.336 51.2169 142.129 51.344 141.908 51.4423C141.662 51.5502 141.405 51.6281 141.141 51.6743C140.844 51.7271 140.543 51.7529 140.241 51.7513C139.815 51.7574 139.39 51.6995 138.981 51.5793C138.643 51.4819 138.329 51.318 138.056 51.0973C137.813 50.8963 137.622 50.6397 137.5 50.3493C137.374 50.0394 137.313 49.7075 137.319 49.3733L137.316 49.3743ZM140.893 50.2003C141.158 50.201 141.423 50.1605 141.676 50.0803C141.926 50.0017 142.157 49.8727 142.355 49.7013C142.558 49.5248 142.717 49.3041 142.821 49.0563C142.938 48.7709 142.995 48.4646 142.989 48.1563V47.4163C142.952 47.4741 142.904 47.5238 142.848 47.5623C142.787 47.6024 142.722 47.636 142.654 47.6623C142.579 47.6922 142.503 47.7179 142.425 47.7393C142.342 47.7623 142.249 47.7853 142.143 47.8083L140.821 48.0143C140.622 48.0422 140.427 48.0943 140.24 48.1693C140.092 48.226 139.956 48.3105 139.84 48.4183C139.744 48.5104 139.669 48.6218 139.62 48.7453C139.572 48.8731 139.548 49.0087 139.55 49.1453C139.548 49.2961 139.577 49.4457 139.637 49.5843C139.695 49.7144 139.783 49.8291 139.893 49.9193C140.015 50.0162 140.155 50.0864 140.306 50.1253C140.498 50.1767 140.697 50.2015 140.896 50.1993L140.893 50.2003ZM147.552 41.0133V38.9473H149.966V41.0123L147.552 41.0133ZM147.623 51.5423V43.1423H149.896V51.5423H147.623ZM152.363 51.5423V43.1423H154.53V44.3423H154.6C154.716 44.1155 154.868 43.9091 155.05 43.7313C155.23 43.5544 155.435 43.4039 155.658 43.2843C155.888 43.1611 156.134 43.0712 156.389 43.0173C156.67 42.9582 156.956 42.9294 157.243 42.9313C157.679 42.9279 158.113 42.9916 158.53 43.1203C158.919 43.2403 159.277 43.4452 159.578 43.7203C159.897 44.0248 160.141 44.3989 160.292 44.8133C160.48 45.3342 160.57 45.8855 160.557 46.4393V51.5323H158.284V46.7233C158.291 46.3985 158.252 46.0743 158.169 45.7603C158.108 45.525 157.994 45.3069 157.835 45.1233C157.69 44.9639 157.509 44.8427 157.306 44.7703C157.081 44.6921 156.844 44.6541 156.606 44.6583C156.336 44.6557 156.068 44.7113 155.822 44.8213C155.578 44.933 155.364 45.1009 155.197 45.3113C155.012 45.5447 154.872 45.8101 154.783 46.0943C154.679 46.4255 154.628 46.7711 154.633 47.1183V51.5403L152.363 51.5423Z" fill="black"/>
<path fill-rule="evenodd" clip-rule="evenodd" d="M70.6829 51.5413V39.7043H76.4079C76.9988 39.6945 77.5883 39.7638 78.1609 39.9103C78.6149 40.024 79.0398 40.2322 79.4079 40.5213C79.7283 40.7797 79.9795 41.1137 80.1389 41.4933C80.3045 41.9091 80.3854 42.3538 80.3769 42.8013C80.3786 43.0751 80.3399 43.3477 80.2619 43.6103C80.1852 43.8634 80.0661 44.1018 79.9099 44.3153C79.7466 44.5375 79.543 44.7271 79.3099 44.8743C79.0503 45.0376 78.7683 45.1622 78.4729 45.2443V45.3133C78.8219 45.3758 79.1592 45.4918 79.4729 45.6573C79.7595 45.8076 80.0163 46.0089 80.2309 46.2513C80.4381 46.4892 80.5995 46.7635 80.7069 47.0603C80.8196 47.3718 80.8761 47.7009 80.8739 48.0323C80.8783 48.5117 80.7886 48.9874 80.6099 49.4323C80.4359 49.8591 80.1679 50.2413 79.8259 50.5503C79.4489 50.8828 79.0059 51.1319 78.5259 51.2813C77.9562 51.4613 77.3612 51.5484 76.7639 51.5393L70.6829 51.5413ZM76.4439 46.2943H73.0619V49.7183H76.4269C76.7318 49.7238 77.0357 49.6802 77.3269 49.5893C77.5637 49.5155 77.7824 49.3928 77.9689 49.2293C78.1382 49.076 78.2681 48.8843 78.3479 48.6703C78.4323 48.4387 78.474 48.1937 78.4709 47.9473C78.4747 47.7147 78.4329 47.4837 78.3479 47.2673C78.2657 47.0668 78.1356 46.8896 77.9689 46.7513C77.7791 46.5974 77.5605 46.4832 77.3259 46.4153C77.04 46.3306 76.743 46.2894 76.4449 46.2933L76.4439 46.2943ZM76.1079 41.5293H73.0619V44.5743H76.0919C76.3755 44.5794 76.6581 44.5389 76.9289 44.4543C77.1518 44.3841 77.3584 44.2702 77.5369 44.1193C77.6969 43.982 77.8208 43.8075 77.8979 43.6113C77.9769 43.4024 78.0159 43.1806 78.0129 42.9573C78.0161 42.7572 77.9801 42.5585 77.9069 42.3723C77.8343 42.1976 77.7191 42.0439 77.5719 41.9253C77.3975 41.7879 77.1966 41.6882 76.9819 41.6323C76.6966 41.5579 76.4025 41.5233 76.1079 41.5293ZM82.8909 51.5423V38.9473H85.1639V51.5413L82.8909 51.5423ZM87.0669 47.3423C87.0598 46.7152 87.1756 46.0928 87.4079 45.5103C87.6195 44.9819 87.9441 44.5061 88.3589 44.1163C88.7767 43.7278 89.2699 43.4293 89.8079 43.2393C90.3938 43.0342 91.0111 42.9327 91.6319 42.9393C92.2634 42.9305 92.892 43.0285 93.4909 43.2293C94.0269 43.409 94.5166 43.7051 94.9248 44.0963C95.333 44.4876 95.6496 44.9643 95.8519 45.4923C96.0773 46.0822 96.188 46.7098 96.1779 47.3413C96.1869 47.9679 96.0731 48.5903 95.8429 49.1733C95.6311 49.7016 95.3066 50.1774 94.8919 50.5673C94.4749 50.9549 93.9832 51.2533 93.4469 51.4443C92.8641 51.6498 92.2498 51.7514 91.6319 51.7443C90.9972 51.7516 90.3658 51.6526 89.7639 51.4513C89.2243 51.271 88.731 50.9743 88.3189 50.5823C87.9138 50.1896 87.5983 49.7141 87.3939 49.1883C87.1692 48.5995 87.0589 47.9733 87.0689 47.3433L87.0669 47.3423ZM89.4099 47.3423C89.4055 47.7238 89.4591 48.1038 89.5689 48.4693C89.6613 48.7824 89.8138 49.0745 90.0179 49.3293C90.2067 49.5611 90.4462 49.7465 90.7179 49.8713C91.0041 49.9961 91.3131 50.0605 91.6254 50.0605C91.9377 50.0605 92.2466 49.9961 92.5329 49.8713C92.8061 49.749 93.046 49.5631 93.2329 49.3293C93.4318 49.0725 93.581 48.7808 93.6729 48.4693C93.7826 48.1038 93.8362 47.7238 93.8319 47.3423C93.8372 46.9587 93.7867 46.5763 93.6819 46.2073C93.5937 45.8967 93.4441 45.6069 93.2419 45.3553C93.0541 45.1246 92.8142 44.9419 92.5419 44.8223C92.2554 44.6996 91.9465 44.638 91.6349 44.6413C91.3224 44.6378 91.0129 44.7023 90.7279 44.8303C90.4561 44.955 90.2167 45.1404 90.0279 45.3723C89.8249 45.6248 89.6725 45.9141 89.5789 46.2243C89.4645 46.5862 89.4069 46.9637 89.4079 47.3433L89.4099 47.3423ZM97.4799 47.3423C97.4707 46.7164 97.5814 46.0946 97.8059 45.5103C98.0093 44.9861 98.3215 44.511 98.7219 44.1163C99.126 43.7251 99.6096 43.4257 100.14 43.2383C101.266 42.8586 102.482 42.8376 103.62 43.1783C104.074 43.3208 104.498 43.5451 104.871 43.8403C105.21 44.1132 105.489 44.4537 105.69 44.8403C105.889 45.2234 106.015 45.6407 106.06 46.0703H103.825C103.791 45.8785 103.728 45.6928 103.64 45.5193C103.549 45.3434 103.427 45.1858 103.279 45.0543C103.115 44.9103 102.923 44.802 102.715 44.7363C102.47 44.6583 102.214 44.6205 101.957 44.6243C101.657 44.6208 101.361 44.6894 101.094 44.8243C100.831 44.9601 100.599 45.1507 100.416 45.3833C100.213 45.6411 100.063 45.9364 99.9749 46.2523C99.7753 46.9669 99.7753 47.7226 99.9749 48.4373C100.063 48.7531 100.213 49.0484 100.416 49.3063C100.599 49.5387 100.831 49.7293 101.094 49.8653C101.361 50.0001 101.657 50.0686 101.957 50.0653C102.214 50.069 102.47 50.0312 102.715 49.9533C102.923 49.8875 103.115 49.7792 103.279 49.6353C103.427 49.5038 103.549 49.3461 103.64 49.1703C103.728 48.9967 103.791 48.8111 103.825 48.6193H106.063C106.021 49.0511 105.898 49.4713 105.702 49.8583C105.504 50.2412 105.228 50.5782 104.892 50.8473C104.516 51.1436 104.089 51.368 103.632 51.5093C103.09 51.677 102.525 51.7584 101.958 51.7503C101.329 51.7586 100.703 51.6595 100.108 51.4573C99.5787 51.2761 99.095 50.9828 98.6899 50.5973C98.2882 50.2067 97.9805 49.7301 97.7899 49.2033C97.5765 48.6068 97.4721 47.9767 97.4819 47.3433L97.4799 47.3423ZM107.822 51.5423V38.9473H110.095V46.6383L113.319 43.1453H115.891L112.687 46.4993L116.208 51.5413H113.608L111.194 48.0663L110.102 49.2023V51.5423H107.822ZM116.913 47.3423C116.904 46.7164 117.014 46.0946 117.239 45.5103C117.442 44.9861 117.755 44.511 118.155 44.1163C118.559 43.7252 119.043 43.4257 119.573 43.2383C120.699 42.8586 121.915 42.8376 123.053 43.1783C123.507 43.3208 123.931 43.5451 124.304 43.8403C124.643 44.1132 124.922 44.4537 125.123 44.8403C125.322 45.2234 125.448 45.6407 125.493 46.0703H123.259C123.225 45.8785 123.162 45.6928 123.074 45.5193C122.983 45.3435 122.861 45.1859 122.713 45.0543C122.549 44.9104 122.357 44.8021 122.149 44.7363C121.904 44.6583 121.648 44.6205 121.391 44.6243C121.091 44.6209 120.795 44.6895 120.528 44.8243C120.265 44.9602 120.033 45.1508 119.85 45.3833C119.648 45.6413 119.498 45.9366 119.41 46.2523C119.21 46.9669 119.21 47.7226 119.41 48.4373C119.498 48.753 119.648 49.0482 119.85 49.3063C120.034 49.5387 120.265 49.7293 120.528 49.8653C120.795 50 121.091 50.0686 121.391 50.0653C121.648 50.069 121.904 50.0312 122.149 49.9533C122.356 49.885 122.546 49.7747 122.708 49.6293C122.856 49.4977 122.978 49.3401 123.069 49.1643C123.157 48.9907 123.22 48.8051 123.254 48.6133H125.492C125.45 49.0451 125.327 49.4653 125.131 49.8523C124.933 50.2352 124.657 50.5722 124.321 50.8413C123.945 51.1376 123.518 51.362 123.061 51.5033C122.519 51.671 121.954 51.7524 121.387 51.7443C120.758 51.7526 120.132 51.6535 119.537 51.4513C119.008 51.2701 118.524 50.9768 118.119 50.5913C117.717 50.2007 117.409 49.7241 117.219 49.1973C117.008 48.6023 116.905 47.9744 116.916 47.3433L116.913 47.3423ZM127.255 51.5423V38.9473H129.528V42.1293C129.528 42.3126 129.525 42.5276 129.52 42.7743C129.515 43.0209 129.503 43.2789 129.484 43.5483C129.467 43.8149 129.446 44.0816 129.422 44.3483H129.493C129.608 44.1215 129.76 43.9151 129.942 43.7373C130.123 43.5606 130.327 43.4101 130.55 43.2903C130.78 43.1672 131.026 43.0773 131.281 43.0233C131.562 42.9642 131.849 42.9354 132.136 42.9373C132.572 42.9339 133.005 42.9977 133.422 43.1263C133.812 43.2463 134.17 43.4512 134.471 43.7263C134.79 44.0308 135.034 44.4049 135.185 44.8193C135.372 45.3405 135.461 45.8917 135.448 46.4453V51.5383H133.176V46.7233C133.182 46.3985 133.143 46.0744 133.061 45.7603C133 45.5249 132.885 45.3069 132.726 45.1233C132.581 44.9641 132.4 44.8429 132.198 44.7703C131.973 44.6923 131.736 44.6544 131.498 44.6583C131.228 44.6557 130.96 44.7113 130.714 44.8213C130.471 44.9318 130.257 45.0968 130.089 45.3033C129.903 45.533 129.763 45.7955 129.675 46.0773C129.571 46.4085 129.52 46.7541 129.525 47.1013V51.5403L127.255 51.5423ZM137.316 49.3743C137.31 49.0482 137.367 48.7241 137.483 48.4193C137.598 48.1339 137.779 47.8802 138.012 47.6793C138.284 47.4492 138.594 47.2688 138.928 47.1463C139.353 46.9889 139.793 46.8766 140.241 46.8113L141.897 46.5703C142.087 46.5449 142.275 46.5075 142.461 46.4583C142.575 46.4292 142.684 46.3858 142.787 46.3293C142.857 46.2902 142.912 46.23 142.946 46.1573C142.977 46.075 142.992 45.9873 142.99 45.8993C142.991 45.7054 142.957 45.513 142.89 45.3313C142.828 45.1642 142.732 45.0119 142.608 44.8843C142.474 44.7513 142.311 44.651 142.132 44.5913C141.913 44.5195 141.683 44.4857 141.453 44.4913C141.216 44.4876 140.98 44.5196 140.753 44.5863C140.562 44.6409 140.385 44.7345 140.233 44.8613C140.092 44.9808 139.981 45.1309 139.907 45.3003C139.828 45.4808 139.777 45.6723 139.757 45.8683H137.643C137.67 45.436 137.787 45.0141 137.986 44.6293C138.178 44.2628 138.452 43.9451 138.786 43.7003C139.144 43.4393 139.547 43.2467 139.975 43.1323C140.454 43.0027 140.949 42.9391 141.445 42.9433C142.006 42.935 142.566 43.0023 143.11 43.1433C143.542 43.2538 143.947 43.453 144.299 43.7283C144.613 43.9815 144.859 44.3099 145.013 44.6833C145.18 45.1047 145.261 45.5551 145.251 46.0083V51.5483H143.098V50.5483H142.992C142.863 50.7429 142.705 50.9169 142.524 51.0643C142.336 51.2169 142.129 51.344 141.908 51.4423C141.662 51.5502 141.405 51.6281 141.141 51.6743C140.844 51.7271 140.543 51.7529 140.241 51.7513C139.815 51.7574 139.39 51.6995 138.981 51.5793C138.643 51.4819 138.329 51.318 138.056 51.0973C137.813 50.8963 137.622 50.6397 137.5 50.3493C137.374 50.0394 137.313 49.7075 137.319 49.3733L137.316 49.3743ZM140.893 50.2003C141.158 50.201 141.423 50.1605 141.676 50.0803C141.926 50.0017 142.157 49.8727 142.355 49.7013C142.558 49.5248 142.717 49.3041 142.821 49.0563C142.938 48.7709 142.995 48.4646 142.989 48.1563V47.4163C142.952 47.4741 142.904 47.5238 142.848 47.5623C142.787 47.6024 142.722 47.636 142.654 47.6623C142.579 47.6922 142.503 47.7179 142.425 47.7393C142.342 47.7623 142.249 47.7853 142.143 47.8083L140.821 48.0143C140.622 48.0422 140.427 48.0943 140.24 48.1693C140.092 48.226 139.956 48.3105 139.84 48.4183C139.744 48.5104 139.669 48.6218 139.62 48.7453C139.572 48.8731 139.548 49.0087 139.55 49.1453C139.548 49.2961 139.577 49.4457 139.637 49.5843C139.695 49.7144 139.783 49.8291 139.893 49.9193C140.015 50.0162 140.155 50.0864 140.306 50.1253C140.498 50.1767 140.697 50.2015 140.896 50.1993L140.893 50.2003ZM147.552 41.0133V38.9473H149.966V41.0123L147.552 41.0133ZM147.623 51.5423V43.1423H149.896V51.5423H147.623ZM152.363 51.5423V43.1423H154.53V44.3423H154.6C154.716 44.1155 154.868 43.9091 155.05 43.7313C155.23 43.5544 155.435 43.4039 155.658 43.2843C155.888 43.1611 156.134 43.0712 156.389 43.0173C156.67 42.9582 156.956 42.9294 157.243 42.9313C157.679 42.9279 158.113 42.9916 158.53 43.1203C158.919 43.2403 159.277 43.4452 159.578 43.7203C159.897 44.0248 160.141 44.3989 160.292 44.8133C160.48 45.3342 160.57 45.8855 160.557 46.4393V51.5323H158.284V46.7233C158.291 46.3985 158.252 46.0743 158.169 45.7603C158.108 45.525 157.994 45.3069 157.835 45.1233C157.69 44.9639 157.509 44.8427 157.306 44.7703C157.081 44.6921 156.844 44.6541 156.606 44.6583C156.336 44.6557 156.068 44.7113 155.822 44.8213C155.578 44.933 155.364 45.1009 155.197 45.3113C155.012 45.5447 154.872 45.8101 154.783 46.0943C154.679 46.4255 154.628 46.7711 154.633 47.1183V51.5403L152.363 51.5423Z" fill="black"/>
<path d="M33.0349 25.9395L42.5999 37.6615L51.7299 36.1755" stroke="#D3D3D3" stroke-width="0.984"/>
<path d="M48.6869 22.8027L42.5999 28.0027L59.3389 32.4617L51.7309 36.1767" stroke="#D3D3D3" stroke-width="0.984"/>
<path d="M30.4279 28.0029L33.4709 39.1479L44.1229 47.3209L56.7229 46.4379" stroke="#D3D3D3" stroke-width="0.984"/>
<path d="M32.7099 25.9414L42.6009 28.0024L51.7309 36.1754L56.1879 46.5674L42.6009 37.6614L33.4709 39.1474L28.1449 45.0904L32.7099 51.0344L39.5599 53.2634L44.1249 47.3194" stroke="#D3D3D3" stroke-width="0.984"/>
<path d="M43.279 29.4882C43.5712 29.4811 43.8549 29.3879 44.0945 29.2204C44.3341 29.0529 44.5189 28.8184 44.6259 28.5463C44.7329 28.2743 44.7572 27.9767 44.6959 27.6908C44.6345 27.405 44.4903 27.1436 44.2811 26.9393C44.0719 26.7351 43.8071 26.5971 43.5199 26.5426C43.2326 26.4882 42.9357 26.5196 42.6663 26.6331C42.3968 26.7465 42.1669 26.9369 42.0051 27.1805C41.8434 27.424 41.757 27.7098 41.757 28.0022C41.7588 28.1998 41.7997 28.3952 41.8772 28.577C41.9548 28.7588 42.0676 28.9235 42.209 29.0616C42.3504 29.1997 42.5178 29.3085 42.7014 29.3817C42.885 29.4549 43.0813 29.4911 43.279 29.4882Z" fill="black"/>
<path d="M42.5999 39.1483C42.8921 39.1412 43.1757 39.0481 43.4153 38.8806C43.6549 38.7132 43.8397 38.4787 43.9467 38.2067C44.0537 37.9347 44.0781 37.6372 44.0169 37.3513C43.9556 37.0655 43.8114 36.8041 43.6023 36.5998C43.3933 36.3956 43.1286 36.2575 42.8414 36.2029C42.5542 36.1483 42.2574 36.1796 41.9879 36.2929C41.7184 36.4062 41.4884 36.5965 41.3265 36.8399C41.1646 37.0833 41.0782 37.369 41.0779 37.6613C41.0796 37.8591 41.1204 38.0545 41.1979 38.2365C41.2754 38.4184 41.3881 38.5832 41.5296 38.7214C41.671 38.8596 41.8384 38.9685 42.0221 39.0417C42.2058 39.115 42.4021 39.1512 42.5999 39.1483Z" fill="black"/>
<path d="M51.7289 37.6619C52.021 37.654 52.3042 37.5602 52.5433 37.3922C52.7823 37.2243 52.9666 36.9895 53.0729 36.7174C53.1793 36.4453 53.2031 36.1478 53.1413 35.8622C53.0795 35.5767 52.9349 35.3156 52.7256 35.1118C52.5163 34.908 52.2515 34.7704 51.9644 34.7162C51.6773 34.662 51.3806 34.6937 51.1114 34.8072C50.8422 34.9208 50.6124 35.1112 50.4508 35.3546C50.2892 35.5981 50.203 35.8837 50.2029 36.1759C50.2047 36.3739 50.2457 36.5696 50.3235 36.7517C50.4014 36.9338 50.5145 37.0986 50.6563 37.2368C50.7982 37.3749 50.966 37.4836 51.1501 37.5566C51.3342 37.6295 51.5309 37.6653 51.7289 37.6619Z" fill="black"/>
<path d="M33.4689 40.6337C33.7612 40.6266 34.0448 40.5335 34.2844 40.3659C34.524 40.1984 34.7089 39.9639 34.8159 39.6918C34.9228 39.4198 34.9472 39.1222 34.8858 38.8363C34.8245 38.5505 34.6802 38.2891 34.471 38.0848C34.2618 37.8806 33.997 37.7426 33.7098 37.6881C33.4226 37.6337 33.1257 37.6651 32.8562 37.7786C32.5868 37.892 32.3568 38.0824 32.1951 38.326C32.0333 38.5695 31.947 38.8553 31.9469 39.1477C31.9487 39.3453 31.9896 39.5407 32.0672 39.7225C32.1448 39.9043 32.2575 40.069 32.3989 40.2071C32.5404 40.3452 32.7077 40.454 32.8913 40.5272C33.075 40.6004 33.2712 40.6366 33.4689 40.6337Z" fill="black"/>
<path d="M44.1219 48.8055C44.4141 48.7985 44.6978 48.7053 44.9374 48.5378C45.177 48.3703 45.3618 48.1358 45.4688 47.8637C45.5758 47.5916 45.6001 47.294 45.5388 47.0082C45.4774 46.7224 45.3331 46.461 45.124 46.2567C44.9148 46.0525 44.65 45.9145 44.3628 45.86C44.0755 45.8055 43.7786 45.837 43.5092 45.9504C43.2397 46.0639 43.0098 46.2543 42.848 46.4978C42.6863 46.7414 42.5999 47.0272 42.5999 47.3195C42.6017 47.5172 42.6426 47.7126 42.7201 47.8944C42.7977 48.0762 42.9105 48.2409 43.0519 48.379C43.1933 48.5171 43.3607 48.6259 43.5443 48.6991C43.7279 48.7723 43.9242 48.8085 44.1219 48.8055Z" fill="black"/>
<path d="M42.9809 54.5846C47.4227 54.6361 51.7031 52.9213 54.8808 49.8174C58.0584 46.7134 59.8732 42.4744 59.9259 38.0326C59.8732 33.5909 58.0584 29.3519 54.8808 26.2479C51.7031 23.1439 47.4227 21.4291 42.9809 21.4806C38.5389 21.4289 34.2583 23.1435 31.0804 26.2475C27.9025 29.3515 26.0876 33.5907 26.0349 38.0326C26.0876 42.4746 27.9025 46.7137 31.0804 49.8177C34.2583 52.9217 38.5389 54.6364 42.9809 54.5846Z" stroke="black" stroke-width="3.22"/>
</g>
</g>
</g>
<defs>
<clipPath id="clip0_2130_1207">
<rect width="136.359" height="36.486" fill="white" transform="translate(24.2639 19.7568)"/>
</clipPath>
</defs>
</svg>
