<svg width="154" height="76" viewBox="0 0 154 76" fill="none" xmlns="http://www.w3.org/2000/svg">
<g opacity="0.8">
<g clip-path="url(#clip0_2130_1241)">
<path d="M24.6538 22.0641C31.4022 22.1138 38.1771 21.8197 44.917 22.19C50.701 22.7719 54.3415 28.6526 54.1299 34.0963C52.6223 34.1133 51.1242 34.1302 49.625 34.1556C49.0572 30.7095 46.8478 26.9925 43.0202 26.6561C38.4759 26.3862 33.904 26.6391 29.3533 26.5545V33.4319H37.1011C37.0841 34.9735 37.0671 36.5077 37.0501 38.0493C32.9184 38.0408 28.7863 38.038 24.6538 38.0408V22.0641Z" fill="black"/>
<path d="M112.516 27.692C116.318 25.6362 120.687 26.8244 124.514 28.13C124.98 27.6074 125.911 26.563 126.377 26.0488C126.483 28.9564 126.504 31.8682 126.334 34.7789C124.429 32.3517 123.066 29.1077 119.955 27.9872C119.316 27.7458 118.635 27.6326 117.952 27.6542C117.268 27.6757 116.596 27.8316 115.973 28.1127C115.351 28.3939 114.79 28.7948 114.324 29.2924C113.858 29.79 113.495 30.3745 113.257 31.0122C111.755 35.3202 111.71 39.9988 113.13 44.3342C113.363 45.1546 113.786 45.9092 114.365 46.5377C114.943 47.1662 115.662 47.651 116.463 47.9533C117.264 48.2556 118.125 48.367 118.977 48.2785C119.829 48.19 120.648 47.9042 121.369 47.4439C121.791 45.2891 121.811 43.0755 121.429 40.9135C120.209 40.5347 119.007 40.121 117.814 39.6745C121.748 39.2788 125.715 39.4894 129.66 39.4629V40.0692C129.009 40.3136 127.695 40.8098 127.035 41.0553C126.828 43.2173 126.734 45.3886 126.756 47.5603C121.624 49.6076 115.104 50.6022 110.43 46.9625C104.166 42.1515 105.3 31.0376 112.516 27.692Z" fill="black"/>
<path d="M62.1743 27.0261C67.8392 27.279 73.9188 25.9564 79.2542 28.4016C86.6968 32.126 86.0589 44.4957 78.4163 47.6583C73.2766 49.5882 67.6202 48.492 62.2551 48.6783C63.3896 47.7683 65.566 47.4647 65.2609 45.594C65.3874 40.4963 65.3789 35.3805 65.2779 30.2828C65.6288 28.3095 63.3598 27.9445 62.1743 27.0261ZM71.5563 28.1635C71.3362 28.3656 70.9046 28.7529 70.6845 28.9475C70.5494 34.9139 70.3655 40.9385 70.778 46.888C72.8099 48.7079 76.6258 46.8457 77.722 44.537C79.3646 40.3411 79.3266 35.6779 77.6157 31.5091C77.1356 30.3511 76.2747 29.3897 75.1739 28.7821C74.0731 28.1745 72.7977 27.9568 71.5563 28.1646V28.1635Z" fill="black"/>
<path d="M85.3169 27.094C91.6591 26.8242 98.0183 27.0348 104.361 26.9681C104.378 29.3361 104.403 31.704 104.226 34.0635C103.345 32.5716 102.76 30.9115 101.736 29.5043C99.6281 27.8706 96.6978 27.8939 94.1907 28.3997C94.1481 31.3326 94.1226 34.2645 94.2162 37.189C95.3677 36.8102 96.9179 36.953 97.6707 35.8241C98.2574 34.4425 98.9274 33.0973 99.677 31.796C99.9354 35.7417 99.9439 39.6996 99.7025 43.6463C98.8136 42.3153 98.466 40.7303 97.6707 39.357C96.7733 38.4047 95.3932 38.337 94.2162 37.9815C94.2332 40.9895 93.8855 44.0484 94.3938 47.0311C95.3252 47.9833 96.8828 47.7643 98.0438 48.2701C93.8509 49.0089 89.5629 49.0404 85.3594 48.3632C86.7416 47.8066 89.1275 47.6469 88.8681 45.5826C88.8766 40.2404 88.9744 34.8814 88.8086 29.5381C88.5513 27.9024 86.4514 27.8706 85.3169 27.094Z" fill="black"/>
<path d="M41.7422 38.0566C45.8494 38.082 49.9557 38.0651 54.063 38.0651C53.8599 41.8403 54.4021 46.0789 51.9365 49.2721C49.557 52.7774 45.1966 54.2101 41.0808 53.9741H24.6538V41.8318L29.3193 41.8064C29.3193 44.351 29.3193 46.8851 29.3108 49.4329C33.8668 49.3271 38.4302 49.6181 42.9691 49.307C46.5087 48.869 48.7776 45.6747 49.5995 42.4645C46.9914 42.4222 44.3832 42.4307 41.7666 42.4391C41.7719 40.9727 41.7592 39.5146 41.7422 38.0566Z" fill="black"/>
</g>
</g>
<defs>
<clipPath id="clip0_2130_1241">
<rect width="105" height="32" fill="white" transform="translate(24.6538 22)"/>
</clipPath>
</defs>
</svg>
