<svg width="144" height="76" viewBox="0 0 144 76" fill="none" xmlns="http://www.w3.org/2000/svg">
<g opacity="0.8">
<g clip-path="url(#clip0_2130_1342)">
<path fill-rule="evenodd" clip-rule="evenodd" d="M25.1612 58.927V57.7593H32.0935C32.7579 57.7593 33.0901 57.5151 33.0901 57.0268V56.0245C33.0901 55.5362 32.7579 55.292 32.0935 55.292H27.4031C27.0133 55.3001 26.6243 55.2524 26.2481 55.1505C25.9648 55.0744 25.7005 54.9401 25.4725 54.7562C25.278 54.5955 25.1277 54.3881 25.0359 54.1537C24.9424 53.905 24.8963 53.6412 24.9 53.3758V52.9138C24.8964 52.6484 24.9425 52.3846 25.0359 52.1359C25.1279 51.9015 25.2781 51.6942 25.4725 51.5333C25.7007 51.3498 25.9649 51.2155 26.2481 51.139C26.6243 51.0371 27.0133 50.9894 27.4031 50.9975H34.1538V52.1697H27.4031C26.7387 52.1697 26.4065 52.4139 26.4065 52.9022V53.3864C26.4065 53.8748 26.7387 54.1189 27.4031 54.1189H32.0926C32.4827 54.1108 32.872 54.1585 33.2484 54.2605C33.5317 54.3369 33.7958 54.4712 34.0241 54.6547C34.2184 54.8157 34.3686 55.023 34.4606 55.2573C34.554 55.506 34.6001 55.7698 34.5966 56.0352V57.0143C34.6001 57.2797 34.554 57.5435 34.4606 57.7922C34.3687 58.0266 34.2185 58.234 34.0241 58.3948C33.7958 58.5783 33.5317 58.7126 33.2484 58.7891C32.8719 58.8905 32.4826 58.9379 32.0926 58.9297L25.1612 58.927ZM47.9593 58.927L43.8441 52.5373L39.6646 58.927H37.989L43.2904 50.9931H44.389L49.6555 58.927H47.9593ZM63.5085 58.927L55.0017 52.7509V58.927H53.6866V50.9948H54.9892L62.9297 56.8888V50.9948H64.2439V58.9288L63.5085 58.927ZM71.4562 58.927C71.0661 58.9352 70.6769 58.8878 70.3003 58.7864C70.0171 58.7099 69.753 58.5756 69.5247 58.3921C69.3303 58.2312 69.1801 58.0239 69.0881 57.7895C68.9948 57.5408 68.9487 57.2771 68.9522 57.0116V52.9093C68.9486 52.6439 68.9947 52.3801 69.0881 52.1314C69.1801 51.8971 69.3303 51.6898 69.5247 51.5289C69.753 51.3453 70.0171 51.2111 70.3003 51.1346C70.6768 51.0326 71.0661 50.985 71.4562 50.9931H77.8785V52.1653H71.4562C70.7918 52.1653 70.4596 52.4094 70.4596 52.8978V57.0223C70.4596 57.5106 70.7918 57.7548 71.4562 57.7548H77.8785V58.927H71.4562ZM86.1438 58.927V52.1626H81.9642V50.9948H91.7154V52.1671H87.6485V58.9315L86.1438 58.927ZM98.1467 58.927C97.7567 58.9352 97.3675 58.8878 96.9909 58.7864C96.7077 58.7099 96.4435 58.5756 96.2153 58.3921C96.0207 58.2314 95.8705 58.024 95.7787 57.7895C95.6857 57.5408 95.6399 57.277 95.6436 57.0116V52.9093C95.6398 52.644 95.6856 52.3802 95.7787 52.1314C95.8705 51.897 96.0208 51.6897 96.2153 51.5289C96.4435 51.3453 96.7077 51.2111 96.9909 51.1346C97.3674 51.0326 97.7566 50.985 98.1467 50.9931H103.413C103.803 50.985 104.192 51.0326 104.568 51.1346C104.852 51.211 105.116 51.3453 105.345 51.5289C105.539 51.6898 105.689 51.8971 105.78 52.1314C105.874 52.3801 105.92 52.6439 105.916 52.9093V57.0116C105.92 57.2771 105.874 57.5408 105.78 57.7895C105.689 58.0238 105.539 58.2312 105.345 58.3921C105.116 58.5757 104.852 58.71 104.568 58.7864C104.192 58.8878 103.803 58.9352 103.413 58.927H98.1467ZM104.409 52.8978C104.409 52.4094 104.077 52.1653 103.412 52.1653H98.1459C97.4815 52.1653 97.1493 52.4094 97.1493 52.8978V57.0223C97.1493 57.5106 97.4815 57.7548 98.1459 57.7548H103.412C104.077 57.7548 104.409 57.5106 104.409 57.0223V52.8978ZM118.202 58.927L116.333 55.3882H112.129V58.927H110.622V50.9948H117.4C117.79 50.9867 118.179 51.0344 118.555 51.1364C118.839 51.2128 119.103 51.3471 119.331 51.5307C119.526 51.6914 119.676 51.8988 119.768 52.1332C119.861 52.3819 119.907 52.6457 119.904 52.9111V53.4745C119.919 53.9422 119.757 54.3986 119.451 54.7536C119.04 55.1426 118.497 55.3621 117.93 55.3677L119.809 58.9279L118.202 58.927ZM118.394 52.8978C118.394 52.4094 118.062 52.1653 117.399 52.1653H112.131V54.2169H117.4C118.065 54.2169 118.397 53.9724 118.396 53.4835L118.394 52.8978Z" fill="black"/>
<path fill-rule="evenodd" clip-rule="evenodd" d="M64.2644 33.3519L60.5017 40.2766C69.6848 38.3469 76.5375 36.0506 80.981 33.5317C85.8566 30.7672 86.1527 25.2596 76.4865 19.8115C83.0789 26.4807 83.4886 30.2154 64.2644 33.3519Z" fill="url(#paint0_linear_2130_1342)"/>
<path fill-rule="evenodd" clip-rule="evenodd" d="M84.2741 28.2148C84.1274 32.7995 72.7158 35.8141 61.7434 37.9886L60.4999 40.276C69.6831 38.3463 76.5366 36.05 80.9792 33.5303C83.2345 32.2521 84.5094 30.3884 84.2741 28.2148Z" fill="url(#paint1_linear_2130_1342)"/>
<path fill-rule="evenodd" clip-rule="evenodd" d="M80.54 14.4255L84.2973 7.5C75.1142 9.42964 68.2615 11.726 63.8189 14.2457C58.9433 17.0102 58.6472 22.5179 68.3125 27.9659C61.7246 21.295 61.3122 17.5612 80.54 14.4255Z" fill="url(#paint2_linear_2130_1342)"/>
<path fill-rule="evenodd" clip-rule="evenodd" d="M60.5294 19.5612C60.6762 14.9765 72.0878 11.9619 83.0601 9.78745L84.3027 7.5C75.1196 9.42964 68.2669 11.726 63.8234 14.2457C61.569 15.5274 60.2942 17.3876 60.5294 19.5612Z" fill="url(#paint3_linear_2130_1342)"/>
<path fill-rule="evenodd" clip-rule="evenodd" d="M64.2644 33.3519L60.5017 40.2766C69.6848 38.3469 76.5375 36.0506 80.981 33.5317C85.8566 30.7672 86.1527 25.2596 76.4865 19.8115C83.0789 26.4807 83.4886 30.2154 64.2644 33.3519Z" fill="url(#paint4_linear_2130_1342)"/>
<path fill-rule="evenodd" clip-rule="evenodd" d="M84.2741 28.2148C84.1274 32.7995 72.7158 35.8141 61.7434 37.9886L60.4999 40.276C69.6831 38.3463 76.5366 36.05 80.9792 33.5303C83.2345 32.2521 84.5094 30.3884 84.2741 28.2148Z" fill="url(#paint5_linear_2130_1342)"/>
<path fill-rule="evenodd" clip-rule="evenodd" d="M80.54 14.4255L84.2973 7.5C75.1142 9.42964 68.2615 11.726 63.8189 14.2457C58.9433 17.0102 58.6472 22.5179 68.3125 27.9659C61.7246 21.295 61.3122 17.5612 80.54 14.4255Z" fill="url(#paint6_linear_2130_1342)"/>
<path fill-rule="evenodd" clip-rule="evenodd" d="M60.5294 19.5612C60.6762 14.9765 72.0878 11.9619 83.0601 9.78745L84.3027 7.5C75.1196 9.42964 68.2669 11.726 63.8234 14.2457C61.569 15.5274 60.2942 17.3876 60.5294 19.5612Z" fill="url(#paint7_linear_2130_1342)"/>
<path fill-rule="evenodd" clip-rule="evenodd" d="M39.1126 68.5003C38.929 68.504 38.7459 68.4819 38.5686 68.4345C38.4353 68.3985 38.3109 68.3351 38.2037 68.2484C38.1119 68.1728 38.041 68.0751 37.9979 67.9645C37.954 67.8476 37.9325 67.7235 37.9344 67.5987V65.6673C37.9325 65.5422 37.954 65.4178 37.9979 65.3006C38.0412 65.1904 38.1121 65.093 38.2037 65.0175C38.311 64.931 38.4353 64.8677 38.5686 64.8315C38.7458 64.7836 38.929 64.7611 39.1126 64.7648H42.1363V65.3166H39.1126C38.7995 65.3166 38.6429 65.4314 38.6429 65.661V67.6049C38.6429 67.8352 38.7995 67.9503 39.1126 67.9503H42.1363V68.5021L39.1126 68.5003ZM53.6338 68.5003L51.6988 65.492L49.7307 68.5003H48.9416L51.4376 64.7621H51.9547L54.4345 68.5003H53.6338ZM62.0431 67.1207V68.5003H61.3373V64.7621H64.4138C64.5974 64.7585 64.7806 64.7809 64.9577 64.8288C65.0911 64.865 65.2154 64.9284 65.3227 65.0149C65.4142 65.0903 65.4847 65.1877 65.5276 65.2979C65.5718 65.4151 65.5936 65.5395 65.592 65.6646V66.2165C65.5935 66.3413 65.5717 66.4653 65.5276 66.5823C65.4849 66.6928 65.4143 66.7905 65.3227 66.8662C65.2155 66.9528 65.0911 67.0162 64.9577 67.0522C64.7805 67.1 64.5974 67.1222 64.4138 67.1181L62.0431 67.1207ZM64.8799 65.6619C64.8799 65.4323 64.7234 65.3175 64.4102 65.3175H62.0431V66.5689H64.4102C64.7234 66.5689 64.8799 66.4541 64.8799 66.2245V65.6619ZM72.663 68.5003V64.7621H73.3724V68.5003H72.663ZM82.39 68.5003V65.3175H80.4219V64.7657H85.013V65.3175H83.0986V68.5003H82.39ZM95.4021 68.5003L93.4662 65.492L91.498 68.5003H90.709L93.2049 64.7621H93.722L96.201 68.5003H95.4021ZM103.103 68.5003V64.7621H103.819V67.9458H106.86V68.4977L103.103 68.5003Z" fill="black"/>
</g>
</g>
<defs>
<linearGradient id="paint0_linear_2130_1342" x1="78.6619" y1="26.3399" x2="68.7203" y2="43.2366" gradientUnits="userSpaceOnUse">
<stop stop-color="#F7FCFE"/>
<stop offset="1" stop-color="#6A7076"/>
</linearGradient>
<linearGradient id="paint1_linear_2130_1342" x1="61.5234" y1="41.1565" x2="70.6865" y2="21.5531" gradientUnits="userSpaceOnUse">
<stop stop-color="#F1E9E8"/>
<stop offset="1" stop-color="#84898D"/>
</linearGradient>
<linearGradient id="paint2_linear_2130_1342" x1="66.1378" y1="21.4373" x2="76.0802" y2="4.54054" gradientUnits="userSpaceOnUse">
<stop stop-color="#F7FCFE"/>
<stop offset="1" stop-color="#6A7076"/>
</linearGradient>
<linearGradient id="paint3_linear_2130_1342" x1="83.2793" y1="6.61954" x2="74.116" y2="26.2226" gradientUnits="userSpaceOnUse">
<stop/>
<stop offset="1" stop-color="#84898D"/>
</linearGradient>
<linearGradient id="paint4_linear_2130_1342" x1="78.6619" y1="26.3399" x2="68.7203" y2="43.2366" gradientUnits="userSpaceOnUse">
<stop/>
<stop offset="1" stop-color="#6A7076"/>
</linearGradient>
<linearGradient id="paint5_linear_2130_1342" x1="83.2783" y1="27.3344" x2="74.1153" y2="46.9377" gradientUnits="userSpaceOnUse">
<stop/>
<stop offset="1" stop-color="#84898D"/>
</linearGradient>
<linearGradient id="paint6_linear_2130_1342" x1="66.1378" y1="21.4373" x2="76.0802" y2="4.54054" gradientUnits="userSpaceOnUse">
<stop/>
<stop offset="1" stop-color="#6A7076"/>
</linearGradient>
<linearGradient id="paint7_linear_2130_1342" x1="83.2793" y1="6.61954" x2="74.116" y2="26.2226" gradientUnits="userSpaceOnUse">
<stop/>
<stop offset="1" stop-color="#84898D"/>
</linearGradient>
<clipPath id="clip0_2130_1342">
<rect width="95" height="61" fill="white" transform="translate(24.9009 7.5)"/>
</clipPath>
</defs>
</svg>
