<svg width="208" height="76" viewBox="0 0 208 76" fill="none" xmlns="http://www.w3.org/2000/svg">
<g opacity="0.8">
<g clip-path="url(#clip0_2130_1429)">
<path d="M36.5427 40.2862V32.3302L24.2507 26.2402V33.9502L36.5427 40.2862Z" fill="black"/>
<path d="M24.5356 41.1914L24.6356 48.7194L42.7356 58.4394V50.8164L24.5356 41.1914Z" fill="black"/>
<path d="M42.7178 17.5596V25.1356L61.3418 34.1356V26.2406L42.7178 17.5596Z" fill="black"/>
<path d="M24.2507 26.2406L42.7177 17.5596V25.1356L32.1087 30.1466L24.2507 26.2406Z" fill="black"/>
<path d="M42.7368 50.8144L42.7178 58.4374L60.8688 48.8094V41.2344L42.7368 50.8144Z" fill="black"/>
<path d="M53.6537 45.0625L48.7417 42.6055V35.1875L60.8697 41.2375L53.6537 45.0625Z" fill="black"/>
<path d="M82.6917 29.0518H86.6227V44.4308C86.6506 45.7018 86.34 46.9573 85.7227 48.0688C85.1433 49.0726 84.284 49.8857 83.2497 50.4088C82.1027 50.9743 80.8363 51.2549 79.5577 51.2268C78.3701 51.2453 77.1921 51.0101 76.1027 50.5368C75.1114 50.1039 74.267 49.3929 73.6717 48.4898C73.0435 47.4786 72.7302 46.3035 72.7717 45.1138H76.7067C76.6992 45.6486 76.8338 46.1759 77.0967 46.6418C77.3452 47.0667 77.7121 47.4101 78.1527 47.6298C78.6349 47.8651 79.1662 47.9823 79.7027 47.9718C80.2663 47.9895 80.8238 47.851 81.3137 47.5718C81.7672 47.2908 82.1207 46.8741 82.3237 46.3808C82.5724 45.763 82.6942 45.1016 82.6817 44.4358L82.6917 29.0518Z" fill="black"/>
<path d="M102.976 38.8591L99.4507 39.2431C99.3472 38.8795 99.1732 38.5397 98.9387 38.2431C98.6742 37.9152 98.3351 37.6553 97.9497 37.4851C97.4716 37.2792 96.9541 37.1805 96.4337 37.1961C95.7227 37.1713 95.0197 37.3529 94.4097 37.7191C94.165 37.8514 93.9608 38.0476 93.8187 38.2867C93.6766 38.5258 93.6019 38.799 93.6027 39.0771C93.5935 39.2991 93.6366 39.52 93.7285 39.7222C93.8204 39.9244 93.9585 40.1022 94.1317 40.2412C94.6668 40.6163 95.2785 40.868 95.9227 40.9781L98.7227 41.5781C100.002 41.783 101.2 42.3339 102.189 43.1711C102.568 43.5406 102.866 43.9849 103.065 44.4759C103.263 44.9669 103.357 45.4939 103.341 46.0231C103.35 47.0072 103.034 47.9668 102.441 48.7521C101.795 49.5756 100.941 50.2121 99.9677 50.5961C98.8133 51.0583 97.5778 51.2834 96.3347 51.2581C94.6269 51.3396 92.9349 50.8979 91.4847 49.9921C90.8899 49.5925 90.3868 49.0709 90.0091 48.462C89.6313 47.853 89.3875 47.1706 89.2937 46.4601L93.0547 46.0991C93.185 46.7793 93.5762 47.3816 94.1447 47.7771C94.7962 48.1804 95.5542 48.378 96.3197 48.3441C97.0985 48.3814 97.8706 48.1839 98.5357 47.7771C98.7841 47.6362 98.9915 47.433 99.1374 47.1875C99.2833 46.942 99.3627 46.6627 99.3677 46.3771C99.3718 46.1549 99.3253 45.9346 99.2317 45.733C99.1382 45.5313 99 45.3536 98.8277 45.2132C98.335 44.848 97.762 44.6063 97.1567 44.5081L94.3567 43.9271C93.0528 43.7328 91.8366 43.1538 90.8637 42.2641C90.4873 41.8705 90.194 41.4051 90.0012 40.8957C89.8084 40.3863 89.7202 39.8434 89.7417 39.2991C89.7134 38.3527 90.0051 37.4243 90.5697 36.6641C91.177 35.8845 91.9863 35.2862 92.9097 34.9341C94.0141 34.5059 95.1914 34.2973 96.3757 34.3201C97.9836 34.2308 99.5775 34.6614 100.922 35.5481C102.011 36.3423 102.748 37.5301 102.976 38.8591Z" fill="black"/>
<path d="M120.604 57.0853H116.722V48.3453H116.561C116.324 48.8007 116.034 49.226 115.696 49.6123C115.28 50.0873 114.774 50.4742 114.207 50.7503C113.474 51.0873 112.673 51.2483 111.868 51.2203C110.641 51.2383 109.436 50.8928 108.405 50.2273C107.343 49.5137 106.505 48.5132 105.99 47.3423C105.361 45.8945 105.058 44.3261 105.103 42.7483C105.054 41.1601 105.361 39.5811 106.003 38.1273C106.526 36.9614 107.373 35.9706 108.444 35.2733C109.47 34.629 110.661 34.2937 111.873 34.3073C112.691 34.2767 113.504 34.4434 114.244 34.7933C114.811 35.0746 115.313 35.471 115.719 35.9573C116.045 36.3526 116.327 36.7817 116.562 37.2373H116.797V34.5203H120.597L120.604 57.0853ZM116.796 42.7253C116.815 41.7842 116.665 40.8473 116.353 39.9593C116.103 39.2383 115.652 38.6042 115.053 38.1323C114.422 37.7042 113.677 37.4771 112.915 37.481C112.153 37.485 111.41 37.7197 110.784 38.1543C110.183 38.6376 109.732 39.2821 109.484 40.0123C109.177 40.8837 109.029 41.8027 109.045 42.7263C109.029 43.659 109.18 44.5871 109.489 45.4673C109.742 46.2079 110.197 46.8629 110.803 47.3583C111.418 47.8031 112.158 48.0438 112.918 48.0465C113.677 48.0491 114.419 47.8137 115.038 47.3733C115.644 46.8892 116.099 46.2427 116.352 45.5093C116.667 44.616 116.819 43.6733 116.801 42.7263L116.796 42.7253Z" fill="black"/>
<path d="M134.272 44.0305V34.5215H138.135V50.9325H134.388V48.0135H134.218C133.849 48.9302 133.215 49.7156 132.396 50.2685C131.473 50.8769 130.385 51.1834 129.281 51.1455C128.284 51.1655 127.3 50.9161 126.434 50.4235C125.598 49.9288 124.927 49.1982 124.506 48.3235C124.016 47.2767 123.778 46.1298 123.811 44.9745V34.5215H127.679V44.3745C127.631 45.2805 127.938 46.1695 128.534 46.8535C128.82 47.1583 129.168 47.3981 129.555 47.5566C129.942 47.7152 130.359 47.7888 130.777 47.7725C131.354 47.7708 131.923 47.628 132.433 47.3565C132.977 47.068 133.432 46.6373 133.751 46.1105C134.117 45.4803 134.298 44.7591 134.272 44.0305Z" fill="black"/>
<path d="M146.084 51.2653C145.121 51.2792 144.166 51.0872 143.284 50.7023C142.481 50.3506 141.798 49.7728 141.318 49.0393C140.814 48.2259 140.563 47.2815 140.596 46.3253C140.565 45.5273 140.742 44.735 141.108 44.0253C141.441 43.428 141.923 42.9272 142.508 42.5713C143.129 42.1956 143.803 41.9161 144.508 41.7423C145.268 41.5514 146.041 41.414 146.821 41.3313C147.783 41.2313 148.563 41.1403 149.161 41.0583C149.618 41.0198 150.064 40.8892 150.47 40.6743C150.605 40.5872 150.715 40.4654 150.787 40.3215C150.859 40.1776 150.892 40.017 150.881 39.8563V39.7923C150.902 39.4478 150.849 39.1028 150.725 38.7805C150.602 38.4581 150.411 38.1659 150.166 37.9233C149.588 37.4476 148.849 37.2114 148.103 37.2633C147.305 37.22 146.516 37.4373 145.853 37.8823C145.339 38.2444 144.95 38.7554 144.737 39.3463L141.126 38.8343C141.377 37.8946 141.861 37.0331 142.533 36.3293C143.205 35.6451 144.026 35.1256 144.933 34.8113C145.942 34.4614 147.004 34.2882 148.073 34.2993C148.868 34.2998 149.661 34.3931 150.435 34.5773C151.201 34.7558 151.93 35.0672 152.589 35.4973C153.247 35.9319 153.785 36.5251 154.154 37.2223C154.576 38.0666 154.78 39.003 154.748 39.9463V50.9303H151.026V48.6753H150.898C150.349 49.7166 149.427 50.5123 148.317 50.9033C147.6 51.156 146.844 51.2785 146.084 51.2653ZM147.092 48.4233C147.793 48.4409 148.488 48.2806 149.111 47.9573C149.654 47.6725 150.109 47.2461 150.43 46.7233C150.737 46.2179 150.898 45.6369 150.894 45.0453V43.1123C150.708 43.2428 150.5 43.3372 150.28 43.3903C149.962 43.4828 149.64 43.5576 149.314 43.6143C148.957 43.6783 148.605 43.7363 148.256 43.7853L147.347 43.9133C146.817 43.9795 146.298 44.1085 145.799 44.2973C145.381 44.4479 145.009 44.7034 144.719 45.0393C144.405 45.4708 144.27 46.0066 144.342 46.5351C144.414 47.0636 144.687 47.544 145.104 47.8763C145.694 48.2597 146.389 48.4515 147.092 48.4233Z" fill="black"/>
<path d="M157.896 50.9327V34.5217H161.647V37.2557H161.819C162.071 36.3699 162.615 35.5949 163.362 35.0557C164.094 34.5393 164.971 34.2683 165.867 34.2817C166.081 34.2817 166.321 34.2907 166.589 34.3087C166.813 34.3215 167.036 34.3479 167.257 34.3877V37.9467C167.004 37.8709 166.744 37.819 166.482 37.7917C166.142 37.7464 165.8 37.7234 165.458 37.7227C164.796 37.7112 164.143 37.8671 163.558 38.1757C163.012 38.4661 162.556 38.9001 162.239 39.4307C161.911 39.9909 161.744 40.6308 161.758 41.2797V50.9277L157.896 50.9327Z" fill="black"/>
<path d="M176.343 51.253C174.857 51.2926 173.388 50.9368 172.085 50.222C170.898 49.541 169.94 48.5225 169.334 47.296C168.7 45.8943 168.372 44.3734 168.373 42.8349C168.374 41.2965 168.703 39.7759 169.339 38.375C169.939 37.1434 170.875 36.1064 172.039 35.383C173.275 34.6457 174.695 34.2733 176.134 34.309C177.111 34.3027 178.082 34.4671 179.003 34.795C179.899 35.116 180.716 35.6278 181.396 36.295C182.127 37.0241 182.69 37.9048 183.044 38.875C183.469 40.0694 183.672 41.3314 183.644 42.599V43.792H170.187V41.179H179.931C179.936 40.4887 179.771 39.8078 179.45 39.197C179.148 38.6281 178.695 38.1532 178.142 37.824C177.55 37.4814 176.875 37.3084 176.192 37.324C175.457 37.3085 174.733 37.5072 174.109 37.896C173.521 38.2661 173.04 38.7831 172.714 39.396C172.379 40.0183 172.204 40.7135 172.202 41.42V43.696C172.178 44.5433 172.357 45.3841 172.725 46.148C173.048 46.8011 173.557 47.3439 174.189 47.708C174.862 48.0791 175.621 48.2654 176.389 48.248C176.908 48.2547 177.425 48.1732 177.917 48.007C178.358 47.8564 178.762 47.6141 179.103 47.296C179.444 46.9734 179.704 46.5745 179.862 46.132L183.473 46.539C183.258 47.4672 182.811 48.3255 182.173 49.033C181.499 49.7659 180.663 50.3298 179.731 50.679C178.647 51.0799 177.498 51.2745 176.343 51.253Z" fill="black"/>
</g>
</g>
<defs>
<clipPath id="clip0_2130_1429">
<rect width="159.395" height="40.88" fill="white" transform="translate(24.2507 17.5596)"/>
</clipPath>
</defs>
</svg>
