<svg width="204" height="76" viewBox="0 0 204 76" fill="none" xmlns="http://www.w3.org/2000/svg">
<g opacity="0.8">
<g clip-path="url(#clip0_2130_1326)">
<path d="M146.722 38.0001C146.722 37.0721 146.722 36.2151 146.686 35.4291C146.655 34.6877 146.584 33.9486 146.472 33.2151C146.362 32.5469 146.158 31.8977 145.865 31.2871C145.55 30.648 145.127 30.0681 144.615 29.5731C143.901 28.8441 143.052 28.2618 142.115 27.8591C140.049 27.0496 137.753 27.0496 135.687 27.8591C134.739 28.2611 133.878 28.8432 133.152 29.5731C132.65 30.0691 132.239 30.6492 131.938 31.2871C131.645 31.8977 131.441 32.5469 131.331 33.2151C131.219 33.9486 131.148 34.6877 131.117 35.4291C131.081 36.2151 131.081 37.0721 131.081 38.0001C131.081 38.9281 131.081 39.7501 131.117 40.5711C131.148 41.3124 131.219 42.0515 131.331 42.7851C131.441 43.4533 131.645 44.1024 131.938 44.7131C132.252 45.3435 132.661 45.9216 133.152 46.4271C133.872 47.1647 134.734 47.7479 135.687 48.1411C136.706 48.5575 137.8 48.764 138.901 48.7481C140.002 48.7605 141.094 48.5542 142.115 48.1411C143.057 47.7472 143.908 47.1638 144.615 46.4271C145.116 45.9225 145.538 45.3445 145.865 44.7131C146.158 44.1024 146.362 43.4533 146.472 42.7851C146.601 42.0538 146.673 41.3135 146.686 40.5711C146.722 39.7501 146.722 38.9281 146.722 38.0001ZM142.615 38.0001C142.615 39.0001 142.615 39.8571 142.579 40.5351C142.569 41.087 142.509 41.6369 142.4 42.1781C142.352 42.539 142.244 42.8893 142.079 43.2141C141.954 43.4898 141.786 43.7432 141.579 43.9641C141.274 44.3148 140.896 44.5949 140.472 44.7851C139.985 44.9876 139.463 45.0965 138.936 45.1061C138.407 45.1138 137.882 45.0042 137.401 44.7851C136.966 44.5955 136.576 44.3156 136.258 43.9641C136.051 43.7432 135.882 43.4898 135.758 43.2141C135.598 42.8873 135.49 42.5378 135.437 42.1781C135.342 41.6355 135.295 41.0858 135.294 40.5351C135.258 39.8571 135.258 39.0351 135.258 38.0001C135.258 37.0001 135.258 36.1431 135.294 35.4651C135.313 34.9153 135.36 34.3668 135.437 33.8221C135.485 33.4611 135.593 33.1108 135.758 32.7861C135.882 32.5103 136.051 32.2569 136.258 32.0361C136.569 31.6766 136.961 31.3954 137.401 31.2151C137.888 31.0126 138.409 30.9037 138.936 30.8941C139.465 30.8862 139.99 30.9958 140.472 31.2151C140.896 31.4053 141.274 31.6854 141.579 32.0361C141.786 32.2569 141.954 32.5103 142.079 32.7861C142.238 33.1129 142.347 33.4623 142.4 33.8221C142.491 34.3658 142.551 34.9144 142.579 35.4651C142.581 36.1431 142.615 37.0001 142.615 38.0001Z" fill="black"/>
<path d="M179.645 27.7868C179.644 27.6922 179.607 27.6015 179.54 27.5346C179.473 27.4677 179.382 27.43 179.288 27.4298H175.895C175.8 27.43 175.709 27.4677 175.643 27.5346C175.576 27.6015 175.538 27.6922 175.538 27.7868V40.3918L167.218 27.5368C167.194 27.5027 167.161 27.4752 167.124 27.4565C167.087 27.4378 167.045 27.4287 167.004 27.4298H163.826C163.733 27.4361 163.646 27.4757 163.58 27.5414C163.515 27.607 163.475 27.6942 163.469 27.7868V48.2128C163.469 48.3074 163.507 48.398 163.574 48.4649C163.641 48.5318 163.731 48.5695 163.826 48.5698H167.218C167.312 48.5695 167.403 48.5318 167.47 48.4649C167.537 48.398 167.575 48.3074 167.575 48.2128V35.5718L175.895 48.4628C175.919 48.4968 175.951 48.5243 175.988 48.5429C176.026 48.5616 176.067 48.5708 176.109 48.5698H179.287C179.381 48.5695 179.472 48.5318 179.539 48.4649C179.606 48.398 179.643 48.3074 179.644 48.2128L179.645 27.7868Z" fill="black"/>
<path d="M156.792 27.7867C156.792 27.6921 156.754 27.6014 156.687 27.5345C156.62 27.4677 156.529 27.43 156.435 27.4297H153.043C152.948 27.43 152.858 27.4677 152.791 27.5345C152.724 27.6014 152.686 27.6921 152.686 27.7867V48.2127C152.686 48.3073 152.724 48.398 152.791 48.4648C152.858 48.5317 152.948 48.5694 153.043 48.5697H156.435C156.529 48.5694 156.62 48.5317 156.687 48.4648C156.754 48.398 156.792 48.3073 156.792 48.2127V27.7867Z" fill="black"/>
<path d="M116.047 37.9996C116.047 36.9996 116.047 36.1426 116.083 35.4646C116.102 34.9148 116.149 34.3663 116.226 33.8216C116.346 32.991 116.771 32.2347 117.418 31.7002C118.065 31.1656 118.888 30.8909 119.726 30.9296C120.29 30.9015 120.851 31.018 121.357 31.2679C121.864 31.5178 122.297 31.8929 122.618 32.3576C122.917 32.8169 123.135 33.3243 123.261 33.8576C123.26 33.8719 123.262 33.8863 123.267 33.8997C123.272 33.9132 123.28 33.9254 123.29 33.9356C123.3 33.9457 123.312 33.9536 123.326 33.9586C123.339 33.9636 123.354 33.9656 123.368 33.9646H127.368C127.439 33.9646 127.439 33.9286 127.439 33.8576C127.281 32.626 126.824 31.4518 126.108 30.4373C125.392 29.4227 124.439 28.5986 123.332 28.0366C122.178 27.5092 120.923 27.2409 119.654 27.2506C118.594 27.2294 117.54 27.4243 116.558 27.8233C115.576 28.2224 114.685 28.8172 113.94 29.5716C113.065 30.4368 112.468 31.5434 112.226 32.7496C111.75 36.2334 111.75 39.7658 112.226 43.2496C112.483 44.4504 113.078 45.5528 113.94 46.4276C114.685 47.182 115.576 47.7768 116.558 48.1758C117.54 48.5749 118.594 48.7697 119.654 48.7486C120.924 48.7719 122.182 48.503 123.332 47.9626C124.438 47.3989 125.39 46.5743 126.105 45.5601C126.821 44.5458 127.279 43.3725 127.439 42.1416C127.439 42.0706 127.439 42.0346 127.368 42.0346H123.368C123.354 42.0335 123.339 42.0356 123.326 42.0406C123.312 42.0456 123.3 42.0535 123.29 42.0636C123.28 42.0738 123.272 42.086 123.267 42.0994C123.262 42.1129 123.26 42.1273 123.261 42.1416C123.135 42.6749 122.917 43.1823 122.618 43.6416C122.286 44.0948 121.85 44.4612 121.347 44.7098C120.843 44.9584 120.287 45.0818 119.726 45.0696C118.888 45.1083 118.065 44.8336 117.418 44.299C116.771 43.7644 116.346 43.0082 116.226 42.1776C116.131 41.635 116.084 41.0853 116.083 40.5346C116.047 39.8556 116.047 38.9986 116.047 37.9996Z" fill="black"/>
<path d="M73.6959 27.7866C73.6956 27.692 73.6579 27.6013 73.591 27.5344C73.5241 27.4675 73.4334 27.4298 73.3388 27.4296H69.9468C69.8522 27.4298 69.7616 27.4675 69.6947 27.5344C69.6278 27.6013 69.5901 27.692 69.5898 27.7866V48.2126C69.5901 48.3072 69.6278 48.3978 69.6947 48.4647C69.7616 48.5316 69.8522 48.5693 69.9468 48.5696H73.3388C73.4334 48.5693 73.5241 48.5316 73.591 48.4647C73.6579 48.3978 73.6956 48.3072 73.6959 48.2126V42.2126L76.4459 38.9276L82.0518 48.4616C82.073 48.4985 82.1046 48.5284 82.1427 48.5474C82.1807 48.5665 82.2236 48.5738 82.2658 48.5686H86.4078C86.5868 48.5686 86.6218 48.4616 86.5508 48.2826L79.1949 35.8196L85.9438 27.7136C86.0868 27.5346 86.0148 27.3926 85.8008 27.3926H81.2658C81.1948 27.3926 81.1589 27.3926 81.1229 27.4636L73.6949 36.3556V27.7856L73.6959 27.7866Z" fill="black"/>
<path d="M98.5139 45.0707C97.5226 45.0152 96.591 44.5797 95.9127 43.8548C95.2343 43.1299 94.8616 42.1714 94.8719 41.1787V27.7867C94.8716 27.6921 94.8339 27.6014 94.767 27.5345C94.7001 27.4677 94.6095 27.43 94.5149 27.4297H91.1229C91.0283 27.43 90.9376 27.4677 90.8707 27.5345C90.8038 27.6014 90.7661 27.6921 90.7659 27.7867V41.1417C90.8059 43.1798 91.6436 45.1209 93.0991 46.5482C94.5546 47.9754 96.5118 48.7749 98.5504 48.7749C100.589 48.7749 102.546 47.9754 104.002 46.5482C105.457 45.1209 106.295 43.1798 106.335 41.1417V27.7867C106.335 27.6921 106.297 27.6014 106.23 27.5345C106.163 27.4677 106.072 27.43 105.978 27.4297H102.585C102.49 27.43 102.4 27.4677 102.333 27.5345C102.266 27.6014 102.228 27.6921 102.228 27.7867V41.1777C102.204 42.1722 101.81 43.1221 101.123 43.8419C100.436 44.5618 99.5062 44.9999 98.5139 45.0707Z" fill="black"/>
<path d="M35.3078 37.9999L45.8778 48.5699L52.5558 41.8919C53.1251 41.3289 53.8941 41.0142 54.6948 41.0164C55.4955 41.0187 56.2627 41.3377 56.8288 41.9039C57.395 42.47 57.7141 43.2373 57.7163 44.0379C57.7185 44.8386 57.4038 45.6076 56.8408 46.1769L48.0208 54.9969C47.4514 55.5629 46.6812 55.8806 45.8783 55.8806C45.0754 55.8806 44.3052 55.5629 43.7358 54.9969L31.0588 42.2839V49.8539C31.0588 50.659 30.739 51.4311 30.1697 52.0003C29.6005 52.5696 28.8284 52.8894 28.0233 52.8894C27.2182 52.8894 26.4461 52.5696 25.8769 52.0003C25.3076 51.4311 24.9878 50.659 24.9878 49.8539V26.2139C24.9878 25.4088 25.3076 24.6368 25.8769 24.0675C26.4461 23.4982 27.2182 23.1784 28.0233 23.1784C28.8284 23.1784 29.6005 23.4982 30.1697 24.0675C30.739 24.6368 31.0588 25.4088 31.0588 26.2139V33.7139L43.7718 21.0009C44.3412 20.4349 45.1114 20.1172 45.9143 20.1172C46.7172 20.1172 47.4874 20.4349 48.0568 21.0009L56.8768 29.8209C57.4452 30.3897 57.7643 31.1609 57.764 31.965C57.7637 32.769 57.4441 33.5401 56.8753 34.1084C56.3065 34.6768 55.5353 34.9959 54.7312 34.9956C53.9272 34.9954 53.1562 34.6757 52.5878 34.1069L45.9098 27.4289L35.3038 37.9989L35.3078 37.9999ZM45.9138 34.9649C45.3135 34.9649 44.7267 35.1429 44.2276 35.4764C43.7285 35.8099 43.3395 36.2839 43.1098 36.8385C42.8801 37.393 42.82 38.0033 42.9371 38.592C43.0542 39.1807 43.3433 39.7215 43.7677 40.146C44.1922 40.5704 44.733 40.8595 45.3217 40.9766C45.9104 41.0937 46.5207 41.0336 47.0752 40.8039C47.6298 40.5742 48.1038 40.1852 48.4373 39.6861C48.7708 39.187 48.9488 38.6002 48.9488 37.9999C48.9377 37.1984 48.6144 36.4327 48.0476 35.8658C47.4809 35.2988 46.7154 34.9753 45.9138 34.9639V34.9649Z" fill="black"/>
</g>
</g>
<defs>
<clipPath id="clip0_2130_1326">
<rect width="154.658" height="35.763" fill="white" transform="translate(24.9878 20.1182)"/>
</clipPath>
</defs>
</svg>
