<svg width="235" height="76" viewBox="0 0 235 76" fill="none" xmlns="http://www.w3.org/2000/svg">
<g opacity="0.8">
<g clip-path="url(#clip0_2130_1297)">
<path d="M24.1418 23.4648H26.8768C27.7678 23.4671 28.648 23.6605 29.4578 24.0318C30.1332 24.3539 30.7367 24.8089 31.2323 25.3695C31.7278 25.9302 32.1052 26.585 32.3418 27.2948C32.5284 27.8641 32.6295 28.4579 32.6418 29.0568H44.4008C46.3999 29.1057 48.3252 29.8211 49.8712 31.0893C51.4172 32.3576 52.4951 34.106 52.9338 36.0568C53.0932 36.7959 53.1673 37.5509 53.1548 38.3068C53.1548 40.0888 53.1548 41.8708 53.1548 43.6538C53.1292 45.6738 52.423 47.626 51.1503 49.1948C49.8777 50.7636 48.1131 51.8572 46.1418 52.2988C45.5701 52.414 44.9916 52.4928 44.4098 52.5348H33.0808C31.6785 52.5061 30.3002 52.1645 29.0468 51.5348C27.0898 50.5308 25.5675 48.8456 24.7668 46.7968C24.4 45.8255 24.189 44.8021 24.1418 43.7648V23.4648ZM33.6498 36.8958C33.3319 37.2068 33.0784 37.5775 32.9039 37.9866C32.7294 38.3956 32.6373 38.8351 32.6328 39.2798C32.6328 40.2838 32.6328 41.2875 32.6328 42.2908C32.6467 43.1853 33.0103 44.0388 33.6459 44.6683C34.2814 45.2979 35.1383 45.6535 36.0328 45.6588C37.8188 45.6678 39.6038 45.6588 41.3898 45.6588C41.4988 45.6408 41.5748 45.7258 41.6558 45.7838C42.6628 46.6058 43.6758 47.4208 44.6848 48.2408C44.6798 45.4278 44.6848 42.6148 44.6848 39.8018C44.7259 39.217 44.6452 38.6299 44.4478 38.0778C44.204 37.4582 43.7849 36.923 43.2418 36.5377C42.6988 36.1523 42.0552 35.9335 41.3898 35.9078C39.6068 35.9028 37.8248 35.9078 36.0418 35.9078C35.1453 35.9081 34.2853 36.2633 33.6498 36.8958Z" fill="black"/>
<path d="M91.2159 27.5674C92.3429 27.5674 93.4709 27.5674 94.5979 27.5674C94.4657 28.7922 94.1908 29.9974 93.7789 31.1584C93.7489 33.8884 93.7789 36.6214 93.7659 39.3534V48.9974C93.7519 50.1764 93.7929 51.3574 93.7459 52.5344H90.6999C90.6932 47.0524 90.6932 41.5707 90.6999 36.0894C89.7534 37.1276 88.6996 38.0625 87.5559 38.8784C87.5559 37.4014 87.5559 35.9244 87.5559 34.4484C89.5587 32.6656 90.857 30.2246 91.2159 27.5674Z" fill="black"/>
<path d="M102.618 27.5713C103.842 27.5713 105.066 27.5713 106.29 27.5713C106.719 28.0713 107.151 28.5613 107.582 29.0563C109.805 29.0563 112.029 29.0563 114.253 29.0563C114.248 29.9343 114.253 30.8113 114.253 31.6893H96.4778C96.4778 30.8113 96.4778 29.9323 96.4778 29.0543C98.9584 29.0543 101.439 29.0543 103.92 29.0543C103.484 28.5623 103.05 28.068 102.618 27.5713Z" fill="black"/>
<path d="M81.2419 28.9322C82.0276 28.7902 82.7945 28.559 83.5279 28.2432C83.5219 29.1332 83.5279 30.0232 83.5279 30.9142C82.3514 31.4325 81.0814 31.7047 79.7959 31.7142H73.7359V35.7432H82.8859C82.8859 39.0558 82.8859 42.3692 82.8859 45.6832C82.8756 47.2873 82.4386 48.8597 81.6199 50.2392C80.2759 50.2392 78.9309 50.2392 77.5859 50.2392C78.7521 49.3531 79.5221 48.0431 79.7289 46.5932C79.8142 45.7139 79.8416 44.83 79.8109 43.9472C79.7969 42.0902 79.8429 40.2312 79.7769 38.3752C77.7619 38.3752 75.7459 38.3752 73.7299 38.3752C73.7229 43.0952 73.7439 47.8142 73.7189 52.5332H70.6639C70.6565 47.8132 70.6565 43.0938 70.6639 38.3752H64.6199C64.6199 42.3292 64.6199 46.2828 64.6199 50.2362H61.5289V35.7362H70.6599V31.7112H60.8699C60.8699 30.8265 60.8699 29.9415 60.8699 29.0562H79.5699C80.1297 29.0605 80.6889 29.0191 81.2419 28.9322Z" fill="black"/>
<path d="M135.432 28.6808H150.059C150.786 28.7047 151.491 28.9405 152.087 29.3594C152.682 29.7783 153.142 30.362 153.411 31.0388C153.672 31.9277 153.762 32.8582 153.676 33.7808C153.663 34.5553 153.424 35.3091 152.987 35.9488C153.593 36.4908 154.016 37.2073 154.198 37.9998C154.26 38.6979 154.284 39.399 154.27 40.0998C154.356 40.9987 154.152 41.9016 153.689 42.6768C153.344 43.203 152.872 43.6343 152.317 43.9313C151.763 44.2282 151.142 44.3814 150.513 44.3768H135.432V28.6768M138.275 31.5198C138.275 34.8531 138.275 38.1864 138.275 41.5198C142.208 41.5198 146.139 41.5198 150.067 41.5198C150.439 41.4928 150.786 41.322 151.035 41.0435C151.283 40.765 151.413 40.4007 151.398 40.0278C151.445 39.5432 151.403 39.0541 151.274 38.5848C151.162 38.3357 150.982 38.1235 150.754 37.9732C150.526 37.8228 150.26 37.7405 149.987 37.7358C148.987 37.7358 147.987 37.7358 146.994 37.7358C145.819 36.7904 144.646 35.8421 143.476 34.8908C145.269 34.8908 147.063 34.8908 148.856 34.8908C149.201 34.917 149.549 34.8852 149.884 34.7968C150.153 34.6985 150.385 34.5193 150.548 34.2838C150.711 34.0484 150.797 33.7682 150.795 33.4818C150.819 33.1515 150.799 32.8195 150.734 32.4948C150.64 32.2107 150.46 31.9636 150.217 31.7886C149.975 31.6137 149.683 31.5199 149.384 31.5208L138.275 31.5198Z" fill="black"/>
<path d="M191.802 28.6796C192.582 28.6906 193.368 28.6576 194.146 28.6956C198.73 32.4003 203.308 36.112 207.88 39.8306C207.88 36.1133 207.88 32.396 207.88 28.6786C208.821 28.6786 209.762 28.6786 210.703 28.6786C210.703 33.9126 210.703 39.146 210.703 44.3786C209.934 44.3786 209.166 44.3786 208.398 44.3786C203.803 40.636 199.207 36.8943 194.61 33.1536C194.604 36.895 194.604 40.6363 194.61 44.3776C193.674 44.3776 192.739 44.3776 191.804 44.3776C191.802 39.1463 191.801 33.9136 191.802 28.6796Z" fill="black"/>
<path d="M165.918 29.0771C167.074 29.0771 168.23 29.0771 169.386 29.0771C170.579 30.7401 171.779 32.3971 172.97 34.0621C174.157 32.3995 175.346 30.7385 176.538 29.0791C177.702 29.0791 178.866 29.0791 180.03 29.0791C178.256 31.5338 176.48 33.9861 174.702 36.4361C176.618 39.0728 178.536 41.7091 180.454 44.3451C179.289 44.3451 178.125 44.3451 176.96 44.3451C175.628 42.4901 174.306 40.6282 172.969 38.7782C171.641 40.6355 170.311 42.4911 168.98 44.3451C167.816 44.3451 166.651 44.3451 165.488 44.3451C167.405 41.7065 169.325 39.0695 171.246 36.4342C169.469 33.9815 167.693 31.5291 165.918 29.0771Z" fill="black"/>
<path d="M183.993 29.0762H186.779C186.779 34.1655 186.779 39.2552 186.779 44.3452H183.993C183.99 39.2558 183.99 34.1662 183.993 29.0762Z" fill="black"/>
<path d="M159.269 44.3452C159.269 39.2552 159.269 34.1649 159.269 29.0742C160.197 29.0792 161.125 29.0742 162.053 29.0742V44.3452H159.269Z" fill="black"/>
<path d="M124.324 49.1446C124.324 43.2833 124.324 37.4213 124.324 31.5586C124.58 31.5586 124.837 31.5586 125.094 31.5586C125.094 37.4199 125.094 43.2809 125.094 49.1416C124.839 49.1456 124.585 49.1456 124.324 49.1446Z" fill="black"/>
<path d="M97.4009 33.6133H113.329V36.2493H97.4009C97.4009 35.3706 97.4009 34.4919 97.4009 33.6133Z" fill="black"/>
<path d="M97.4 38.207H113.329C113.329 39.086 113.329 39.964 113.329 40.843C108.02 40.843 102.71 40.843 97.3989 40.843C97.4029 39.963 97.399 39.084 97.4 38.207Z" fill="black"/>
<path d="M96.9478 42.8008H113.799C113.799 44.8408 113.799 46.8818 113.799 48.9218C113.805 49.4023 113.714 49.879 113.531 50.3233C113.348 50.7676 113.077 51.1702 112.734 51.5068C112.091 52.1321 111.241 52.4982 110.345 52.5348H96.9508C96.9428 49.2908 96.9508 46.0448 96.9508 42.8008M100.021 45.4368C100.021 46.9181 100.021 48.3994 100.021 49.8808C103.021 49.8808 106.021 49.8808 109.021 49.8808C109.292 49.9044 109.564 49.8804 109.827 49.8098C110.087 49.7179 110.313 49.5471 110.472 49.321C110.631 49.095 110.715 48.8251 110.714 48.5488C110.714 47.5121 110.714 46.4748 110.714 45.4368H100.021Z" fill="black"/>
<path d="M135.157 47.6973C135.451 47.6973 135.745 47.6973 136.04 47.6973C136.364 48.9413 136.687 50.1853 137.01 51.4293C137.363 50.1873 137.693 48.9383 138.037 47.6943H138.853C139.197 48.9423 139.538 50.1913 139.876 51.4413C140.207 50.1933 140.523 48.9413 140.856 47.6943H141.733C141.257 49.2943 140.777 50.8943 140.295 52.4943C140.016 52.4943 139.738 52.4943 139.461 52.4943C139.129 51.2513 138.767 50.0163 138.453 48.7693C138.109 50.0113 137.769 51.254 137.431 52.4973C137.15 52.4973 136.869 52.4973 136.59 52.4973C136.112 50.8973 135.634 49.2973 135.157 47.6973Z" fill="black"/>
<path d="M144.158 47.6973C144.45 47.6973 144.744 47.6973 145.038 47.6973C145.373 48.9403 145.676 50.1973 146.022 51.4323C146.352 50.1853 146.704 48.9443 147.037 47.6973C147.31 47.6973 147.584 47.6973 147.859 47.6973C148.196 48.9463 148.541 50.1972 148.88 51.4402C149.207 50.1932 149.528 48.9403 149.855 47.6973H150.737C150.259 49.2973 149.779 50.8973 149.296 52.4973C149.018 52.4973 148.741 52.4973 148.464 52.4973C148.124 51.2583 147.782 50.0203 147.448 48.7803C147.11 50.0189 146.771 51.2576 146.431 52.4962H145.587C145.117 50.8952 144.632 49.2983 144.158 47.6973Z" fill="black"/>
<path d="M153.158 47.6974C153.453 47.6974 153.748 47.6974 154.044 47.6974C154.365 48.9464 154.695 50.1974 155.015 51.4424C155.36 50.1934 155.695 48.9424 156.042 47.6934C156.312 47.6934 156.584 47.6934 156.857 47.6934C157.199 48.9424 157.543 50.1934 157.88 51.4424C158.206 50.193 158.531 48.9434 158.855 47.6934H159.741C159.257 49.2934 158.779 50.8933 158.297 52.4933C158.018 52.4933 157.738 52.4933 157.46 52.4933C157.126 51.2593 156.788 50.026 156.446 48.7934C156.106 50.0274 155.773 51.2633 155.43 52.4933C155.15 52.4933 154.871 52.4933 154.592 52.4933C154.113 50.8967 153.635 49.298 153.158 47.6974Z" fill="black"/>
<path d="M167.133 52.5348C167.101 50.9228 167.133 49.3087 167.119 47.6957C167.908 47.6957 168.698 47.6957 169.488 47.6957C169.703 47.684 169.919 47.7158 170.121 47.7894C170.324 47.8629 170.509 47.9767 170.667 48.1237C170.817 48.2938 170.916 48.5026 170.953 48.7263C170.99 48.9501 170.963 49.1797 170.875 49.3888C170.745 49.6648 170.511 49.8786 170.225 49.9838C170.486 50.0381 170.725 50.167 170.914 50.3547C171.074 50.5785 171.166 50.8446 171.176 51.1197C171.187 51.3949 171.117 51.6672 170.974 51.9027C170.633 52.4357 169.935 52.4788 169.374 52.5338H167.135M167.912 48.3167C167.912 48.7877 167.912 49.2578 167.912 49.7288C168.513 49.7578 169.115 49.7364 169.712 49.6648C169.818 49.6308 169.915 49.5719 169.994 49.4929C170.073 49.4139 170.132 49.3172 170.166 49.2108C170.2 49.1044 170.208 48.9914 170.189 48.8813C170.171 48.7712 170.126 48.6671 170.059 48.5778C169.965 48.4881 169.854 48.4187 169.733 48.3738C169.611 48.3289 169.481 48.3095 169.352 48.3167C168.872 48.3167 168.393 48.3167 167.914 48.3167M167.914 50.3498C167.914 50.8578 167.914 51.3661 167.914 51.8748H169.422C169.713 51.8879 169.998 51.7915 170.222 51.6047C170.326 51.4776 170.389 51.321 170.4 51.1568C170.411 50.9926 170.371 50.829 170.285 50.6887C170.19 50.5743 170.07 50.484 169.934 50.425C169.797 50.3661 169.649 50.3403 169.501 50.3498C168.966 50.3488 168.438 50.3557 167.91 50.3557L167.914 50.3498Z" fill="black"/>
<path d="M174.311 47.6963H175.083V52.4963H174.311V47.6963Z" fill="black"/>
<path d="M178.088 47.6963H179.053C179.453 48.2713 179.859 48.8373 180.253 49.4153C180.653 48.8403 181.053 48.2733 181.453 47.6973C181.774 47.6973 182.095 47.6973 182.418 47.6973C181.855 48.4683 181.294 49.2423 180.727 50.0103C181.32 50.8463 181.935 51.6663 182.535 52.4973H181.574C181.139 51.8523 180.652 51.2393 180.252 50.5723C179.858 51.2423 179.367 51.8573 178.929 52.5013C178.613 52.4933 178.297 52.5013 177.983 52.4953C178.57 51.6653 179.169 50.8433 179.771 50.0243C179.215 49.2443 178.65 48.4713 178.088 47.6963Z" fill="black"/>
<path d="M185.424 47.6963H186.195C186.195 49.2963 186.195 50.8963 186.195 52.4963C185.937 52.4963 185.682 52.4963 185.427 52.4963C185.425 50.8963 185.424 49.2963 185.424 47.6963Z" fill="black"/>
<path d="M189.543 47.6963C189.805 47.6963 190.069 47.6963 190.334 47.6963C191.188 48.8863 192.042 50.0776 192.893 51.2703C192.893 50.0793 192.893 48.8893 192.893 47.6983H193.665C193.665 49.2983 193.665 50.8983 193.665 52.4983H192.908C192.051 51.2983 191.187 50.0983 190.332 48.8933C190.332 50.0933 190.332 51.2933 190.332 52.4983H189.541C189.54 50.8983 189.541 49.2976 189.543 47.6963Z" fill="black"/>
<path d="M201.536 47.6963H202.308V52.4963H201.536C201.535 50.8969 201.535 49.297 201.536 47.6963Z" fill="black"/>
<path d="M205.66 47.6968C205.969 47.6816 206.279 47.69 206.587 47.7218C207.178 48.9828 207.733 50.2608 208.321 51.5218C208.906 50.2488 209.473 48.9668 210.054 47.6918C210.364 47.6918 210.676 47.6918 210.989 47.6918V52.4848C210.725 52.4928 210.46 52.4918 210.199 52.4908C210.199 51.3418 210.199 50.1908 210.199 49.0418C209.685 50.1918 209.171 51.3415 208.656 52.4908H207.975C207.458 51.3428 206.951 50.1908 206.433 49.0438C206.428 50.1928 206.433 51.3438 206.433 52.4908H205.661L205.66 47.6968Z" fill="black"/>
<path d="M162.726 51.7991C162.774 51.715 162.844 51.6452 162.928 51.5966C163.012 51.548 163.108 51.5225 163.205 51.5225C163.302 51.5225 163.397 51.548 163.481 51.5966C163.565 51.6452 163.635 51.715 163.684 51.7991C163.719 51.8708 163.737 51.9499 163.737 52.0298C163.736 52.1098 163.717 52.1886 163.681 52.2599C163.644 52.3312 163.592 52.393 163.528 52.4404C163.463 52.4878 163.389 52.5196 163.31 52.5331H163.073C162.997 52.5152 162.926 52.4805 162.865 52.4314C162.805 52.3824 162.756 52.3203 162.722 52.2497C162.689 52.1792 162.672 52.102 162.673 52.024C162.673 51.946 162.691 51.8691 162.726 51.7991Z" fill="black"/>
<path d="M197.194 51.7052C197.263 51.626 197.353 51.5687 197.454 51.5404C197.555 51.5121 197.662 51.514 197.761 51.546C197.861 51.5779 197.95 51.6385 198.015 51.7201C198.081 51.8018 198.121 51.9009 198.131 52.0052C198.139 52.1278 198.102 52.2493 198.027 52.3463C197.951 52.4433 197.843 52.5091 197.722 52.5312H197.457C197.374 52.5086 197.297 52.4655 197.235 52.4059C197.173 52.3462 197.127 52.272 197.1 52.1898C197.074 52.1077 197.069 52.0203 197.086 51.9356C197.102 51.851 197.139 51.7718 197.194 51.7052Z" fill="black"/>
</g>
</g>
<defs>
<clipPath id="clip0_2130_1297">
<rect width="186.846" height="29.07" fill="white" transform="translate(24.1418 23.4648)"/>
</clipPath>
</defs>
</svg>
