<svg width="366" height="76" viewBox="0 0 366 76" fill="none" xmlns="http://www.w3.org/2000/svg">
<g opacity="0.8">
<g clip-path="url(#clip0_2130_1164)">
<path d="M56.4069 31.6454C55.0753 31.6174 53.7518 31.8585 52.5155 32.3541C51.2793 32.8497 50.1558 33.5896 49.2123 34.5296C48.2687 35.4696 47.5245 36.5904 47.0243 37.8247C46.524 39.0591 46.278 40.3817 46.3009 41.7134C46.2697 43.045 46.5102 44.3691 47.0076 45.6048C47.505 46.8404 48.249 47.9618 49.1941 48.9005C50.1392 49.8391 51.2657 50.5754 52.5047 51.0643C53.7438 51.5533 55.0694 51.7847 56.4009 51.7444C57.738 51.7798 59.0685 51.5445 60.3124 51.0526C61.5563 50.5606 62.6878 49.8222 63.6389 48.8817C64.5901 47.9412 65.3412 46.8181 65.8471 45.5798C66.353 44.3416 66.6033 43.0138 66.5829 41.6764C66.6057 40.3404 66.3571 39.0138 65.8519 37.7769C65.3467 36.54 64.5956 35.4185 63.6441 34.4806C62.6926 33.5426 61.5605 32.8077 60.3164 32.3203C59.0724 31.8329 57.7423 31.6033 56.4069 31.6454ZM56.4449 47.5904C55.6849 47.594 54.9321 47.4424 54.2328 47.1448C53.5335 46.8472 52.9023 46.4099 52.378 45.8598C51.8536 45.3096 51.4472 44.6581 51.1836 43.9453C50.9199 43.2325 50.8047 42.4733 50.8449 41.7144C50.8449 38.3084 53.1729 35.8014 56.4019 35.8014C57.1664 35.7984 57.9234 35.9515 58.6267 36.2512C59.3299 36.551 59.9647 36.9911 60.492 37.5446C61.0193 38.0981 61.4281 38.7534 61.6934 39.4704C61.9587 40.1873 62.0749 40.9509 62.0349 41.7144C62.0751 42.4725 61.9603 43.2309 61.6973 43.9431C61.4344 44.6553 61.0288 45.3064 60.5056 45.8564C59.9823 46.4065 59.3522 46.844 58.654 47.1421C57.9558 47.4403 57.2041 47.5928 56.4449 47.5904ZM67.8219 36.0254H70.6389V51.3714H75.1449V32.0194H67.8219V36.0254ZM34.9649 35.8004C36.0725 35.7882 37.1542 36.1353 38.0479 36.7898C38.9416 37.4442 39.5991 38.3707 39.9219 39.4304H44.6919C44.2891 37.1811 43.0859 35.1537 41.3045 33.7227C39.5231 32.2917 37.284 31.5538 35.0009 31.6454C33.6697 31.6183 32.3468 31.86 31.1112 32.356C29.8756 32.852 28.7527 33.5922 27.8098 34.5322C26.8669 35.4722 26.1233 36.5928 25.6235 37.8268C25.1236 39.0609 24.8779 40.3831 24.9009 41.7144C24.8688 43.0463 25.1087 44.3707 25.6058 45.6068C26.103 46.8428 26.8469 47.9646 27.7922 48.9034C28.7375 49.8422 29.8643 50.5785 31.1037 51.0671C32.3432 51.5557 33.6692 51.7865 35.0009 51.7454C37.2808 51.8172 39.5104 51.0664 41.2824 49.63C43.0543 48.1937 44.2503 46.1677 44.6519 43.9224H39.9209C39.613 44.9866 38.9656 45.921 38.0773 46.5832C37.1891 47.2454 36.1087 47.5991 35.0009 47.5904C34.2423 47.5957 33.4907 47.4449 32.793 47.1473C32.0952 46.8497 31.4661 46.4117 30.9449 45.8605C30.4236 45.3094 30.0214 44.6568 29.7631 43.9435C29.5049 43.2302 29.3962 42.4714 29.4439 41.7144C29.4449 38.3084 31.7009 35.8004 34.9649 35.8004ZM153.44 39.8434L150.14 39.3574C148.563 39.1334 147.44 38.6094 147.44 37.3734C147.44 36.0254 148.905 35.3524 150.895 35.3524C153.073 35.3524 154.463 36.2874 154.763 37.8224H159.119C158.63 33.9304 155.626 31.6474 151.008 31.6474C146.238 31.6474 143.084 34.0804 143.084 37.5234C143.084 40.8164 145.15 42.7234 149.317 43.3234L152.617 43.8094C154.232 44.0334 155.134 44.6714 155.134 45.8684C155.134 47.4034 153.557 48.0394 151.379 48.0394C148.712 48.0394 147.21 46.9544 146.985 45.3074H142.554C142.968 49.0884 145.934 51.7444 151.341 51.7444C156.261 51.7444 159.527 49.4984 159.527 45.6444C159.523 42.2004 157.158 40.4044 153.44 39.8434ZM72.8919 24.0474C72.5124 24.0332 72.1341 24.0968 71.78 24.2341C71.426 24.3714 71.1038 24.5796 70.8331 24.8459C70.5624 25.1122 70.3489 25.431 70.2058 25.7827C70.0627 26.1345 69.993 26.5117 70.0009 26.8914C70.0207 27.6452 70.3341 28.3615 70.8743 28.8877C71.4145 29.4138 72.1388 29.7083 72.8929 29.7083C73.647 29.7083 74.3713 29.4138 74.9115 28.8877C75.4517 28.3615 75.765 27.6452 75.7849 26.8914C75.7928 26.5115 75.723 26.1341 75.5798 25.7822C75.4365 25.4304 75.2229 25.1115 74.952 24.8452C74.6811 24.5788 74.3586 24.3707 74.0043 24.2335C73.6501 24.0963 73.2715 24.033 72.8919 24.0474ZM139.021 38.6474C139.021 34.4564 136.468 31.6474 131.06 31.6474C125.953 31.6474 123.099 34.2304 122.535 38.1984H127.001C127.226 36.6634 128.428 35.3914 130.981 35.3914C133.272 35.3914 134.399 36.4014 134.399 37.6374C134.399 39.2474 132.333 39.6584 129.78 39.9204C126.325 40.2944 122.045 41.4914 122.045 45.9834C122.045 49.4654 124.637 51.7094 128.767 51.7094C131.996 51.7094 134.024 50.3614 135.039 48.2274C135.064 48.669 135.177 49.1013 135.37 49.4991C135.564 49.8969 135.834 50.2523 136.166 50.5448C136.498 50.8373 136.885 51.0609 137.304 51.2028C137.723 51.3447 138.166 51.402 138.607 51.3714H141.236V47.3714H139.02V38.6454L139.021 38.6474ZM134.59 43.5134C134.563 44.1382 134.411 44.7513 134.144 45.3169C133.877 45.8824 133.5 46.3891 133.035 46.8074C132.57 47.2256 132.026 47.5469 131.435 47.7526C130.845 47.9583 130.219 48.0442 129.595 48.0054C127.905 48.0054 126.478 47.2944 126.478 45.7974C126.478 43.8884 128.769 43.3644 130.872 43.1404C132.9 42.9534 134.026 42.5044 134.59 41.6404V43.5134ZM110.669 31.6454C109.504 31.6302 108.351 31.8742 107.292 32.3597C106.234 32.8451 105.296 33.56 104.548 34.4524V23.8604H100.042V51.3714H104.473V48.8264C105.217 49.7519 106.162 50.4958 107.236 51.0016C108.31 51.5073 109.486 51.7617 110.673 51.7454C116.08 51.7454 120.173 47.4784 120.173 41.7144C120.173 35.9504 116.001 31.6454 110.669 31.6454ZM109.993 47.5904C109.233 47.594 108.48 47.4424 107.781 47.1448C107.081 46.8472 106.45 46.4099 105.926 45.8598C105.402 45.3096 104.995 44.6581 104.732 43.9453C104.468 43.2325 104.353 42.4733 104.393 41.7144C104.356 40.9517 104.475 40.1896 104.741 39.474C105.008 38.7585 105.417 38.1046 105.943 37.5517C106.47 36.9989 107.103 36.5587 107.805 36.2579C108.507 35.957 109.262 35.8017 110.026 35.8014C113.294 35.8014 115.583 38.3094 115.583 41.7144C115.623 42.4725 115.508 43.2309 115.245 43.9431C114.982 44.6553 114.577 45.3064 114.054 45.8564C113.53 46.4065 112.9 46.844 112.202 47.1421C111.504 47.4403 110.752 47.5928 109.993 47.5904ZM89.2639 31.6454C88.1047 31.5708 86.9459 31.797 85.8998 32.3019C84.8536 32.8068 83.9557 33.5734 83.2929 34.5274V32.0194H78.8239V51.3704H83.3299V40.8534C83.3299 37.8964 85.2079 35.8004 87.9859 35.8004C90.5779 35.8004 92.1919 37.6344 92.1919 40.2924V51.3724H96.7009V39.9604C96.7009 35.0884 94.1839 31.6454 89.2639 31.6454ZM181.001 41.0784C181.041 39.8231 180.822 38.5731 180.358 37.4062C179.894 36.2393 179.194 35.1804 178.303 34.2956C177.412 33.4108 176.348 32.7189 175.178 32.2631C174.007 31.8073 172.756 31.5974 171.501 31.6464C170.172 31.6151 168.851 31.8544 167.617 32.3498C166.384 32.8452 165.264 33.5864 164.326 34.5281C163.388 35.4699 162.652 36.5927 162.161 37.8281C161.671 39.0635 161.437 40.3857 161.474 41.7144C161.439 43.047 161.677 44.3727 162.173 45.61C162.669 46.8473 163.413 47.9701 164.359 48.9095C165.305 49.8489 166.433 50.5851 167.674 51.0727C168.914 51.5604 170.242 51.7893 171.574 51.7454C176.269 51.7454 179.948 48.9754 180.887 45.0454H176.192C175.516 46.7674 173.864 47.7454 171.648 47.7454C170.265 47.7888 168.919 47.3008 167.885 46.3817C166.852 45.4627 166.209 44.1824 166.091 42.8044H181.001V41.0784ZM166.355 39.5784C166.598 38.4238 167.239 37.3912 168.166 36.6604C169.092 35.9295 170.245 35.5466 171.425 35.5784C172.601 35.5055 173.763 35.8756 174.68 36.6159C175.597 37.3561 176.205 38.413 176.382 39.5784H166.355Z" fill="black"/>
<path d="M252.324 34.9513H258.704V51.7093H261.604V34.9513H267.984V32.4343H252.324V34.9513ZM204.324 48.3123H204.267L198.653 32.4343H195.544L202.717 51.7343H205.892L212.92 32.4343H209.963L204.324 48.3123ZM215.878 51.7123H229.084V49.1873H218.776V43.0043H228.276V40.5393H218.776V34.9513H229.082V32.4343H215.876L215.878 51.7123ZM246.298 47.5693H246.272L236.904 32.4343H233.424V51.7093H236.246V36.2353L245.746 51.7093H249.06V32.4343H246.26L246.298 47.5693ZM283.129 44.9123C283.129 47.8173 281.461 49.6253 278.499 49.6253C275.537 49.6253 273.838 47.8183 273.838 44.9123V32.4813H270.933V44.9723C270.933 49.1153 273.673 52.1193 278.489 52.1193C283.305 52.1193 286.05 49.1103 286.05 44.9723V32.4343H283.145L283.129 44.9123ZM336.087 40.8363L333.43 40.4223C331.296 40.0653 329.924 39.3293 329.924 37.4913C329.924 35.7663 331.348 34.3843 334.253 34.3843C337.158 34.3843 338.525 35.7253 338.634 37.5843H341.565C341.451 34.6273 339.043 32.0273 334.278 32.0273C329.617 32.0273 326.997 34.5753 326.997 37.6933C326.997 41.0933 329.348 42.6233 332.637 43.1153L335.32 43.5293C337.645 43.9123 338.909 44.6223 338.909 46.4553C338.909 48.4283 337.184 49.8003 334.309 49.8003C331.434 49.8003 329.576 48.5103 329.467 46.1753H326.536C326.619 49.6503 329.519 52.1413 334.304 52.1413C338.851 52.1413 341.891 49.7903 341.891 46.2533C341.87 42.7833 339.457 41.3333 336.091 40.8153L336.087 40.8363ZM310.32 51.7093H323.541V49.1873H313.22V43.0043H322.72V40.5393H313.22V34.9513H323.541V32.4343H310.32V51.7093ZM299.72 43.6873C303.801 43.6873 306.048 41.5223 306.048 38.1253C306.048 34.7283 303.748 32.4253 299.585 32.4253H291.227V51.7053H294.132V43.6883L302.837 51.7103H306.98L298.052 43.6883L299.72 43.6873ZM294.137 34.9153H299.513C301.895 34.9153 303.138 36.0963 303.138 38.0223V38.3533C303.138 40.2693 301.905 41.4603 299.513 41.4603H294.137V34.9153Z" fill="black"/>
</g>
</g>
<defs>
<clipPath id="clip0_2130_1164">
<rect width="316.984" height="28.279" fill="white" transform="translate(24.9009 23.8604)"/>
</clipPath>
</defs>
</svg>
