<svg width="222" height="76" viewBox="0 0 222 76" fill="none" xmlns="http://www.w3.org/2000/svg">
<g opacity="0.8">
<g clip-path="url(#clip0_2130_1406)">
<path d="M57.6979 22.1106C54.218 19.2352 49.7439 17.6487 45.22 17.5H44.3252C38.7076 17.6487 33.1895 20.1276 29.4611 24.292C26.2298 27.7624 24.3904 32.4226 24.1418 37.1324V39.0659C24.4898 47.841 31.0519 55.922 39.6522 57.9547C44.5737 59.0949 49.9427 58.5992 54.4168 56.1699C60.1338 53.1457 64.2599 47.2461 65.0056 40.8507C66.0496 33.8603 63.1663 26.4734 57.6979 22.1106ZM48.5508 55.1288C40.1493 57.3102 30.7536 52.055 28.0691 43.8253C25.9315 38.0248 27.224 31.1832 31.2508 26.523C33.9849 23.2509 37.962 21.1191 42.1875 20.4746C47.0097 19.7805 52.1798 21.2678 55.9579 24.3912C59.3384 27.1179 61.5258 31.1832 62.172 35.4468C63.7131 44.2219 57.3002 53.4432 48.5508 55.1288Z" fill="black"/>
<path d="M41.6406 50.6171C37.6139 49.6752 34.1837 46.8989 32.4438 43.131C31.7478 43.4285 31.0518 43.7755 30.3062 44.073C32.6924 49.3777 38.1607 53.1456 44.0268 53.3439C44.0268 43.2798 44.0268 33.2653 44.0268 23.2012C43.2314 23.2507 42.436 23.3003 41.6406 23.3499C41.6406 32.472 41.6406 41.5446 41.6406 50.6171Z" fill="black"/>
<path d="M56.9522 33.2162C57.6979 32.9187 58.3939 32.5717 59.1395 32.2742C56.4551 27.1678 51.2352 23.3504 45.3691 23.1025C45.3691 33.1666 45.3691 43.2803 45.3691 53.3444C51.1855 52.8486 56.5545 49.3287 59.1395 44.0735C58.4436 43.7761 57.6979 43.4786 56.9522 43.1316C55.0631 46.7011 51.6826 49.527 47.7056 50.5185C47.6559 42.2888 47.7056 34.059 47.7056 25.7797C51.6329 26.92 55.0134 29.5971 56.9522 33.2162Z" fill="black"/>
<path d="M137.188 45.9575C136.144 46.0566 134.603 46.4037 134.206 45.1147C133.211 42.4375 133.609 39.5621 133.609 36.7362C133.758 35.2985 133.957 32.7205 135.995 32.9683C137.934 33.0179 137.884 35.348 137.984 36.7362C139.177 36.7362 140.37 36.7362 141.563 36.7362C141.663 34.5548 141.116 31.9272 138.928 30.8861C136.99 30.0929 134.653 30.0929 132.764 31.0349C130.577 32.2743 130.129 35.001 129.98 37.3311C129.98 40.3553 129.632 43.5778 131.024 46.3541C132.515 49.0808 136.343 49.2791 138.928 48.238C141.364 47.0977 141.663 44.1231 141.712 41.7434C140.519 41.7434 139.276 41.7434 138.083 41.7434C138.034 43.1316 137.934 44.6685 137.188 45.9575Z" fill="black"/>
<path d="M84.145 30.6875C82.9519 30.6875 81.7588 30.6875 80.5657 30.6875C80.4166 35.7443 80.9634 40.8507 80.2177 45.9076C79.5218 46.0067 78.7761 46.2546 78.0801 45.9571C77.3344 45.0648 77.3841 43.8749 77.1853 42.7842C76.0916 42.7842 75.0476 42.8338 74.0037 42.8338C74.1031 44.3707 74.0037 46.1059 75.0973 47.3453C76.5887 49.0309 79.1241 48.8822 81.1126 48.436C83.0016 47.9898 84.145 46.0563 84.0953 44.222C84.2445 39.7105 84.145 35.199 84.145 30.6875Z" fill="black"/>
<path d="M168.259 33.4143C169.402 33.4143 170.546 33.4143 171.689 33.4143C171.689 32.4228 171.689 31.4808 171.689 30.4893C170.546 30.4893 169.402 30.4893 168.259 30.4893C168.259 31.4808 168.259 32.4723 168.259 33.4143Z" fill="black"/>
<path d="M193.612 31.5301C193.612 37.1818 193.612 42.8336 193.612 48.4853C194.805 48.4853 195.949 48.4853 197.142 48.4358V30.6377C195.999 30.9847 194.805 31.2326 193.612 31.5301Z" fill="black"/>
<path d="M178.301 37.3807C178.947 37.3807 179.544 37.3807 180.19 37.3807C180.19 36.5875 180.19 35.7942 180.19 35.001C179.544 35.001 178.947 35.001 178.301 35.001C178.301 33.712 178.301 32.4726 178.301 31.1836C177.108 31.4811 175.964 31.7785 174.771 32.0264C174.771 33.0179 174.771 34.0095 174.771 34.9514C174.373 34.9514 173.528 34.9514 173.131 34.9514C173.131 35.7447 173.131 36.5379 173.131 37.3311C173.528 37.3311 174.373 37.3311 174.771 37.3311C174.871 40.4049 174.572 43.5282 174.92 46.602C175.368 49.1304 178.4 48.2876 180.19 48.3867C180.19 47.6431 180.19 46.8994 180.19 46.1558C179.593 45.9575 178.848 46.0566 178.35 45.6104C178.201 42.8837 178.4 40.157 178.301 37.3807Z" fill="black"/>
<path d="M92.9938 44.9659C92.6458 46.3541 91.1048 46.1062 90.0608 45.9574C89.6631 42.3383 89.9614 38.6697 89.8619 35.001C88.7185 35.001 87.5254 35.001 86.3821 35.001C86.4318 38.7192 86.2826 42.4375 86.4815 46.1062C86.9289 49.4278 91.6516 49.4278 93.3418 47.0977C93.2921 47.4448 93.2424 48.0892 93.2424 48.4363C94.3858 48.4363 95.5789 48.4363 96.7223 48.4363C96.7223 43.9744 96.7223 39.4629 96.7223 35.001C95.5292 35.001 94.3858 35.001 93.1927 35.001C93.0435 38.3226 93.2921 41.6443 92.9938 44.9659Z" fill="black"/>
<path d="M115.315 37.2313C114.967 34.0088 109.996 34.0088 108.753 36.6364C107.56 34.0584 103.831 34.3063 102.141 36.2398C102.191 35.9423 102.24 35.2978 102.24 35.0003C101.097 35.0003 99.9537 35.0003 98.8103 35.0003C98.8103 39.4622 98.8103 43.9737 98.8103 48.4356C100.003 48.4356 101.147 48.4356 102.34 48.4356C102.39 45.4115 102.29 42.3377 102.34 39.3135C102.29 38.322 103.086 37.1321 104.229 37.38C105.074 37.2809 105.472 38.1732 105.422 38.8673C105.522 42.0402 105.422 45.2627 105.472 48.4356C106.665 48.4356 107.808 48.4356 109.001 48.4356C109.051 45.2132 108.902 41.9411 109.101 38.7186C109.101 37.4296 110.592 37.2809 111.586 37.2809C111.835 37.9254 112.133 38.5203 112.133 39.2144C112.183 42.2881 112.133 45.3123 112.133 48.3861C113.277 48.3861 114.42 48.3861 115.563 48.3861C115.365 44.7174 115.762 40.9495 115.315 37.2313Z" fill="black"/>
<path d="M121.032 36.3388C121.032 35.9918 121.081 35.3473 121.131 35.0498C119.988 35.0498 118.844 35.0498 117.701 35.0498C117.701 40.999 117.701 46.8987 117.701 52.8479C118.844 52.5504 120.037 52.253 121.231 51.9555C121.231 50.4186 121.231 48.8818 121.181 47.3944C122.523 48.9313 125.058 49.3279 126.599 47.9398C128.24 46.3533 128.091 43.9241 128.19 41.8418C128.091 39.7596 128.19 37.3304 126.649 35.6943C125.108 34.1574 122.324 34.6036 121.032 36.3388ZM124.412 45.2131C124.164 46.5021 121.927 46.4525 121.628 45.1635C121.131 43.7258 121.231 42.1889 121.28 40.7016C121.33 39.5613 121.33 38.2227 122.274 37.3799C122.97 37.2312 123.965 37.1816 124.313 37.9749C125.058 40.3545 125.058 42.883 124.412 45.2131Z" fill="black"/>
<path d="M153.047 37.2808C152.351 34.3062 148.573 34.6037 146.236 35.0003C144.297 35.4465 143.701 37.4791 143.402 39.1647C144.496 39.2143 145.54 39.2143 146.634 39.2143C146.783 38.5698 146.932 37.9749 147.131 37.3304C148.523 36.5867 150.511 37.5287 149.915 39.2639C149.02 40.652 147.031 40.4041 145.639 41.0982C142.706 41.941 142.458 46.3534 144.546 48.1877C146.286 49.2784 148.771 48.7826 149.964 47.1466C150.014 47.4936 150.163 48.1381 150.213 48.4356C151.307 48.4356 152.351 48.4356 153.444 48.4356C152.898 44.7669 153.494 40.9991 153.047 37.2808ZM148.374 46.4029C146.485 47.097 145.838 44.0728 147.081 43.0813C147.976 42.4864 149.02 42.2881 149.964 41.8419C149.865 43.3787 150.412 45.8576 148.374 46.4029Z" fill="black"/>
<path d="M162.343 34.8024C160.852 34.5545 159.708 35.3973 158.813 36.488C158.813 36.1409 158.863 35.3973 158.913 35.0503C157.819 35.0503 156.726 35.0503 155.632 35.0503C155.632 40.9499 155.632 46.8991 155.632 52.7987C156.775 52.4517 157.968 52.1542 159.112 51.8568C159.112 50.3695 159.112 48.8822 159.062 47.3949C160.653 49.2292 163.984 49.2788 165.226 47.0478C166.419 44.5194 166.221 41.5944 165.972 38.8677C165.773 36.9342 164.58 34.6536 162.343 34.8024ZM162.144 45.6101C161.349 46.6016 160.056 46.0563 159.311 45.3126C159.161 43.0321 158.913 40.6524 159.41 38.3719C159.708 37.0333 161.945 36.9837 162.293 38.3223C162.84 40.702 162.94 43.2304 162.144 45.6101Z" fill="black"/>
<path d="M168.259 48.4363C169.402 48.4363 170.546 48.4363 171.689 48.4363C171.689 43.9744 171.689 39.4629 171.689 35.001C170.546 35.001 169.402 35.001 168.259 35.001C168.259 39.5125 168.259 43.9744 168.259 48.4363Z" fill="black"/>
<path d="M191.127 38.768C191.077 37.3302 190.53 35.5951 188.989 35.0993C187.299 34.6531 185.459 34.6531 183.769 35.0993C182.029 35.6942 181.433 37.5286 181.284 39.1646C182.278 39.2142 183.322 39.2142 184.366 39.2142C184.664 38.5201 184.614 37.3798 185.559 37.1815C186.205 36.8345 186.951 37.3302 187.597 37.4294C187.647 38.1731 187.647 38.9167 187.647 39.7099C185.658 40.7015 182.974 40.5527 181.582 42.4862C180.737 44.271 180.786 46.7994 182.377 48.1876C184.067 49.2287 186.454 48.7825 187.796 47.2952C187.895 47.5926 188.094 48.138 188.194 48.4354C189.238 48.4354 190.232 48.4354 191.276 48.4354C191.027 45.213 191.226 41.9905 191.127 38.768ZM186.205 46.4028C184.863 46.9481 184.117 45.3617 184.366 44.271C184.415 42.5358 186.503 42.4862 187.696 41.8913C187.597 43.4282 188.293 45.8575 186.205 46.4028Z" fill="black"/>
</g>
</g>
<defs>
<clipPath id="clip0_2130_1406">
<rect width="173" height="41" fill="white" transform="translate(24.1418 17.5)"/>
</clipPath>
</defs>
</svg>
