<svg width="91" height="60" viewBox="0 0 91 60" fill="none" xmlns="http://www.w3.org/2000/svg">
<g clip-path="url(#clip0_2130_1376)">
<path d="M85.9772 57.7807V50.0439H84.3279V59.3172H91.0102V57.7851L85.9772 57.7807ZM81.1346 59.3128H82.8111L79.7776 50.0439H77.963L74.823 59.3172H76.393C77.5368 55.7959 77.4802 55.9837 78.785 52.0593C79.9635 55.6301 80.1234 56.1683 81.1346 59.3128ZM15.2787 59.3128H16.9553L13.9229 50.0439H12.1398L8.97365 59.3172H10.5437C11.7147 55.7959 11.6309 55.9837 12.965 52.0593C14.1077 55.6301 14.2676 56.1683 15.2787 59.3128ZM67.9101 53.8299V51.5233H70.6783C71.4502 51.5233 72.0917 51.765 72.0917 52.6525C72.0917 53.5399 71.5329 53.8607 70.7076 53.8607L67.9134 53.8343L67.9101 53.8299ZM67.9101 57.8345V55.3083H70.9436C71.7688 55.3083 72.3277 55.7114 72.3277 56.5988C72.3277 57.4588 71.6894 57.807 70.9142 57.807L67.9101 57.8345ZM72.3005 54.5548C72.7282 54.4662 73.1096 54.224 73.3739 53.8729C73.6382 53.5219 73.7675 53.0859 73.7379 52.6459C73.7379 50.7907 72.3244 50.0384 70.7577 50.0384H66.2879V59.3117H70.9979C72.8072 59.3117 74.0314 58.5594 74.0314 56.7043C74.0675 56.1908 73.9086 55.6828 73.5871 55.2835C73.2655 54.8842 72.8055 54.6236 72.3005 54.5548ZM59.848 51.3828C61.6311 51.3828 62.6151 52.6733 62.6151 54.6086C62.6151 56.9152 61.7105 57.9421 59.848 57.9421C58.0649 57.9421 57.107 56.7054 57.107 54.6624C57.0809 52.7271 58.066 51.3828 59.848 51.3828ZM55.2978 54.6624C55.2511 55.2916 55.3357 55.9236 55.5463 56.5176C55.7568 57.1116 56.0886 57.6542 56.5201 58.1104C56.9515 58.5665 57.4731 58.926 58.0509 59.1655C58.6287 59.405 59.2498 59.5192 59.8741 59.5007C62.8271 59.5007 64.371 57.4852 64.371 54.6624C64.3921 54.0472 64.2904 53.4341 64.0719 52.8595C63.8534 52.2849 63.5226 51.7606 63.0993 51.3178C62.6759 50.8751 62.1687 50.523 61.6078 50.2826C61.0469 50.0421 60.4438 49.9182 59.8344 49.9182C59.2251 49.9182 58.622 50.0421 58.0611 50.2826C57.5001 50.523 56.9929 50.8751 56.5695 51.3178C56.1462 51.7606 55.8154 52.2849 55.5969 52.8595C55.3784 53.4341 55.2767 54.0472 55.2978 54.6624ZM49.3374 57.7807V50.0439H47.688V59.3172H54.3693V57.7851L49.3374 57.7807ZM44.362 58.2914L44.735 59.4205H45.533V54.2868H42.0212V55.685H43.9902V56.0079C43.9902 57.0832 43.2182 57.9432 41.6482 57.9432C39.5998 57.9432 38.9072 56.6801 38.9072 54.6097C38.9072 52.6744 39.7053 51.33 41.6482 51.33C42.1746 51.2713 42.7048 51.4003 43.147 51.6948C43.5892 51.9892 43.9155 52.4306 44.0696 52.9424L45.533 52.1362C45.2098 51.3921 44.6635 50.7693 43.9712 50.3555C43.2789 49.9417 42.4756 49.7578 41.6743 49.8297C41.0524 49.798 40.4311 49.9017 39.8522 50.1335C39.2734 50.3654 38.7506 50.7201 38.3192 51.1737C37.8878 51.6273 37.5579 52.1692 37.3517 52.7628C37.1455 53.3563 37.0679 53.9877 37.1241 54.6141C37.1241 57.4369 38.5082 59.4524 41.5145 59.4524C42.0466 59.5118 42.5851 59.4374 43.0819 59.2358C43.5787 59.0342 44.0185 58.7117 44.362 58.2969V58.2914ZM32.4684 53.8024H29.1957V50.0439H27.5464V59.3172H29.1957V55.339H32.4684V53.8024ZM33.5329 57.6467V59.3128H35.1822V50.0439H33.5329V51.1993H33.559L33.5329 57.6467ZM21.7186 49.878C19.4353 49.878 18.2067 50.9533 18.2067 52.5932C18.2067 54.6361 19.7496 55.0392 21.586 55.3621C23.3952 55.6576 24.1399 55.8454 24.1399 56.8141C24.1399 57.6203 23.4484 57.997 22.1448 57.997C21.5785 58.0738 21.0031 57.9567 20.5104 57.6645C20.0177 57.3722 19.6362 56.9216 19.4266 56.3847L17.9371 57.0569C18.3894 58.5352 19.7463 59.5029 22.0611 59.5029C24.3444 59.5029 25.8394 58.723 25.8394 56.8152C25.8394 54.6646 24.3759 54.1001 22.1937 53.7508C20.5976 53.4817 19.8518 53.4015 19.8518 52.4877C19.8518 51.7079 20.3834 51.3586 21.7143 51.3586C22.226 51.3257 22.7356 51.4492 23.1769 51.7129C23.6183 51.9765 23.9708 52.3682 24.1889 52.837L25.573 51.9495C25.2105 51.2533 24.6491 50.6835 23.9616 50.314C23.2742 49.9446 22.4927 49.7927 21.7186 49.878ZM4.92901 53.8024H1.68243V50.0439H0.00585938V59.3172H1.68243V55.339H4.92901V53.8068V53.8024ZM5.99345 55.3346V59.3128H7.64283V50.0439H5.99235L5.99345 55.3346Z" fill="black"/>
<path d="M66.4717 15.8488L69.877 21.7887L63.5969 32.782L57.6898 43.1307H51.0379L55.774 34.6372H55.7479L66.4706 15.8488H66.4717ZM50.5867 19.4734H43.6684L48.6437 10.7646L54.5237 0.496094H47.0215L43.8282 6.11414H39.1182L36.2706 11.1665H40.9002L27.9682 33.7991L31.7204 40.3574L40.7447 24.5796H47.6619L42.0473 34.4175L37.0719 43.1263H43.9902L46.9704 37.885H51.7598L54.6607 32.7513C53.0374 32.7513 51.388 32.7249 49.8973 32.7249L63.0152 9.76944L59.5566 3.72194L50.5867 19.4734ZM34.0102 11.1676L24.5379 27.7527L21.1326 21.8128L27.2213 11.1687L27.2474 11.1424L27.2735 11.116L33.3404 0.498289H40.125L37.3579 5.33651L34.0102 11.1676Z" fill="black"/>
</g>
<defs>
<clipPath id="clip0_2130_1376">
<rect width="91" height="59" fill="white" transform="translate(0.00585938 0.5)"/>
</clipPath>
</defs>
</svg>
