<svg width="195" height="76" viewBox="0 0 195 76" fill="none" xmlns="http://www.w3.org/2000/svg">
<g opacity="0.8">
<g clip-path="url(#clip0_2130_1507)">
<path d="M44.5925 17H46.9897C52.1539 17.3223 57.1899 19.4956 60.8399 23.1388C65.7181 27.9444 68.0462 35.2114 66.6503 41.907C65.6096 47.6112 62.004 52.7928 57.0173 55.8158C52.879 58.4042 47.7937 59.4102 42.9599 58.7412C36.5329 57.9793 30.6288 53.9991 27.4572 48.4365C25.7901 45.6381 24.922 42.4393 24.6458 39.216V36.8181C24.9516 32.2958 26.6828 27.876 29.6472 24.4184C33.3318 20.0523 38.8808 17.3809 44.5925 17ZM33.0408 31.0309C41.564 31.0358 50.0872 31.0309 58.6055 31.0358C58.576 29.7953 58.7289 28.5305 58.4773 27.3095C58.0926 25.9567 56.6375 25.1753 55.2712 25.3023C48.6519 25.356 42.0276 25.234 35.4133 25.3658C32.7103 25.8493 32.9076 28.9602 33.0408 31.0309ZM33.0408 33.0577C33.0555 37.9902 33.0112 42.9277 33.0555 47.8602C33.0457 49.3595 34.4218 50.683 35.941 50.6195C42.5603 50.6293 49.1797 50.6391 55.799 50.6147C57.1406 50.6391 58.3836 49.6037 58.5562 48.2851C58.6894 46.2535 58.571 44.217 58.6055 42.1853C57.2245 42.1853 55.8483 42.1853 54.4722 42.1902C52.4252 46.3756 47.1426 48.583 42.7133 46.986C39.5466 45.98 37.2432 43.2158 36.38 40.0902C43.7885 40.0756 51.197 40.0853 58.6055 40.0853C58.6055 37.7412 58.6055 35.4019 58.6055 33.0577C50.0823 33.0577 41.564 33.0577 33.0408 33.0577ZM39.6009 42.2098C41.0757 44.1437 43.4087 45.4819 45.8897 45.433C48.3362 45.4477 50.5756 44.0753 52.0503 42.2147C47.9022 42.1658 43.754 42.1756 39.6009 42.2098Z" fill="black"/>
<path d="M150.196 24.3789C152.243 24.3789 154.29 24.3789 156.342 24.3789C156.342 29.3408 156.342 34.3026 156.342 39.2694C158.463 37.1547 160.381 34.8545 162.502 32.7447C164.929 32.4566 167.4 32.7154 169.842 32.6226C167.538 35.0889 165.245 37.565 162.921 40.0117C165.427 43.5573 167.923 47.1126 170.429 50.6582C168.036 50.6045 165.644 50.7315 163.252 50.6094C161.54 48.7633 160.342 46.4582 158.793 44.4608C157.974 45.3154 157.165 46.1798 156.342 47.0296C156.342 48.2359 156.342 49.4422 156.342 50.6533C154.29 50.6533 152.243 50.6533 150.196 50.6533C150.196 41.8919 150.196 33.1354 150.196 24.3789Z" fill="black"/>
<path d="M75.4497 25.3027C77.0281 25.3027 78.6065 25.3027 80.1799 25.3027C83.1048 29.8641 86.2172 34.3034 89.2112 38.8209C92.2644 34.3279 95.2485 29.7909 98.2967 25.3027C99.8505 25.3027 101.404 25.3027 102.958 25.3027C102.953 33.7516 102.953 42.2004 102.953 50.6541C100.832 50.6541 98.7111 50.6541 96.595 50.6541C96.5901 46.459 96.6049 42.2688 96.5802 38.0737C94.6911 40.9551 92.8119 43.8462 90.9375 46.7374C89.7883 46.7325 88.644 46.7374 87.4947 46.7423C85.6154 43.8462 83.7658 40.9258 81.8224 38.0688C81.7879 42.2639 81.8027 46.459 81.8175 50.6492C79.6965 50.6541 77.5707 50.6492 75.4497 50.6541C75.4497 42.2004 75.4497 33.7516 75.4497 25.3027Z" fill="black"/>
<path d="M109.281 34.84C112.098 31.8121 116.976 31.5289 120.488 33.4872L120.424 32.6033C122.476 32.6033 124.528 32.5984 126.579 32.6033C126.575 38.62 126.575 44.6368 126.579 50.6486C124.533 50.6535 122.49 50.6486 120.444 50.6535V49.75C117.272 51.4496 113.035 51.4642 110.164 49.1542C105.705 45.8528 105.316 38.664 109.281 34.84ZM115.644 37.2965C113.982 37.7458 112.719 39.2403 112.532 40.93C111.984 43.6649 114.505 46.5219 117.366 46.0384C118.712 45.8333 120.71 45.1056 120.444 43.411C120.37 41.8189 120.646 40.1584 120.256 38.6054C119.117 37.4479 117.233 36.73 115.644 37.2965Z" fill="black"/>
<path d="M131.571 34.4352C134.082 31.925 138.047 31.9054 141.327 32.5012C144.178 33.0385 146.679 35.4168 146.699 38.4008C144.948 38.4154 143.202 38.4057 141.451 38.4008C140.696 36.1103 137.658 35.915 135.887 37.1261C136.069 37.7561 136.045 38.5815 136.829 38.7964C139.473 39.6559 142.501 39.3678 144.854 41.0282C147.582 42.845 147.503 47.2843 145.017 49.2719C143.078 50.8005 140.489 51.2596 138.072 51.245C135.527 51.1473 132.75 50.4978 131.009 48.5247C129.963 47.4015 129.618 45.8729 129.302 44.4273C131.083 44.3931 132.858 44.3931 134.639 44.4273C135.418 47.0352 139.734 47.8019 141.061 45.2966C138.787 43.3333 135.354 44.2905 132.834 42.7424C129.726 41.3017 129.193 36.7647 131.571 34.4352Z" fill="black"/>
<path d="M36.3406 38.1315C36.8733 36.6859 37.8055 35.128 39.5023 34.8936C41.7465 34.2831 43.9464 35.9582 44.4298 38.1071C43.8921 38.1217 42.8169 38.1461 42.2842 38.1608C41.934 37.7457 41.5838 37.3257 41.2385 36.9057C40.1139 36.7641 39.1077 37.1792 38.4911 38.1266C37.7759 38.1315 37.0558 38.1364 36.3406 38.1315Z" fill="black"/>
<path d="M47.2412 38.1176C47.7246 35.9444 49.9688 34.2644 52.2279 34.9042C53.9148 35.1435 54.778 36.7258 55.3649 38.1323C54.63 38.1372 53.8951 38.1372 53.1601 38.1323C52.3463 36.5158 50.176 36.5988 49.3227 38.1323C48.8048 38.1274 47.7591 38.1225 47.2412 38.1176Z" fill="black"/>
</g>
</g>
<defs>
<clipPath id="clip0_2130_1507">
<rect width="146" height="42" fill="white" transform="translate(24.6458 17)"/>
</clipPath>
</defs>
</svg>
