<svg width="219" height="76" viewBox="0 0 219 76" fill="none" xmlns="http://www.w3.org/2000/svg">
<g opacity="0.8">
<g clip-path="url(#clip0_2130_1447)">
<path d="M50.4897 21.4586C48.6074 21.4559 46.801 22.2009 45.4678 23.5296C44.1345 24.8584 43.3835 26.6622 43.3797 28.5446V36.4016C42.6477 36.4506 41.8988 36.4826 41.1228 36.4826C40.3468 36.4826 39.6017 36.5136 38.8657 36.5576V28.5446C38.8657 26.6589 38.1167 24.8504 36.7833 23.517C35.4499 22.1837 33.6414 21.4346 31.7558 21.4346C29.8701 21.4346 28.0616 22.1837 26.7282 23.517C25.3948 24.8504 24.6458 26.6589 24.6458 28.5446V47.3236C24.6458 49.2093 25.3948 51.0177 26.7282 52.3511C28.0616 53.6845 29.8701 54.4336 31.7558 54.4336C33.6414 54.4336 35.4499 53.6845 36.7833 52.3511C38.1167 51.0177 38.8657 49.2093 38.8657 47.3236V39.4646C39.5977 39.4156 40.3468 39.3836 41.1228 39.3836C41.8988 39.3836 42.6437 39.3526 43.3797 39.3086V47.3216C43.3797 49.2073 44.1288 51.0157 45.4622 52.3491C46.7956 53.6825 48.6041 54.4316 50.4897 54.4316C52.3754 54.4316 54.1839 53.6825 55.5173 52.3491C56.8507 51.0157 57.5998 49.2073 57.5998 47.3216V28.5446C57.596 26.6626 56.8453 24.859 55.5124 23.5303C54.1796 22.2016 52.3738 21.4564 50.4918 21.4586H50.4897ZM31.7508 24.3646C32.8622 24.363 33.9288 24.8026 34.7164 25.587C35.5039 26.3713 35.9478 27.4361 35.9508 28.5476V36.8646C33.8708 37.166 31.8396 37.7403 29.9098 38.5726C29.0736 38.94 28.2865 39.4103 27.5668 39.9726V28.5446C27.5704 27.4364 28.0126 26.3748 28.7965 25.5915C29.5805 24.8083 30.6426 24.3672 31.7508 24.3646ZM35.9508 47.3266C35.9035 48.4077 35.4408 49.4289 34.6591 50.1773C33.8773 50.9256 32.8369 51.3433 31.7547 51.3433C30.6726 51.3433 29.6322 50.9256 28.8504 50.1773C28.0687 49.4289 27.606 48.4077 27.5588 47.3266V45.4396C27.5588 43.7756 28.8767 42.1996 31.0868 41.2176C32.6437 40.5464 34.2773 40.0691 35.9508 39.7966V47.3266ZM50.4897 51.5096C49.3783 51.5112 48.3117 51.0715 47.5242 50.2872C46.7366 49.5029 46.2927 48.438 46.2898 47.3266V39.0066C48.3697 38.7052 50.4009 38.1309 52.3308 37.2986C53.1669 36.9311 53.954 36.4608 54.6738 35.8986V47.3236C54.6709 48.4323 54.2291 49.4947 53.445 50.2785C52.661 51.0624 51.5984 51.5039 50.4897 51.5066V51.5096ZM51.1578 34.6416C49.6009 35.3135 47.9673 35.7914 46.2938 36.0646V28.5446C46.341 27.4634 46.8037 26.4422 47.5854 25.6939C48.3672 24.9455 49.4076 24.5278 50.4897 24.5278C51.5719 24.5278 52.6124 24.9455 53.3941 25.6939C54.1758 26.4422 54.6385 27.4634 54.6858 28.5446V30.4286C54.6858 32.0856 53.3678 33.6646 51.1588 34.6396L51.1578 34.6416Z" fill="black"/>
<path d="M152.632 32.8457C151.045 32.8469 149.493 33.3186 148.174 34.2012C146.855 35.0838 145.827 36.3377 145.22 37.8044C144.614 39.271 144.455 40.8847 144.766 42.4413C145.076 43.9979 145.84 45.4276 146.963 46.5497C148.086 47.6718 149.516 48.436 151.072 48.7455C152.629 49.0551 154.243 48.8962 155.709 48.289C157.175 47.6817 158.429 46.6533 159.311 45.3338C160.193 44.0143 160.664 42.4629 160.665 40.8757C160.665 39.8209 160.457 38.7764 160.054 37.8019C159.65 36.8274 159.058 35.942 158.312 35.1963C157.566 34.4506 156.68 33.8591 155.706 33.4558C154.731 33.0525 153.687 32.8452 152.632 32.8457ZM158.049 40.8727C158.047 42.3102 157.475 43.6883 156.458 44.7041C155.441 45.7198 154.062 46.2899 152.624 46.2892C151.187 46.2885 149.808 45.7169 148.792 44.7002C147.776 43.6834 147.205 42.3047 147.205 40.8672C147.205 39.4297 147.776 38.051 148.792 37.0342C149.808 36.0175 151.187 35.4459 152.624 35.4452C154.062 35.4445 155.441 36.0146 156.458 37.0304C157.475 38.0461 158.047 39.4242 158.049 40.8617V40.8727Z" fill="black"/>
<path d="M104.368 32.9028C104.023 32.9028 103.692 33.0398 103.449 33.2836C103.205 33.5274 103.068 33.858 103.068 34.2028V34.9678C101.921 33.91 100.491 33.2093 98.9525 32.9513C97.4139 32.6934 95.8335 32.8893 94.4045 33.5152C92.9756 34.1412 91.7599 35.1699 90.9063 36.4757C90.0527 37.7815 89.5981 39.3078 89.5981 40.8678C89.5981 42.4279 90.0527 43.9541 90.9063 45.2599C91.7599 46.5657 92.9756 47.5945 94.4045 48.2204C95.8335 48.8463 97.4139 49.0423 98.9525 48.7843C100.491 48.5263 101.921 47.8256 103.068 46.7678V47.5238C103.068 47.8686 103.205 48.1993 103.449 48.4431C103.692 48.6869 104.023 48.8238 104.368 48.8238C104.713 48.8238 105.043 48.6869 105.287 48.4431C105.531 48.1993 105.668 47.8686 105.668 47.5238V34.2038C105.668 34.033 105.634 33.8639 105.569 33.706C105.504 33.5482 105.408 33.4048 105.287 33.2839C105.167 33.1631 105.023 33.0673 104.866 33.0019C104.708 32.9365 104.539 32.9028 104.368 32.9028ZM103.068 40.8738C103.067 42.312 102.496 43.6911 101.478 44.7079C100.461 45.7247 99.082 46.2958 97.6438 46.2958C96.5708 46.2962 95.5218 45.9785 94.6294 45.3828C93.7369 44.7871 93.0412 43.9401 92.63 42.949C92.2188 41.958 92.1107 40.8672 92.3194 39.8147C92.528 38.7622 93.0441 37.7952 93.8022 37.0359C94.5604 36.2766 95.5266 35.7592 96.5788 35.549C97.631 35.3388 98.7219 35.4452 99.7136 35.8549C100.705 36.2646 101.553 36.9592 102.15 37.8507C102.747 38.7423 103.067 39.7908 103.068 40.8638V40.8738Z" fill="black"/>
<path d="M118.345 34.1537C118.345 34.4985 118.208 34.8292 117.964 35.073C117.72 35.3168 117.39 35.4537 117.045 35.4537H116.877C115.44 35.4535 114.061 36.0236 113.044 37.0389C112.027 38.0542 111.455 39.4317 111.453 40.8687C111.385 41.1357 111.413 45.2627 111.435 47.7047C111.413 47.8744 111.357 48.0379 111.271 48.1859C111.185 48.3339 111.071 48.4634 110.935 48.5669C110.798 48.6705 110.643 48.7459 110.477 48.789C110.312 48.832 110.139 48.8418 109.97 48.8177H109.948C109.634 48.7607 109.351 48.5938 109.15 48.3469C108.948 48.1 108.841 47.7894 108.848 47.4707V34.2037C108.848 33.8589 108.985 33.5283 109.229 33.2845C109.472 33.0407 109.803 32.9037 110.148 32.9037H110.218C110.559 32.9343 110.875 33.093 111.103 33.3479C111.332 33.6027 111.455 33.9347 111.448 34.2767V34.9687C112.924 33.6035 114.861 32.8451 116.872 32.8447H117.04C117.385 32.8447 117.715 32.9817 117.959 33.2255C118.203 33.4693 118.34 33.7999 118.34 34.1447L118.345 34.1537Z" fill="black"/>
<path d="M176.14 39.5833V47.5433C176.14 47.8881 176.003 48.2188 175.759 48.4625C175.515 48.7063 175.185 48.8433 174.84 48.8433C174.495 48.8433 174.164 48.7063 173.921 48.4625C173.677 48.2188 173.54 47.8881 173.54 47.5433V46.2433V39.5833C173.538 38.5053 173.108 37.4722 172.344 36.7109C171.581 35.9497 170.547 35.5225 169.469 35.5233C169.376 35.5215 169.283 35.5252 169.191 35.5343C168.148 35.628 167.18 36.1119 166.479 36.8892C165.778 37.6665 165.397 38.6798 165.411 39.7263V41.3083V46.2513V47.5513C165.411 47.8961 165.274 48.2268 165.03 48.4706C164.786 48.7144 164.456 48.8513 164.111 48.8513C163.766 48.8513 163.435 48.7144 163.192 48.4706C162.948 48.2268 162.811 47.8961 162.811 47.5513V34.2123C162.811 33.8675 162.948 33.5369 163.192 33.2931C163.435 33.0493 163.766 32.9123 164.111 32.9123C164.456 32.9123 164.786 33.0493 165.03 33.2931C165.274 33.5369 165.411 33.8675 165.411 34.2123V34.3353C166.475 33.4801 167.783 32.9847 169.147 32.9203C170.911 32.8327 172.638 33.4494 173.948 34.6348C175.257 35.8201 176.043 37.4771 176.131 39.2413C176.136 39.3523 176.14 39.4603 176.14 39.5833Z" fill="black"/>
<path d="M87.1107 28.219V47.651C87.1107 47.9909 86.9757 48.3168 86.7354 48.5572C86.495 48.7975 86.1691 48.9325 85.8292 48.9325C85.4893 48.9325 85.1634 48.7975 84.923 48.5572C84.6827 48.3168 84.5477 47.9909 84.5477 47.651V38.88H71.1477V47.667C71.1477 48.0069 71.0127 48.3328 70.7724 48.5732C70.532 48.8135 70.2061 48.9485 69.8662 48.9485C69.5263 48.9485 69.2004 48.8135 68.9601 48.5732C68.7197 48.3328 68.5847 48.0069 68.5847 47.667V28.219C68.5847 27.8791 68.7197 27.5532 68.9601 27.3128C69.2004 27.0725 69.5263 26.9375 69.8662 26.9375C70.2061 26.9375 70.532 27.0725 70.7724 27.3128C71.0127 27.5532 71.1477 27.8791 71.1477 28.219V36.653H84.5317V28.219C84.5317 27.8791 84.6667 27.5532 84.907 27.3128C85.1474 27.0725 85.4733 26.9375 85.8132 26.9375C86.1531 26.9375 86.479 27.0725 86.7194 27.3128C86.9597 27.5532 87.0947 27.8791 87.0947 28.219H87.1107Z" fill="black"/>
<path d="M142.663 40.1887V47.5317C142.663 47.8765 142.526 48.2071 142.282 48.4509C142.038 48.6947 141.707 48.8317 141.363 48.8317C141.018 48.8317 140.687 48.6947 140.443 48.4509C140.2 48.2071 140.063 47.8765 140.063 47.5317V40.8407V39.0817C140.076 38.6034 139.995 38.1273 139.823 37.6807C139.652 37.234 139.394 36.8255 139.065 36.4788C138.735 36.1321 138.34 35.8539 137.903 35.6602C137.465 35.4665 136.994 35.3611 136.516 35.3501C136.037 35.3391 135.562 35.4227 135.116 35.5961C134.67 35.7695 134.263 36.0292 133.917 36.3604C133.572 36.6917 133.296 37.0878 133.104 37.5261C132.913 37.9645 132.809 38.4364 132.801 38.9147V39.0817V47.5317C132.801 47.8765 132.664 48.2071 132.42 48.4509C132.176 48.6947 131.845 48.8317 131.501 48.8317C131.156 48.8317 130.825 48.6947 130.581 48.4509C130.338 48.2071 130.201 47.8765 130.201 47.5317V40.8407V39.0817C130.214 38.6034 130.133 38.1273 129.961 37.6807C129.79 37.234 129.532 36.8255 129.203 36.4788C128.873 36.1321 128.478 35.8539 128.041 35.6602C127.603 35.4665 127.132 35.3611 126.654 35.3501C126.175 35.3391 125.7 35.4227 125.254 35.5961C124.808 35.7695 124.401 36.0292 124.055 36.3604C123.71 36.6917 123.434 37.0878 123.242 37.5261C123.051 37.9645 122.947 38.4364 122.939 38.9147V47.5317C122.939 47.8765 122.802 48.2071 122.558 48.4509C122.314 48.6947 121.983 48.8317 121.639 48.8317C121.294 48.8317 120.963 48.6947 120.719 48.4509C120.476 48.2071 120.339 47.8765 120.339 47.5317V34.2117C120.342 33.8851 120.468 33.5718 120.692 33.334C120.916 33.0963 121.221 32.9514 121.547 32.9284C121.873 32.9053 122.195 33.0057 122.45 33.2096C122.705 33.4134 122.874 33.7059 122.924 34.0287C124.236 33.0811 125.866 32.6821 127.467 32.9162C129.069 33.1503 130.516 33.9991 131.503 35.2827C132.294 34.2481 133.391 33.4879 134.637 33.1094C135.884 32.7308 137.217 32.753 138.451 33.1726C139.684 33.5923 140.754 34.3883 141.511 35.4486C142.268 36.5089 142.673 37.78 142.67 39.0827L142.663 40.1887Z" fill="black"/>
<path d="M192.015 34.7794L183.244 53.7524C183.077 54.0341 182.812 54.2439 182.499 54.3414C182.187 54.4389 181.85 54.4172 181.552 54.2804C181.255 54.1436 181.019 53.9015 180.89 53.6008C180.76 53.3002 180.747 52.9623 180.853 52.6524L183.215 47.5484L177.309 34.7854C177.213 34.6358 177.149 34.4684 177.12 34.2934C177.09 34.1184 177.096 33.9392 177.138 33.7666C177.179 33.5939 177.254 33.4314 177.36 33.2885C177.465 33.1456 177.598 33.0254 177.75 32.9349C177.903 32.8444 178.073 32.7856 178.248 32.7619C178.424 32.7382 178.603 32.75 178.774 32.7968C178.946 32.8436 179.106 32.9244 179.245 33.0342C179.384 33.1441 179.5 33.2809 179.586 33.4364C179.632 33.5133 179.67 33.5947 179.7 33.6794L184.666 44.4124L189.631 33.6794C189.689 33.5028 189.785 33.3405 189.91 33.2031C190.036 33.0658 190.189 32.9565 190.36 32.8824C190.531 32.8083 190.715 32.771 190.902 32.7731C191.088 32.7751 191.271 32.8164 191.44 32.8942C191.61 32.972 191.76 33.0846 191.883 33.2246C192.006 33.3647 192.098 33.529 192.152 33.7069C192.207 33.8848 192.224 34.0723 192.201 34.2571C192.179 34.4419 192.118 34.6199 192.022 34.7794H192.015Z" fill="black"/>
</g>
</g>
<defs>
<clipPath id="clip0_2130_1447">
<rect width="169.642" height="55.744" fill="white" transform="translate(24.6458 10.1279)"/>
</clipPath>
</defs>
</svg>
