<svg width="281" height="76" viewBox="0 0 281 76" fill="none" xmlns="http://www.w3.org/2000/svg">
<g opacity="0.8">
<g clip-path="url(#clip0_2130_1356)">
<path fill-rule="evenodd" clip-rule="evenodd" d="M170.237 28.8633C171.82 28.8633 172.683 29.5823 172.683 31.0213C172.724 31.3121 172.693 31.6086 172.592 31.8846C172.492 32.1607 172.325 32.4078 172.107 32.6043C171.852 32.8242 171.554 32.9888 171.232 33.088C170.91 33.1871 170.571 33.2185 170.236 33.1803C168.653 33.1803 167.79 32.4613 167.79 31.0223C167.79 29.5833 168.654 28.8633 170.237 28.8633Z" fill="black"/>
<path fill-rule="evenodd" clip-rule="evenodd" d="M204.053 35.0505C204.953 35.0062 205.849 35.1946 206.654 35.5975C207.46 36.0004 208.148 36.6041 208.653 37.3505C209.901 39.2173 210.507 41.4396 210.38 43.6815C210.386 45.2433 210.143 46.796 209.661 48.2815C209.183 49.4413 208.445 50.4754 207.503 51.3035C206.489 52.0009 205.278 52.354 204.049 52.3105C203.165 52.3494 202.284 52.1734 201.483 51.7976C200.682 51.4217 199.984 50.8573 199.449 50.1525H199.161C199.305 51.5915 199.449 52.3105 199.449 52.5985V59.3615H194.988V35.3385H198.729L199.305 37.4965H199.449C199.909 36.6978 200.585 36.0447 201.399 35.6122C202.214 35.1796 203.133 34.985 204.053 35.0505ZM202.614 38.6505C202.155 38.6022 201.692 38.6682 201.265 38.8427C200.838 39.0172 200.461 39.2947 200.168 39.6505C199.592 40.3695 199.449 41.5215 199.305 43.1045V43.5365C199.214 44.8875 199.514 46.236 200.168 47.4215C200.461 47.7871 200.834 48.0808 201.258 48.2803C201.681 48.4798 202.145 48.5798 202.614 48.5725C204.629 48.5725 205.636 46.8455 205.636 43.5365C205.678 42.2515 205.433 40.9733 204.917 39.7955C204.677 39.4103 204.334 39.0993 203.928 38.8971C203.522 38.695 203.067 38.6096 202.615 38.6505H202.614Z" fill="black"/>
<path fill-rule="evenodd" clip-rule="evenodd" d="M221.175 35.051C222.633 34.9901 224.078 35.339 225.348 36.058C226.54 36.77 227.492 37.8225 228.082 39.08C228.8 40.5037 229.147 42.0862 229.089 43.68C229.221 45.9908 228.447 48.262 226.931 50.011C226.171 50.796 225.25 51.4078 224.232 51.8047C223.214 52.2016 222.122 52.3743 221.031 52.311C219.573 52.3718 218.127 52.0229 216.858 51.304C215.657 50.5578 214.667 49.5177 213.98 48.282C213.261 46.8582 212.915 45.2757 212.973 43.682C212.841 41.3712 213.615 39.0999 215.131 37.351C215.92 36.5639 216.866 35.9521 217.907 35.5558C218.949 35.1595 220.062 34.9874 221.175 35.051ZM221.175 38.651C220.667 38.622 220.161 38.7268 219.706 38.9549C219.252 39.1831 218.865 39.5265 218.585 39.951C217.929 41.0833 217.628 42.3867 217.722 43.692C217.647 44.9957 217.947 46.2936 218.585 47.433C218.886 47.835 219.278 48.1612 219.727 48.3859C220.177 48.6106 220.672 48.7276 221.175 48.7276C221.677 48.7276 222.173 48.6106 222.623 48.3859C223.072 48.1612 223.463 47.835 223.765 47.433C224.421 46.3006 224.722 44.9973 224.628 43.692C224.702 42.3882 224.403 41.0903 223.765 39.951C223.485 39.5265 223.098 39.1831 222.644 38.9549C222.189 38.7268 221.683 38.622 221.175 38.651Z" fill="black"/>
<path fill-rule="evenodd" clip-rule="evenodd" d="M130.089 34.9069C131.928 34.7908 133.753 35.2978 135.269 36.3459C135.872 36.9134 136.339 37.6086 136.638 38.3806C136.937 39.1525 137.059 39.9816 136.996 40.8069V51.8869H133.831L132.968 49.5869H132.824C132.21 50.415 131.426 51.1021 130.524 51.6019C129.528 52.0399 128.444 52.2372 127.358 52.1779C126.679 52.2193 125.999 52.1258 125.357 51.9026C124.715 51.6795 124.124 51.3312 123.617 50.8779C123.129 50.3597 122.75 49.749 122.503 49.0819C122.255 48.4148 122.144 47.7048 122.175 46.9939C122.117 46.2387 122.26 45.4816 122.588 44.7991C122.917 44.1167 123.42 43.533 124.046 43.1069C125.754 42.133 127.692 41.636 129.658 41.6679L132.536 41.5239V40.8069C132.586 40.4551 132.554 40.0964 132.442 39.7592C132.329 39.422 132.14 39.1156 131.889 38.8643C131.637 38.613 131.331 38.4236 130.994 38.3113C130.656 38.1989 130.298 38.1666 129.946 38.2169C128.308 38.3203 126.701 38.7098 125.197 39.3679L123.758 36.3459C125.739 35.4145 127.899 34.9236 130.089 34.9069ZM132.535 44.2599H130.809C129.799 44.1997 128.794 44.4506 127.931 44.9789C127.618 45.2135 127.364 45.5178 127.19 45.8675C127.015 46.2173 126.924 46.6029 126.924 46.9939C126.924 48.2939 127.643 48.8649 129.082 48.8649C129.526 48.8889 129.971 48.8251 130.391 48.677C130.811 48.5289 131.197 48.2995 131.528 48.0019C132.173 47.3514 132.535 46.4722 132.535 45.5559V44.2599Z" fill="black"/>
<path fill-rule="evenodd" clip-rule="evenodd" d="M180.454 35.3389L183.62 40.6629L186.929 35.3389H192.109L186.641 43.3969L192.397 51.8869H187.217L183.617 46.2749L180.163 51.8869H174.986L180.742 43.3969L175.274 35.3389H180.454Z" fill="black"/>
<path d="M172.396 35.3389H167.935V51.8869H172.396V35.3389Z" fill="black"/>
<path fill-rule="evenodd" clip-rule="evenodd" d="M242.043 35.0508C242.575 35.0204 243.108 35.0689 243.626 35.1948L243.338 39.3678C242.915 39.2485 242.476 39.1998 242.038 39.2238C240.826 39.1557 239.636 39.5694 238.728 40.3748C238.303 40.7763 237.977 41.2717 237.777 41.8214C237.577 42.3711 237.509 42.9599 237.577 43.5408V52.0308H233.121V35.3388H236.575L237.294 38.0728H237.582C238.094 37.18 238.779 36.3982 239.597 35.7728C240.305 35.2583 241.169 35.0033 242.043 35.0508Z" fill="black"/>
<path fill-rule="evenodd" clip-rule="evenodd" d="M163.618 35.0508C164.15 35.0204 164.683 35.0689 165.201 35.1948L164.913 39.3678C164.49 39.2485 164.051 39.1998 163.613 39.2238C162.401 39.1557 161.211 39.5694 160.303 40.3748C159.878 40.7763 159.552 41.2717 159.352 41.8214C159.152 42.3711 159.084 42.9599 159.152 43.5408V52.0308H154.409V35.3388H157.863L158.582 38.0728H158.726C159.238 37.18 159.923 36.3982 160.741 35.7728C161.638 35.3316 162.619 35.0855 163.618 35.0508Z" fill="black"/>
<path fill-rule="evenodd" clip-rule="evenodd" d="M113.254 35.051C114.033 34.9882 114.817 35.0833 115.559 35.3305C116.301 35.5778 116.985 35.9721 117.571 36.49C118.578 37.497 119.01 38.936 119.01 41.09V51.887H114.41V42.246C114.491 41.2979 114.291 40.3468 113.834 39.512C113.62 39.2222 113.336 38.9911 113.009 38.8403C112.682 38.6894 112.322 38.6236 111.963 38.649C111.492 38.6259 111.023 38.7188 110.596 38.9195C110.17 39.1201 109.799 39.4225 109.517 39.8C108.861 40.9324 108.56 42.2357 108.654 43.541V51.887H104.054V42.246C104.135 41.2979 103.935 40.3468 103.478 39.512C103.263 39.2212 102.978 38.9897 102.649 38.8391C102.32 38.6885 101.958 38.6238 101.598 38.651C101.09 38.622 100.584 38.7269 100.129 38.955C99.6747 39.1831 99.288 39.5266 99.0079 39.951C98.4319 40.814 98.2889 42.251 98.2889 44.124V51.894H93.8279V35.339H97.2819L97.8579 37.497H98.1459C98.6226 36.7801 99.2642 36.1879 100.017 35.77C100.909 35.3134 101.893 35.0674 102.895 35.051C105.341 35.051 107.068 35.914 107.931 37.497H108.363C108.816 36.7072 109.528 36.0974 110.378 35.77C111.236 35.2317 112.243 34.98 113.254 35.051Z" fill="black"/>
<path fill-rule="evenodd" clip-rule="evenodd" d="M252.115 31.7412V35.3412H256.715V38.7952H252.115V46.8532C252.087 47.1218 252.125 47.393 252.226 47.6437C252.326 47.8943 252.486 48.1169 252.691 48.2922C253.113 48.5845 253.617 48.7358 254.13 48.7242C255.117 48.7154 256.093 48.52 257.008 48.1482V51.4582C255.693 52.0244 254.263 52.2708 252.835 52.1772C250.964 52.1772 249.669 51.7452 248.95 50.7382C247.989 49.57 247.522 48.0725 247.65 46.5652V38.5042H245.496V36.7772L247.942 35.3382L249.242 31.8842H252.12L252.115 31.7412Z" fill="black"/>
<path fill-rule="evenodd" clip-rule="evenodd" d="M146.35 31.7412V35.3412H150.95V38.7952H146.35V46.8532C146.322 47.1218 146.36 47.3931 146.461 47.6437C146.561 47.8944 146.721 48.1169 146.926 48.2922C147.348 48.5846 147.852 48.7358 148.365 48.7242C149.352 48.7154 150.328 48.52 151.243 48.1482V51.4582C149.928 52.0245 148.498 52.2709 147.07 52.1772C145.199 52.1772 143.904 51.7452 143.185 50.7382C142.224 49.57 141.757 48.0725 141.885 46.5652V38.5042H139.731V36.7772L142.177 35.1942L143.477 31.7402L146.35 31.7412Z" fill="black"/>
<path fill-rule="evenodd" clip-rule="evenodd" d="M61.5949 41.0943C61.7389 41.0943 61.8829 41.0943 61.8829 41.2383V46.8503C61.868 46.9595 61.8173 47.0608 61.7389 47.1383L51.8099 52.6063C51.1171 53.0288 50.3213 53.2523 49.5099 53.2523C48.6984 53.2523 47.9026 53.0288 47.2099 52.6063L37.4199 46.9943C37.2759 46.9943 37.2759 46.8503 37.2759 46.7063V41.0943C37.2759 40.9503 37.4199 40.8063 37.5639 40.9503L48.2119 46.9943C48.6103 47.2072 49.0551 47.3185 49.5069 47.3185C49.9586 47.3185 50.4034 47.2072 50.8019 46.9943L61.5949 41.0943Z" fill="black"/>
<path fill-rule="evenodd" clip-rule="evenodd" d="M74.2579 32.8921V56.9231C74.2529 56.9978 74.221 57.0683 74.168 57.1212C74.1151 57.1742 74.0446 57.2061 73.9699 57.2111H69.0769C69.0021 57.2061 68.9317 57.1742 68.8787 57.1212C68.8257 57.0683 68.7938 56.9978 68.7889 56.9231V32.8921C68.7732 32.6809 68.7046 32.477 68.5894 32.2994C68.4741 32.1217 68.3159 31.976 68.1295 31.8756C67.943 31.7752 67.7342 31.7235 67.5225 31.7251C67.3107 31.7268 67.1028 31.7818 66.9179 31.8851L51.6659 40.5181C50.9731 40.9406 50.1773 41.1642 49.3659 41.1642C48.5544 41.1642 47.7586 40.9406 47.0659 40.5181L31.8079 31.8851C31.6323 31.7825 31.4326 31.7284 31.2293 31.7283C31.0259 31.7282 30.8262 31.7822 30.6505 31.8846C30.4748 31.987 30.3295 32.1343 30.2294 32.3113C30.1293 32.4883 30.0781 32.6887 30.0809 32.8921V56.9231C30.0759 56.9978 30.044 57.0683 29.991 57.1212C29.9381 57.1742 29.8676 57.2061 29.7929 57.2111H25.1889C25.1141 57.2061 25.0437 57.1742 24.9907 57.1212C24.9377 57.0683 24.9058 56.9978 24.9009 56.9231V32.8921C24.8911 31.7593 25.1812 30.6442 25.7416 29.6597C26.3021 28.6753 27.1129 27.8566 28.0919 27.2868C29.0709 26.7169 30.1832 26.4161 31.316 26.4149C32.4488 26.4138 33.5617 26.7122 34.5419 27.2801L48.2119 35.0501C48.6103 35.263 49.0551 35.3743 49.5069 35.3743C49.9586 35.3743 50.4034 35.263 50.8019 35.0501L64.4719 27.2801C65.4573 26.687 66.5833 26.3679 67.7333 26.3558C68.8834 26.3437 70.0158 26.639 71.0136 27.2112C72.0113 27.7833 72.8381 28.6116 73.4084 29.6103C73.9788 30.6091 74.272 31.742 74.2579 32.8921Z" fill="black"/>
<path fill-rule="evenodd" clip-rule="evenodd" d="M61.5949 16.6318L50.8019 22.6758C50.4034 22.8887 49.9586 23.0001 49.5069 23.0001C49.0551 23.0001 48.6103 22.8887 48.2119 22.6758L37.5639 16.6318C37.4199 16.6318 37.2759 16.6318 37.2759 16.7758V22.3878C37.2908 22.4971 37.3414 22.5983 37.4199 22.6758L47.2049 28.2878C47.8976 28.7104 48.6934 28.9339 49.5049 28.9339C50.3163 28.9339 51.1121 28.7104 51.8049 28.2878L61.7339 22.6758C61.8779 22.6758 61.8779 22.5318 61.8779 22.3878V16.7758C61.8819 16.6318 61.7379 16.6318 61.5949 16.6318Z" fill="black"/>
</g>
</g>
<defs>
<clipPath id="clip0_2130_1356">
<rect width="232.105" height="42.737" fill="white" transform="translate(24.9009 16.6318)"/>
</clipPath>
</defs>
</svg>
