<svg width="168" height="76" viewBox="0 0 168 76" fill="none" xmlns="http://www.w3.org/2000/svg">
<g opacity="0.8">
<g clip-path="url(#clip0_2130_1481)">
<path d="M78.2472 34.794C79.7383 34.9808 81.3975 35.1053 82.7417 34.3168C84.5479 33.3207 84.6949 30.4157 83.0357 29.2329C81.5866 28.1746 79.6333 28.2368 78.1632 27.2408C77.7221 26.9296 77.3441 26.4523 77.3861 25.892C77.3441 25.1865 77.9111 24.5848 78.5622 24.3565C79.5493 24.0245 80.5994 24.1282 81.6076 24.3357C82.3006 24.481 82.9097 24.9375 83.6238 25.0205C83.6238 24.5848 83.8338 24.0245 83.4138 23.7132C82.3847 22.904 80.9985 22.6965 79.7173 22.7172C78.5412 22.7795 77.176 23.0907 76.525 24.1697C75.7899 25.394 75.8739 27.1786 76.987 28.1538C78.5202 29.3574 80.6835 29.2744 82.2376 30.4157C83.2458 31.1627 82.9097 32.885 81.7546 33.3C80.5574 33.715 79.2553 33.5075 78.0161 33.4245C77.2601 33.1755 76.546 32.8435 75.9159 32.4077C75.8109 32.802 75.6009 33.2585 75.8949 33.6112C76.462 34.2753 77.3861 34.5865 78.2472 34.794Z" fill="black"/>
<path d="M86.9632 34.6901C87.3832 34.7316 87.8033 34.7108 88.2443 34.6901C88.2443 30.8097 88.2863 26.9086 88.2233 23.0283C87.7823 22.966 86.8162 22.5925 86.9002 23.3603C86.9212 27.1369 86.8162 30.9135 86.9632 34.6901Z" fill="black"/>
<path d="M112.754 23.0903C112.292 22.9036 111.788 22.8828 111.305 23.0488C111.515 25.5804 111.431 28.112 111.452 30.6228C111.452 31.1623 111.368 31.681 111.284 32.1998C111.011 31.6603 110.654 31.1623 110.297 30.685C108.491 28.1327 106.706 25.5596 104.92 23.0073C104.521 22.9451 104.122 22.9036 103.723 22.8828C103.66 26.4312 103.723 29.9795 103.681 33.5278C103.702 33.8806 103.66 34.2334 103.765 34.5654C104.101 34.8351 104.605 34.6691 105.004 34.6899C105.067 31.6395 104.941 28.5892 104.983 25.5389C106.916 28.1327 108.743 30.7888 110.654 33.4033C110.969 33.8391 111.242 34.3164 111.662 34.6484C111.998 34.7521 112.376 34.6691 112.733 34.6691C112.775 30.8303 112.796 26.9707 112.754 23.0903Z" fill="black"/>
<path d="M119.811 34.8976C120.714 34.9184 121.68 34.9806 122.52 34.6071C123.57 34.2129 124.39 33.3206 124.642 32.2208C125.02 30.54 124.831 28.8177 124.873 27.0954C124.831 25.7259 124.957 24.3563 124.768 23.0076C124.327 22.9038 123.886 22.883 123.444 22.9868C123.444 25.6014 123.444 28.2159 123.444 30.8305C123.423 32.0133 122.793 33.3413 121.512 33.5696C120.42 33.6941 119.118 33.7978 118.278 32.9471C117.543 32.2208 117.543 31.1625 117.459 30.208C117.417 27.8009 117.48 25.3939 117.438 23.0076C117.018 22.883 116.556 22.883 116.136 22.9661C116.136 25.3731 116.136 27.8009 116.136 30.208C116.115 31.2455 116.199 32.3246 116.745 33.2376C117.375 34.3166 118.593 34.8769 119.811 34.8976Z" fill="black"/>
<path d="M134.828 33.6324C135.332 32.4911 135.731 31.3291 136.172 30.1671C136.76 28.5485 137.495 26.9922 137.936 25.3322C138.377 28.3618 138.503 31.4328 138.902 34.4624C139.154 34.9397 139.868 34.6492 140.309 34.6699C139.868 30.7896 139.385 26.93 139.028 23.0496C138.503 22.8836 137.957 22.8629 137.453 23.0911C136.928 24.5229 136.34 25.9547 135.836 27.4072C135.269 29.0258 134.534 30.6028 134.093 32.2629C132.665 29.1918 131.572 25.9962 130.186 22.9044C129.64 22.9044 128.758 22.8836 128.695 23.6099C128.338 27.3035 128.086 31.0178 127.876 34.7322C128.296 34.7322 128.716 34.7322 129.136 34.7114C129.472 33.1759 129.262 31.5988 129.493 30.0425C129.556 28.4655 129.64 26.8885 129.787 25.3114C130.879 28.0712 132.076 30.8103 133.169 33.5909C133.4 34.2549 134.597 34.3379 134.828 33.6324Z" fill="black"/>
<path d="M99.5437 34.7319C99.9007 34.7319 100.258 34.7319 100.615 34.7319C100.657 33.0303 100.636 31.308 100.636 29.6065C100.657 29.2745 100.489 28.984 100.363 28.6727C99.0606 28.652 97.7585 28.5897 96.4563 28.6935C96.0363 28.901 96.2463 29.399 96.2043 29.7517C97.3174 29.7932 98.4305 29.6895 99.5437 29.8555C99.5227 30.478 99.5647 31.1005 99.5227 31.723C98.5775 33.7773 95.5112 34.4206 93.81 32.8851C92.6969 31.8475 92.3818 30.229 92.3818 28.7765C92.4028 27.3862 92.7389 25.8506 93.831 24.8754C95.2802 23.5888 97.5904 23.6926 99.1446 24.7094C99.3756 24.8339 99.5857 25.0206 99.8587 24.9999C100.174 24.8546 100.258 24.4811 100.132 24.1698C99.7747 23.5681 99.0816 23.2568 98.4305 23.0493C96.6663 22.489 94.6081 22.5928 93.0959 23.7341C92.2558 24.3566 91.7728 25.3111 91.3947 26.2656C90.9957 27.9672 90.9326 29.7932 91.4367 31.474C91.7307 32.5531 92.3818 33.5491 93.3269 34.1716C94.4191 34.9394 95.8262 35.0846 97.1074 34.8356C98.0525 34.5866 98.7876 33.9226 99.5017 33.3001C99.5227 33.7566 99.5227 34.2339 99.5437 34.7319Z" fill="black"/>
<path d="M143.859 33.2588C143.271 33.1136 142.263 33.0721 142.41 33.9436C142.242 34.8359 143.292 34.7944 143.88 34.6491C143.922 34.1926 143.922 33.7361 143.859 33.2588Z" fill="black"/>
<path d="M79.1503 47.9916C77.7431 47.2654 77.26 45.5846 77.218 44.132C77.134 42.472 77.3441 40.563 78.7092 39.4217C79.6123 38.6332 80.8935 38.7369 82.0066 38.8199C82.9307 38.9237 83.7078 39.5047 84.3379 40.1479C84.4639 40.1064 84.7159 40.0442 84.8419 40.0234C84.8419 39.7537 84.8629 39.5047 84.8419 39.2349C84.0228 37.9484 82.4266 37.3674 80.9565 37.4089C79.3183 37.3466 77.5751 38.0936 76.756 39.5669C75.8109 41.2477 75.6849 43.2605 75.9369 45.1488C76.1679 46.4769 76.651 47.8879 77.7851 48.7179C79.3393 49.8799 81.5445 49.9215 83.2878 49.1952C84.0858 48.7802 85.136 48.2614 85.094 47.2239C84.9469 47.1409 84.6529 46.9956 84.5059 46.9126C83.2037 48.3237 80.9355 48.8009 79.1503 47.9916Z" fill="black"/>
<path d="M135.647 48.178L135.626 48.0743L135.71 48.0535C135.836 47.5763 135.773 47.099 135.794 46.6217C135.773 44.0694 135.773 41.4963 135.794 38.944C135.794 38.5705 135.752 38.1763 135.563 37.8442C135.206 37.4915 134.66 37.6367 134.219 37.6575C134.198 41.2058 134.219 44.7542 134.198 48.3025C134.198 48.676 134.261 49.0703 134.345 49.4438C135.437 49.6513 136.571 49.5476 137.684 49.5683C138.839 49.5476 140.015 49.6721 141.171 49.4438C141.318 49.0495 141.36 48.6553 141.36 48.2403C139.448 48.1573 137.537 48.2195 135.647 48.178Z" fill="black"/>
<path d="M92.1088 38.4877C91.9618 38.1765 91.8568 37.7614 91.4787 37.6162C91.0377 37.4917 90.3866 37.6162 90.2396 38.1142C88.8324 41.8701 87.2992 45.5844 85.9551 49.361C86.3961 49.3818 87.0262 49.6515 87.3202 49.1743C87.7823 48.3235 87.9713 47.3897 88.4124 46.5389C90.2396 46.5597 92.0458 46.5597 93.873 46.5389C94.2721 47.3482 94.5451 48.199 94.9231 49.0082C95.0911 49.5063 95.7422 49.5478 96.1623 49.361C96.3513 49.1328 96.1833 48.8215 96.1203 48.5725C94.7551 45.2316 93.453 41.8493 92.1088 38.4877ZM88.8324 45.3146C89.6095 43.5094 90.1766 41.6211 90.9957 39.8573C91.0377 39.8365 91.1427 39.795 91.1847 39.7743C91.9198 41.6211 92.6969 43.4679 93.3689 45.3354C91.8778 45.3354 90.3656 45.3562 88.8324 45.3146Z" fill="black"/>
<path d="M103.681 37.6782C102.988 37.5122 102.253 37.4707 101.539 37.4914C100.594 37.5122 99.6277 37.4084 98.6826 37.6159C98.6195 37.6159 98.4725 37.5952 98.3885 37.5952C98.0735 38.1347 98.1995 38.7779 98.1785 39.359C98.1995 42.2018 98.1995 45.0239 98.1785 47.8667C98.1785 48.3232 98.2415 48.7797 98.3255 49.2155C98.7456 49.5267 99.2496 49.4645 99.7537 49.4022C99.7537 47.8667 99.7537 46.3519 99.7537 44.8164C101.035 44.7749 102.316 44.9201 103.576 44.6711C104.542 44.4636 105.445 43.8411 105.844 42.9281C106.327 41.7868 106.327 40.438 105.823 39.2967C105.424 38.4252 104.563 37.8857 103.681 37.6782ZM103.24 43.4883C102.085 43.7166 100.909 43.5506 99.7327 43.5921C99.7117 41.9943 99.7537 40.3965 99.7117 38.7987C100.972 38.6949 102.253 38.6742 103.492 38.8609C104.542 39.2137 104.899 40.438 104.794 41.4133C104.878 42.3678 104.206 43.3016 103.24 43.4883Z" fill="black"/>
<path d="M121.827 38.8405C121.911 38.4463 121.974 38.0312 122.037 37.637C121.722 37.5332 121.407 37.4502 121.071 37.471C118.761 37.471 116.451 37.4917 114.14 37.471C113.594 37.471 113.069 37.5125 112.544 37.6162C112.313 37.9897 112.313 38.4255 112.355 38.8405C113.741 38.8405 115.106 38.8405 116.493 38.8613C116.535 42.3889 116.409 45.8957 116.556 49.4233C117.039 49.5478 118.026 49.6931 117.921 48.9045C117.942 46.0617 117.9 43.2396 117.942 40.3968C117.942 39.878 117.9 39.3593 117.816 38.8405C119.16 38.8613 120.504 38.8405 121.827 38.8405Z" fill="black"/>
<path d="M127.141 37.6572C126.637 37.429 125.881 37.595 125.776 38.2175C124.327 41.9111 122.919 45.6462 121.47 49.3398C121.911 49.4435 122.352 49.4643 122.772 49.3813C123.15 48.4268 123.528 47.4722 123.928 46.5385C125.755 46.5385 127.561 46.5592 129.388 46.5177C129.85 47.4722 130.186 48.4683 130.669 49.402C131.089 49.4435 131.53 49.4435 131.908 49.2153C130.564 45.8537 129.241 42.4713 127.897 39.1098C127.666 38.6325 127.603 38.01 127.141 37.6572ZM128.905 45.3142C127.414 45.3349 125.902 45.3349 124.411 45.3142C125.062 43.3636 125.944 41.4961 126.595 39.5248C127.393 41.1226 127.897 42.8449 128.632 44.4842C128.716 44.7747 128.821 45.0444 128.905 45.3142Z" fill="black"/>
<path d="M110.36 38.9442C110.36 38.55 110.318 38.1557 110.234 37.7822V37.637C109.814 37.6162 109.394 37.6162 108.995 37.6162C108.932 40.1893 108.974 42.7831 108.974 45.3562C108.995 46.705 108.911 48.0537 109.037 49.4025C109.478 49.527 109.94 49.5063 110.36 49.361C110.339 45.8749 110.339 42.4096 110.36 38.9442Z" fill="black"/>
<path d="M67.2419 31.7434C67.2419 33.0507 67.2419 34.358 67.2419 35.6653C68.586 35.6653 69.9302 35.6653 71.2533 35.6653C71.2743 34.358 71.2743 33.0507 71.2533 31.7227C69.9302 31.7434 68.586 31.7227 67.2419 31.7434Z" fill="black"/>
<path d="M68.04 37.6372C67.5569 37.6165 67.0738 37.6165 66.5908 37.6372C66.5698 38.322 66.5698 39.0068 66.5698 39.6915C66.3178 39.8368 66.1497 40.148 65.8347 40.148C64.7006 40.1895 63.5664 40.0858 62.4533 40.2933C62.4323 41.6213 62.4533 42.9701 62.4533 44.2981C63.0204 44.3811 63.5874 44.4226 64.1545 44.3811C65.0156 44.3811 65.8977 44.4641 66.7378 44.2566C66.7168 43.2606 66.7168 42.2438 66.7168 41.2478C66.6748 40.895 66.8848 40.6045 67.0318 40.314C67.7879 40.3348 68.523 40.3348 69.2791 40.314C69.3001 39.4218 69.3001 38.5502 69.2791 37.658C68.8591 37.6165 68.46 37.575 68.04 37.6372Z" fill="black"/>
<path d="M55.3755 25.5809L55.2284 25.5602C55.1864 25.747 55.1024 26.0997 55.0604 26.2865C55.1024 27.324 55.0604 28.3823 55.0814 29.4198C55.0814 29.9386 55.0814 30.4573 55.0604 30.9761C56.4256 31.3081 57.8748 31.0798 59.2819 31.1213C59.744 31.2043 60.227 31.1421 60.6681 30.9553C60.6471 30.2706 60.6471 29.5651 60.6471 28.8803C60.6471 28.0295 60.6681 27.1787 60.6051 26.328C60.8571 26.0997 61.0461 25.6847 61.4452 25.7262C62.3063 25.6847 63.1674 25.7262 64.0495 25.7262C64.0915 24.5642 64.0705 23.4021 64.0705 22.2401C62.8943 22.1986 61.6972 22.1986 60.5211 22.2401C60.5211 23.1116 60.5211 24.0039 60.5001 24.8754C60.248 25.1037 60.017 25.3527 59.765 25.6017C58.2948 25.5187 56.8246 25.3942 55.3755 25.5809Z" fill="black"/>
<path d="M57.3497 39.0065C57.5597 37.1805 57.5177 35.3337 57.3707 33.5076C55.5855 33.4661 53.8213 33.4869 52.0571 33.4869C52.0571 32.5739 52.1411 31.6608 51.9311 30.7686C50.7129 30.7686 49.4948 30.7686 48.2766 30.7686C48.2136 32.0343 48.2556 33.2794 48.2556 34.5452C49.4738 34.6074 50.6919 34.4829 51.9311 34.6074C51.9311 35.6449 51.9101 36.7032 51.9521 37.7407C51.9311 37.969 51.9101 38.1765 51.9101 38.4048C51.721 38.6123 51.532 38.8405 51.322 39.048C50.3349 39.1518 49.3268 39.0065 48.3186 39.1518C48.1716 40.3968 48.2976 41.6626 48.2766 42.9284C49.4948 42.9491 50.7339 42.9284 51.9521 42.9284C52.1831 41.8909 51.9941 40.8118 52.0991 39.7535C52.2881 39.4838 52.5401 39.2555 52.7712 39.0065C53.0652 39.0065 53.3592 39.0065 53.6533 38.965C54.8504 39.0273 56.0896 39.0065 57.3497 39.0065Z" fill="black"/>
<path d="M62.6423 35.0847C63.3774 35.0847 64.1125 35.0847 64.8266 35.0639C64.8266 33.7567 64.8266 32.4494 64.8266 31.1421C63.5034 31.0798 62.1593 31.1213 60.8151 31.1006C60.7101 32.4286 60.7731 33.7567 60.7521 35.0639C61.4032 35.0847 62.0333 35.0847 62.6423 35.0847Z" fill="black"/>
<path d="M61.0461 43.1775C59.4709 43.1152 57.8747 43.0945 56.2996 43.1567C56.2996 43.9452 56.2996 44.713 56.2996 45.4808C56.2996 46.2486 56.2996 46.9956 56.2996 47.7634C57.8537 47.9709 59.4079 47.8256 60.9621 47.7634C61.1301 47.4728 61.0671 47.1201 61.0881 46.7881C61.0671 45.6053 61.1091 44.381 61.0461 43.1775Z" fill="black"/>
<path d="M50.3769 46.3311C50.3559 47.2233 50.3559 48.0949 50.3769 48.9871C51.259 48.9871 52.1621 48.9871 53.0442 48.9871C53.0442 48.5099 53.0442 48.0326 53.0652 47.5346C53.0442 47.1403 53.0232 46.7253 53.0022 46.3311C52.1201 46.3311 51.238 46.3311 50.3769 46.3311Z" fill="black"/>
<path d="M54.4724 49.8382C54.0523 50.5022 53.5903 51.1455 53.1492 51.768C52.4771 52.5773 51.721 53.3035 51.028 54.0713C49.8308 55.1711 48.5917 56.2294 47.2475 57.1839C46.8065 57.4951 46.3654 57.8064 45.9244 58.1177C45.9034 44.7751 45.9034 31.4117 45.9244 18.0691C46.2814 18.3596 46.6384 18.7124 47.0585 18.8991C48.3396 19.8744 49.7888 20.6007 51.259 21.2854L51.238 21.3269C52.4141 21.8249 53.5903 22.3022 54.8084 22.6757V22.7172C55.8585 23.0285 56.9086 23.319 57.9798 23.5472C58.0218 22.8002 58.0218 22.0325 58.0008 21.2854C56.8666 21.0157 55.7745 20.6007 54.6404 20.2894C54.6404 20.2687 54.6194 20.2272 54.6194 20.2064C53.4432 19.8951 52.3931 19.3141 51.301 18.8161V18.7746C50.0198 18.2143 48.8857 17.3843 47.7516 16.5751C46.9535 15.9525 46.2604 15.2055 45.5043 14.5C44.3282 15.828 42.9 16.9071 41.4088 17.8823C40.3167 18.5464 39.1616 19.1274 37.9644 19.6254V19.6669C36.7883 20.1026 35.5701 20.5177 34.331 20.8497C33.2179 21.1609 32.0837 21.3477 30.9706 21.5967C28.9544 21.7627 26.9381 22.0117 24.9009 21.9909V22.1777C25.1739 28.5896 26.245 35.0223 28.6813 40.9985C29.3954 43.0113 30.4035 44.9411 31.4326 46.8086C32.2307 48.2611 33.1128 49.6514 34.1 50.9795V51.021C35.2971 52.6188 36.5362 54.1751 37.9644 55.5861C39.0145 56.6859 40.1067 57.7649 41.3458 58.6572V58.6987C42.543 59.7155 43.8241 60.6077 45.1893 61.417C46.0714 61.749 46.7435 60.836 47.4785 60.504V60.4625C48.8017 59.6532 49.9568 58.6364 51.154 57.6611V57.6196C51.9941 56.8726 52.7922 56.0634 53.5693 55.2541C55.1654 53.5733 56.6146 51.768 57.8958 49.8382C56.7406 49.8382 55.6065 49.8382 54.4724 49.8382Z" fill="black"/>
</g>
</g>
<defs>
<clipPath id="clip0_2130_1481">
<rect width="119" height="47" fill="white" transform="translate(24.9009 14.5)"/>
</clipPath>
</defs>
</svg>
