<svg width="189" height="76" viewBox="0 0 189 76" fill="none" xmlns="http://www.w3.org/2000/svg">
<g opacity="0.8">
<g clip-path="url(#clip0_2130_1173)">
<path d="M24.243 20.6105C24.572 20.6185 25.181 20.4205 25.231 20.9165C25.299 23.8435 25.213 26.7755 25.283 29.7045C25.3202 30.741 25.2921 31.7787 25.199 32.8115C25.0993 33.2817 25.0325 33.7581 24.999 34.2375L24.23 34.2175C24.106 31.1805 24.23 28.1435 24.2 25.1065C24.221 23.6095 24.157 22.1095 24.243 20.6105Z" fill="black"/>
<path d="M30.399 20.5686C34.049 20.5286 37.699 20.5686 41.351 20.5686C44.0895 20.5079 46.756 21.448 48.851 23.2126C48.917 23.3126 49.051 23.5006 49.121 23.5976C48.754 23.6596 48.392 23.7356 48.027 23.7976L47.909 23.8196C46.934 23.0319 45.8123 22.4456 44.609 22.0946C42.8186 21.6558 40.9702 21.5022 39.132 21.6396C36.997 21.6456 34.863 21.6616 32.732 21.6396C32.4084 21.6424 32.0869 21.6929 31.778 21.7896C33.26 24.3816 34.727 26.9836 36.107 29.6286C35.883 29.6226 35.656 29.6166 35.432 29.6086C35.432 29.7806 35.432 30.1236 35.426 30.2936C34.9244 29.6173 34.4776 28.902 34.09 28.1546C33.359 26.8286 32.566 25.5366 31.85 24.2026C31.744 23.9638 31.5565 23.7707 31.321 23.6576C31.207 25.4576 31.311 27.2576 31.253 29.0576C31.167 30.2476 31.521 31.7236 30.392 32.5316C30.2837 32.1979 30.2323 31.8483 30.24 31.4976C30.24 28.1666 30.24 24.8346 30.23 21.5036C30.2243 21.1838 30.2817 20.8661 30.399 20.5686Z" fill="black"/>
<path d="M49.125 23.594C49.311 23.586 49.419 23.794 49.558 23.888C50.7853 25.0651 51.7319 26.5033 52.3275 28.0961C52.9232 29.6888 53.1527 31.3953 52.999 33.0888C52.8454 34.7824 52.3124 36.4196 51.4398 37.8791C50.5671 39.3387 49.3771 40.583 47.958 41.52C47.3579 41.978 46.6721 42.3113 45.941 42.5C45.266 42.55 45.158 41.43 45.771 41.27C47.8607 40.3205 49.5789 38.7082 50.659 36.683C51.7758 34.5702 52.1237 32.1349 51.643 29.794C51.1623 27.4391 49.8871 25.3209 48.031 23.794C48.392 23.732 48.758 23.656 49.125 23.594Z" fill="black"/>
<path d="M30.394 32.5365C31.524 31.7295 31.169 30.2525 31.255 29.0625C31.221 32.1515 31.229 35.2405 31.263 38.3295C31.2757 38.8919 31.2543 39.4546 31.199 40.0145C30.834 40.0445 30.217 40.0765 30.239 39.5515C30.264 37.2125 30.17 34.8655 30.394 32.5365Z" fill="black"/>
<path d="M35.435 29.6104C35.659 29.6184 35.886 29.6244 36.11 29.6304C37.897 32.8594 39.828 36.0063 41.643 39.2193C42.1757 40.0761 42.6585 40.9629 43.089 41.8754C42.879 41.8694 42.666 41.8593 42.456 41.8453C42.456 42.2123 42.456 42.5784 42.456 42.9454C42.0893 42.5786 41.7999 42.142 41.605 41.6614C40.189 39.1314 38.805 36.5834 37.436 34.0314C36.773 32.7854 36.022 31.5774 35.436 30.2954C35.431 30.1254 35.433 29.7824 35.435 29.6104Z" fill="black"/>
<path d="M25 34.2434C25.0335 33.764 25.1003 33.2875 25.2 32.8174C25.234 34.9914 25.152 37.1684 25.3 39.3404C25.4 40.2944 25.37 41.2534 25.378 42.2114C25.0528 42.2345 24.7302 42.286 24.414 42.3654C24.342 42.6494 24.268 42.9324 24.194 43.2144C24.0661 42.5896 24.0304 41.9495 24.088 41.3144C24.214 38.9524 24.27 36.5844 24.228 34.2144L25 34.2434Z" fill="black"/>
<path d="M30.334 45.5171C30.6115 45.4522 30.8983 45.4373 31.181 45.473C31.4037 46.4805 31.4744 47.5156 31.391 48.544C31.4662 49.4385 31.4171 50.3391 31.245 51.2201C31.0781 50.689 31.0037 50.1333 31.025 49.577C30.751 49.705 30.474 49.8251 30.194 49.9441C30.102 48.8821 30.182 47.815 30.166 46.751C30.1283 46.3323 30.1857 45.9105 30.334 45.5171Z" fill="black"/>
<path d="M59.1021 27.2059C59.715 27.0599 60.3476 27.0147 60.9751 27.0719C62.4526 26.9363 63.9421 27.1111 65.3481 27.5849C66.0084 27.8908 66.5845 28.3525 67.0269 28.9303C67.4694 29.5081 67.7649 30.1847 67.8881 30.9019C68.0927 32.0778 67.9419 33.2881 67.4551 34.3779C67.0504 35.1533 66.4356 35.7991 65.6809 36.2412C64.9263 36.6834 64.0623 36.904 63.1881 36.8779C61.8321 36.8519 60.4681 36.9779 59.1151 36.8479C59.1211 33.6349 59.1491 30.4179 59.1011 27.2039M61.5111 29.1889C61.5071 31.0602 61.5071 32.9312 61.5111 34.8019C62.5509 34.9553 63.6125 34.7669 64.5361 34.2649C64.869 34.0198 65.1355 33.6954 65.3112 33.3211C65.4868 32.9469 65.5662 32.5346 65.5421 32.1219C65.5972 31.6959 65.5475 31.2628 65.3975 30.8603C65.2475 30.4578 65.0016 30.0979 64.6811 29.8119C63.8021 29.0599 62.5861 29.1809 61.5121 29.1889H61.5111Z" fill="black"/>
<path d="M70.3301 27.1915C71.1157 27.0626 71.9131 27.0197 72.7081 27.0635C72.7581 30.3365 72.7141 33.6105 72.7301 36.8835C72.0813 36.8664 71.4322 36.8824 70.7851 36.9315L70.3381 36.8215C70.3541 33.6115 70.3641 30.3975 70.3301 27.1915Z" fill="black"/>
<path d="M76.001 28.9579C76.6701 28.091 77.598 27.4599 78.6502 27.1562C79.7023 26.8525 80.8238 26.892 81.852 27.2689C82.545 27.486 83.1644 27.8904 83.642 28.4375C84.1195 28.9846 84.4365 29.653 84.558 30.3689C83.7265 30.4227 82.8916 30.3933 82.066 30.2809C81.8479 29.9546 81.5549 29.6853 81.2115 29.4953C80.8681 29.3053 80.4842 29.2003 80.0919 29.1889C79.6996 29.1776 79.3103 29.2603 78.9565 29.43C78.6026 29.5998 78.2946 29.8518 78.058 30.1649C77.6662 30.7827 77.4809 31.5089 77.5287 32.2388C77.5765 32.9687 77.855 33.6646 78.324 34.2259C79.624 35.3919 82.188 35.0259 82.645 33.1759C81.6568 33.1968 80.6682 33.1614 79.684 33.0699C79.696 32.5109 79.7 31.9519 79.7 31.3929C81.363 31.3929 83.023 31.3869 84.686 31.3929C84.67 32.1839 84.722 32.9799 84.662 33.7709C84.4004 34.5712 83.9271 35.2858 83.2922 35.8388C82.6573 36.3918 81.8846 36.7626 81.056 36.9119C80.3159 37.0614 79.5523 37.0495 78.8173 36.8769C78.0823 36.7043 77.3932 36.3752 76.797 35.9119C75.8758 35.0265 75.2924 33.8476 75.1471 32.5782C75.0018 31.3089 75.3038 30.0286 76.001 28.9579Z" fill="black"/>
<path d="M87.0731 36.8805C87.0891 33.6075 87.0451 30.3335 87.0951 27.0625C87.8541 27.0705 88.6111 27.0685 89.3711 27.0625C89.4151 30.3335 89.371 33.6095 89.391 36.8805C88.614 36.8845 87.8441 36.8865 87.0731 36.8805Z" fill="black"/>
<path d="M91.4969 28.9975C91.4869 28.3525 91.487 27.7075 91.517 27.0625C94.059 27.0765 96.6009 27.0685 99.1429 27.0625C99.1609 27.7075 99.1609 28.3505 99.1529 28.9955C98.2719 28.9875 97.392 28.9835 96.513 29.0015C96.513 31.6235 96.501 34.2455 96.513 36.8685C95.713 36.8905 94.9129 36.8885 94.1129 36.8785C94.1129 34.2545 94.1069 31.6285 94.1129 29.0015C93.2439 28.9925 92.3709 28.9925 91.4969 28.9975Z" fill="black"/>
<path d="M104.045 27.2094C104.989 27.1694 105.932 27.1754 106.876 27.2014C108.022 30.4324 109.224 33.6454 110.428 36.8554C109.569 36.9095 108.708 36.9095 107.85 36.8554C107.694 36.2944 107.497 35.7474 107.329 35.1924C106.912 35.1082 106.485 35.0906 106.063 35.1404C105.236 35.0912 104.405 35.1092 103.581 35.1944C103.407 35.7494 103.206 36.2944 103.06 36.8594C102.208 36.9105 101.353 36.9065 100.502 36.8474C101.718 33.6474 102.918 30.4414 104.046 27.2114M104.308 33.3734C105.074 33.3255 105.842 33.3255 106.608 33.3734C106.366 32.1134 105.815 30.9354 105.45 29.7074C105.005 30.908 104.624 32.131 104.307 33.3714L104.308 33.3734Z" fill="black"/>
<path d="M112.364 27.1767C113.156 27.0312 113.966 27.0137 114.764 27.1247C114.746 29.7707 114.764 32.4197 114.756 35.0677C115.827 35.0311 116.898 35.0718 117.963 35.1897C117.935 35.7487 117.935 36.3097 117.949 36.8687C116.092 36.8987 114.233 36.8947 112.376 36.8687C112.376 33.6407 112.402 30.4077 112.364 27.1767Z" fill="black"/>
<path d="M104.998 40.8558C105.191 40.3389 105.526 39.8866 105.964 39.5507C106.401 39.2148 106.925 39.0086 107.474 38.9558C108.164 38.7926 108.884 38.8079 109.567 39.0004C110.249 39.1928 110.871 39.5561 111.374 40.0558C111.771 40.5607 112.001 41.1757 112.035 41.8168C111.212 41.8108 110.386 41.8088 109.563 41.8248C109.351 41.4318 109.196 40.8528 108.674 40.7948C108.471 40.7569 108.262 40.7599 108.06 40.8039C107.858 40.8479 107.667 40.9318 107.498 41.0508C107.481 41.4218 107.493 41.7935 107.532 42.1628C108.772 43.1348 110.603 43.0878 111.651 44.3378C111.967 44.7391 112.167 45.2189 112.231 45.7257C112.294 46.2324 112.218 46.7469 112.011 47.2136C111.804 47.6804 111.473 48.0817 111.055 48.3744C110.636 48.6672 110.146 48.8402 109.636 48.8748C108.389 49.1021 107.103 48.8349 106.05 48.1298C105.703 47.8641 105.42 47.5241 105.222 47.1348C105.024 46.7454 104.915 46.3166 104.904 45.8798C105.709 45.8798 106.515 45.8798 107.322 45.8618C107.459 46.3304 107.758 46.7351 108.165 47.0038C108.391 47.0812 108.633 47.1018 108.868 47.0638C109.104 47.0258 109.327 46.9303 109.517 46.7858C109.583 46.5738 109.653 46.3608 109.725 46.1508C109.643 45.9428 109.559 45.7358 109.479 45.5298C108.291 44.6768 106.67 44.6508 105.591 43.6208C105.264 43.2491 105.038 42.7998 104.934 42.3157C104.83 41.8316 104.852 41.3289 104.998 40.8558Z" fill="black"/>
<path d="M114.596 40.4212C114.954 39.8949 115.445 39.4731 116.019 39.1991C116.594 38.9252 117.231 38.8089 117.865 38.8622C118.855 38.8484 119.817 39.1921 120.575 39.8302C121.099 40.3621 121.413 41.0645 121.462 41.8092C120.633 41.8092 119.803 41.8092 118.976 41.8212C118.85 41.4492 118.628 41.1169 118.333 40.8572C118.109 40.7578 117.86 40.7254 117.618 40.7641C117.375 40.8028 117.149 40.9109 116.967 41.0752C116.881 41.4337 116.876 41.8067 116.953 42.1672C118.195 43.1392 120.022 43.0862 121.072 44.3422C121.376 44.7327 121.571 45.1963 121.638 45.6864C121.705 46.1765 121.642 46.6756 121.454 47.1333C121.266 47.591 120.961 47.991 120.57 48.293C120.178 48.595 119.713 48.7883 119.223 48.8532C118.17 49.0768 117.072 48.9595 116.09 48.5182C115.578 48.2852 115.142 47.9142 114.829 47.4468C114.517 46.9794 114.341 46.4341 114.321 45.8722C115.128 45.8782 115.936 45.8802 116.743 45.8642C116.87 46.3404 117.174 46.7499 117.594 47.0082C117.828 47.0757 118.074 47.0908 118.314 47.0525C118.554 47.0141 118.783 46.9232 118.984 46.7862C119.034 46.3012 119.184 45.6222 118.631 45.3582C117.517 44.6792 116.099 44.5852 115.105 43.6952C114.686 43.2725 114.412 42.7284 114.321 42.1406C114.229 41.5528 114.326 40.9511 114.596 40.4212Z" fill="black"/>
<path d="M148.423 39.6619C149.609 38.9869 151.003 38.7733 152.337 39.0619C153.2 39.2272 153.99 39.659 154.594 40.2966C155.199 40.9341 155.589 41.7453 155.708 42.6159C154.908 42.6059 154.101 42.6079 153.3 42.6059C153.159 42.2661 152.941 41.9637 152.664 41.7224C152.386 41.4812 152.056 41.3078 151.7 41.2159C151.323 41.1176 150.927 41.1124 150.548 41.2007C150.168 41.289 149.815 41.4682 149.52 41.7229C149.19 42.1041 148.951 42.5557 148.822 43.0432C148.693 43.5307 148.677 44.0412 148.775 44.5359C148.793 45.1016 149.024 45.6396 149.421 46.0421C149.819 46.4446 150.355 46.6817 150.92 46.7059C151.416 46.7493 151.913 46.6355 152.341 46.3807C152.769 46.1258 153.106 45.7428 153.304 45.2859C154.109 45.2859 154.917 45.2859 155.724 45.2859C155.578 46.2213 155.126 47.0819 154.438 47.7324C153.751 48.383 152.866 48.7866 151.924 48.8799C150.923 49.0199 149.903 48.8955 148.965 48.5189C148.206 48.1588 147.561 47.5968 147.1 46.8945C146.64 46.1921 146.381 45.3764 146.353 44.5369C146.207 43.612 146.324 42.6647 146.69 41.8028C147.056 40.9409 147.656 40.1991 148.423 39.6619Z" fill="black"/>
<path d="M59.1241 39.0482C60.6041 39.0262 62.0871 39.0302 63.5691 39.0482C64.1425 39.0379 64.7087 39.1778 65.2113 39.4541C65.714 39.7304 66.1355 40.1335 66.4341 40.6232C66.7161 41.2251 66.8202 41.8951 66.7341 42.5542C66.6885 43.1517 66.4405 43.7157 66.031 44.1531C65.6216 44.5906 65.0752 44.8753 64.4821 44.9602C65.2091 46.2802 66.0451 47.5382 66.7881 48.8482C65.9131 48.8682 65.0371 48.8622 64.1621 48.8542C63.5251 47.6382 62.7621 46.4902 62.1571 45.2542C61.9971 45.2342 61.6761 45.1922 61.5161 45.1702C61.5041 46.4002 61.5161 47.6302 61.5061 48.8602C60.7061 48.8602 59.9171 48.8602 59.1221 48.8482C59.1301 45.5832 59.1221 42.3172 59.1221 39.0482M61.5101 41.0482C61.5101 41.8616 61.5101 42.6749 61.5101 43.4882C62.4011 43.3882 63.6231 43.8392 64.2281 42.9572C64.3337 42.6802 64.3685 42.3812 64.3294 42.0873C64.2903 41.7935 64.1784 41.514 64.0041 41.2742C63.1976 41.0295 62.3498 40.951 61.5121 41.0432L61.5101 41.0482Z" fill="black"/>
<path d="M69.041 48.8563C69.041 45.5813 69.025 42.3053 69.047 39.0303C71.074 39.0423 73.102 39.0383 75.131 39.0303C75.141 39.6793 75.139 40.3303 75.109 40.9813C73.857 40.9733 72.609 40.9433 71.353 40.9953C71.3028 41.6692 71.3425 42.3468 71.471 43.0103C72.551 42.9663 73.634 42.9923 74.716 42.9903C74.716 43.5903 74.716 44.1903 74.7 44.7903C73.582 44.7903 72.466 44.7683 71.351 44.8103C71.293 45.5468 71.3422 46.2879 71.497 47.0103C72.709 46.9683 73.923 46.9963 75.135 46.9943C75.135 47.6136 75.135 48.2333 75.135 48.8533C73.101 48.8543 71.07 48.8603 69.041 48.8563Z" fill="black"/>
<path d="M77.516 39.0403C78.307 39.0403 79.101 39.0403 79.892 39.0283C81.232 41.0283 82.508 43.0753 83.864 45.0663C83.902 43.0553 83.87 41.0443 83.884 39.0343C84.675 39.0343 85.469 39.0343 86.262 39.0503C86.262 42.3137 86.262 45.5783 86.262 48.8443C85.451 48.8643 84.641 48.8663 83.83 48.8443C82.582 46.8113 81.18 44.8783 79.936 42.8443C79.85 44.8443 79.914 46.8523 79.894 48.8543C79.1027 48.8623 78.3114 48.8623 77.52 48.8543C77.5167 45.5816 77.5154 42.3103 77.516 39.0403Z" fill="black"/>
<path d="M88.243 48.8576C89.383 45.5786 90.6511 42.3446 91.8151 39.0736C92.7081 39.0736 93.6041 39.0836 94.4991 39.0596C95.7991 42.2866 96.8991 45.5946 98.1651 48.8396C97.3117 48.8676 96.457 48.8676 95.601 48.8396C95.415 48.2486 95.2011 47.6656 95.0361 47.0686C93.8061 47.0406 92.5761 47.0686 91.3481 47.0526C91.1281 47.6526 90.9231 48.2606 90.7071 48.8616C89.8861 48.8536 89.064 48.8556 88.243 48.8616M92.011 45.2556C92.798 45.2696 93.5881 45.2696 94.3751 45.2556C94.0341 44.0476 93.5481 42.8876 93.2111 41.6776C92.7394 42.8436 92.3386 44.0371 92.011 45.2516V45.2556Z" fill="black"/>
<path d="M100.118 48.8611C100.104 45.5881 100.112 42.3141 100.118 39.0391C100.907 39.0391 101.695 39.0391 102.484 39.0391C102.484 42.3061 102.484 45.5761 102.484 48.8451C101.695 48.8611 100.908 48.8571 100.118 48.8611Z" fill="black"/>
<path d="M126.643 39.7666C126.753 39.5346 126.777 39.2136 127.038 39.0856C127.877 39.0476 128.719 39.1016 129.558 39.0596C130.894 42.2766 131.986 45.5946 133.234 48.8476C132.379 48.8616 131.525 48.8676 130.672 48.8416C130.52 48.2416 130.297 47.6556 130.105 47.0646C128.877 47.0446 127.649 47.0646 126.421 47.0526C126.205 47.6526 126.006 48.2686 125.774 48.8656C124.955 48.8516 124.136 48.8576 123.316 48.8536C124.388 45.8106 125.55 42.8016 126.643 39.7666ZM127.078 45.2516C127.878 45.2696 128.671 45.2636 129.468 45.2516C129.081 44.0516 128.649 42.8756 128.282 41.6736C127.847 42.8556 127.403 44.0376 127.078 45.2516Z" fill="black"/>
<path d="M135.199 39.0382C135.984 39.0382 136.769 39.0382 137.557 39.0322C138.603 40.6012 139.624 42.1872 140.657 43.7662C140.915 44.1312 141.092 44.6072 141.542 44.7822C141.558 42.8652 141.536 40.9482 141.558 39.0332C142.358 39.0392 143.152 39.0332 143.95 39.0492C143.95 42.3159 143.95 45.5806 143.95 48.8432C143.133 48.8652 142.315 48.8712 141.5 48.8432C140.248 46.8432 138.88 44.9092 137.63 42.9032C137.524 44.8842 137.608 46.8712 137.578 48.8572C136.783 48.8572 135.989 48.8572 135.196 48.8572C135.198 45.5832 135.199 42.3102 135.199 39.0382Z" fill="black"/>
<path d="M158.19 48.8582C158.182 45.5832 158.174 42.3072 158.19 39.0322C160.211 39.0402 162.233 39.0402 164.254 39.0322C164.264 39.6796 164.26 40.3279 164.242 40.9772C162.99 40.9772 161.742 40.9472 160.49 40.9992C160.46 41.6676 160.494 42.3372 160.59 42.9992C161.672 42.9752 162.754 42.9832 163.837 42.9992C163.837 43.5942 163.837 44.1872 163.825 44.7822C162.713 44.8002 161.599 44.7562 160.488 44.8142C160.44 45.548 160.482 46.2849 160.614 47.0082C161.826 46.9702 163.04 46.9942 164.256 46.9962C164.256 47.6152 164.256 48.2322 164.256 48.8512C162.236 48.8602 160.213 48.8562 158.19 48.8582Z" fill="black"/>
<path d="M42.455 41.8447C42.665 41.8587 42.8781 41.8687 43.0881 41.8747H43.1541C43.3165 42.3064 43.5246 42.7194 43.775 43.1067C45.814 46.6227 47.7951 50.1717 49.7951 53.7067C50.0211 54.1517 50.4641 54.6277 50.2381 55.1607C50.1381 55.5397 49.6381 55.3927 49.355 55.4447C43.345 55.4407 37.3354 55.4407 31.326 55.4447C30.9939 55.4655 30.6607 55.4269 30.342 55.3307C30.2184 55.0916 30.167 54.8216 30.194 54.5537C30.184 53.0147 30.242 51.4767 30.194 49.9387C30.474 49.8207 30.751 49.7007 31.025 49.5717C31.0037 50.128 31.0781 50.6837 31.245 51.2147C31.3635 52.2211 31.4109 53.2346 31.387 54.2477C37.122 54.2117 42.86 54.2477 48.595 54.2277C48.4729 53.858 48.3109 53.5025 48.1121 53.1677C46.1771 49.8467 44.39 46.4367 42.453 43.1217C42.453 43.0757 42.453 42.9857 42.453 42.9397C42.451 42.5777 42.455 42.2117 42.455 41.8447Z" fill="black"/>
<path d="M25.38 42.2061C30.262 42.2441 35.148 42.1321 40.028 42.2541C40.062 42.6151 40.218 43.0371 39.938 43.3461C39.6799 43.3997 39.4166 43.4246 39.153 43.4201C34.4717 43.4121 29.79 43.4121 25.108 43.4201C24.7927 43.4212 24.4812 43.3508 24.197 43.2141C24.271 42.9321 24.345 42.6491 24.417 42.3651C24.7328 42.2841 25.055 42.2309 25.38 42.2061Z" fill="black"/>
</g>
</g>
<defs>
<clipPath id="clip0_2130_1173">
<rect width="140.193" height="34.901" fill="white" transform="translate(24.0709 20.5498)"/>
</clipPath>
</defs>
</svg>
