<svg width="279" height="76" viewBox="0 0 279 76" fill="none" xmlns="http://www.w3.org/2000/svg">
<g opacity="0.8">
<g clip-path="url(#clip0_2130_1149)">
<path d="M135.333 27.9835C136.86 26.6774 138.84 26.0247 140.844 26.1665C142.697 26.2034 144.517 26.6555 146.172 27.4895C146.308 28.2425 146.449 28.9895 146.583 29.7445C144.848 28.6789 142.876 28.0604 140.844 27.9445C139.37 27.8214 137.907 28.2757 136.762 29.2115C136.215 29.8096 135.832 30.5399 135.653 31.3305C135.474 32.1211 135.503 32.9448 135.739 33.7205C136.175 35.1585 137.669 35.8355 138.978 36.2855C141.065 36.9315 143.267 37.4285 145.073 38.7275C145.613 39.1086 146.067 39.5982 146.407 40.1652C146.746 40.7321 146.964 41.3637 147.045 42.0195C147.238 43.0375 147.195 44.0863 146.919 45.085C146.643 46.0836 146.141 47.0055 145.452 47.7795C143.799 49.4795 141.28 49.9175 139.004 49.8085C136.95 49.7464 134.954 49.1168 133.237 47.9895C133.041 47.2115 132.917 46.4172 132.865 45.6165C134.698 47.0248 136.905 47.8636 139.211 48.0285C140.068 48.1254 140.936 48.0488 141.763 47.8033C142.59 47.5578 143.359 47.1484 144.024 46.5995C144.602 45.9585 145 45.1748 145.175 44.3291C145.349 43.4835 145.296 42.6065 145.019 41.7885C144.801 41.2696 144.48 40.8001 144.076 40.4082C143.671 40.0162 143.192 39.7099 142.667 39.5075C140.432 38.3905 137.789 38.2425 135.72 36.7695C135.203 36.4149 134.765 35.9573 134.433 35.4254C134.101 34.8935 133.883 34.2988 133.792 33.6785C133.575 32.6752 133.602 31.6346 133.87 30.6437C134.138 29.6529 134.64 28.7407 135.333 27.9835Z" fill="black"/>
<path d="M24.8859 26.5654C25.4859 26.5654 26.0799 26.5654 26.6769 26.5654C26.6769 30.1414 26.6769 33.7181 26.6769 37.2954C30.1189 37.2954 33.5609 37.2954 37.0029 37.2954C37.0029 33.7194 37.0029 30.1428 37.0029 26.5654C37.6169 26.5654 38.2326 26.5654 38.8499 26.5654C38.8499 34.2228 38.8499 41.8794 38.8499 49.5354H37.0059C37.0059 46.0334 37.0059 42.5334 37.0059 39.0354C33.5612 39.0354 30.1176 39.0354 26.6749 39.0354C26.6749 42.5354 26.6749 46.0354 26.6749 49.5354H24.8859C24.8832 41.8781 24.8832 34.2214 24.8859 26.5654Z" fill="black"/>
<path d="M43.4559 26.5693H45.6469C48.2599 30.6693 50.8569 34.7853 53.4819 38.8833C56.1046 34.7787 58.7233 30.674 61.3379 26.5693C62.0579 26.5693 62.7783 26.5693 63.4989 26.5693C60.5789 31.1103 57.6859 35.6693 54.7589 40.2083C54.6069 40.4833 54.3589 40.7463 54.3829 41.0813C54.3669 43.9003 54.3829 46.7163 54.3829 49.5353H52.5359C52.5109 46.6353 52.5819 43.7353 52.5039 40.8353C49.5349 36.0543 46.4659 31.3263 43.4559 26.5693Z" fill="black"/>
<path d="M69.5029 26.5705C71.5809 26.5705 73.6609 26.5635 75.7379 26.5705C76.9338 26.5678 78.1148 26.8355 79.1926 27.3536C80.2704 27.8717 81.2171 28.6269 81.9619 29.5625C82.8951 30.8911 83.4263 32.4601 83.4923 34.0823C83.5583 35.7046 83.1561 37.3115 82.3339 38.7115C81.6086 39.791 80.6283 40.675 79.48 41.2855C78.3316 41.896 77.0505 42.214 75.7499 42.2115C74.2839 42.2115 72.8179 42.2045 71.3499 42.2115C71.3499 44.6535 71.3499 47.0965 71.3499 49.5385H69.5029C69.5029 41.8812 69.5029 34.2245 69.5029 26.5685M71.3499 28.2995C71.3499 32.3582 71.3499 36.4165 71.3499 40.4745C73.2427 40.5634 75.1396 40.4901 77.0199 40.2555C77.779 40.1326 78.5041 39.8528 79.149 39.4339C79.7938 39.0149 80.3442 38.4661 80.7649 37.8225C81.5581 36.3531 81.799 34.6482 81.4439 33.0165C81.3011 32.1434 80.9452 31.319 80.4076 30.6164C79.87 29.9137 79.1673 29.3546 78.3619 28.9885C76.1549 28.0115 73.6849 28.3705 71.3459 28.2975L71.3499 28.2995Z" fill="black"/>
<path d="M90.45 26.5645C94.49 26.5645 98.5299 26.5645 102.57 26.5645V28.2915C99.1459 28.2985 95.7229 28.2915 92.299 28.2915C92.299 31.1955 92.299 34.0988 92.299 37.0015C95.3949 37.0015 98.4906 37.0015 101.586 37.0015C101.586 37.5968 101.586 38.1931 101.586 38.7905C98.4859 38.7905 95.3919 38.7905 92.2939 38.7905C92.2939 41.7711 92.2939 44.7515 92.2939 47.7315C95.8333 47.7361 99.3723 47.7361 102.911 47.7315V49.5205C98.7556 49.5205 94.6003 49.5205 90.4449 49.5205C90.4456 41.8738 90.4473 34.2218 90.45 26.5645Z" fill="black"/>
<path d="M112.096 26.5661C113.825 26.5661 115.557 26.5661 117.286 26.5661C118.444 26.5275 119.598 26.7335 120.672 27.1706C121.745 27.6077 122.715 28.2662 123.517 29.1031C124.559 30.3844 125.2 31.9444 125.36 33.588C125.52 35.2315 125.192 36.8859 124.417 38.3441C123.667 39.6999 122.511 40.7865 121.111 41.4511C123.38 44.1431 125.65 46.8301 127.898 49.5381C127.09 49.5381 126.282 49.5381 125.476 49.5451C123.371 47.0591 121.286 44.5561 119.187 42.0631C117.444 42.2263 115.692 42.2764 113.942 42.2131C113.942 44.6551 113.942 47.0981 113.942 49.5401H112.096C112.096 41.8828 112.096 34.2261 112.096 26.5701M113.945 28.3041C113.945 32.3628 113.945 36.4204 113.945 40.4771C116.145 40.4401 118.474 40.7221 120.513 39.7061C121.235 39.3542 121.865 38.8387 122.352 38.2008C122.84 37.5628 123.172 36.82 123.323 36.0311C123.799 33.7221 123.279 30.9571 121.238 29.5311C119.118 28.0291 116.396 28.3271 113.942 28.2991L113.945 28.3041Z" fill="black"/>
<path d="M155.898 26.568C157.883 26.568 159.871 26.568 161.859 26.568C162.954 26.5465 164.043 26.7434 165.061 27.1473C166.079 27.5511 167.007 28.1537 167.79 28.92C168.922 30.2054 169.632 31.8072 169.824 33.5091C170.016 35.2109 169.681 36.9307 168.864 38.436C168.215 39.5133 167.315 40.4175 166.241 41.0712C165.167 41.725 163.95 42.1088 162.695 42.19C161.026 42.248 159.357 42.19 157.69 42.213C157.69 44.655 157.69 47.098 157.69 49.54H155.903C155.896 41.8847 155.896 34.2287 155.903 26.572M157.692 28.301C157.692 32.3597 157.692 36.419 157.692 40.479C160.086 40.396 162.619 40.798 164.872 39.779C165.669 39.4246 166.362 38.8734 166.887 38.1771C167.412 37.4808 167.751 36.6624 167.872 35.799C168.251 33.465 167.581 30.713 165.467 29.399C163.151 27.914 160.287 28.381 157.687 28.297L157.692 28.301Z" fill="black"/>
<path d="M176.044 26.5654H177.833C177.833 30.1434 177.833 33.7218 177.833 37.3004H188.162C188.162 33.7224 188.162 30.1441 188.162 26.5654H190.009V49.5354H188.162C188.162 46.0334 188.162 42.5334 188.162 39.0354C184.717 39.0354 181.274 39.0354 177.831 39.0354C177.831 42.5354 177.831 46.0354 177.831 49.5354H176.044C176.039 41.8781 176.039 34.2214 176.044 26.5654Z" fill="black"/>
<path d="M198.437 26.5654H210.557C210.557 27.1428 210.557 27.7198 210.557 28.2964C207.134 28.2964 203.711 28.2964 200.288 28.2964C200.288 31.1984 200.288 34.1018 200.288 37.0064C203.388 37.0064 206.48 37.0064 209.578 37.0064C209.578 37.6018 209.578 38.1974 209.578 38.7934C206.478 38.7934 203.378 38.7934 200.284 38.7934C200.284 41.7761 200.284 44.7571 200.284 47.7364C203.823 47.7434 207.362 47.7364 210.903 47.7364C210.903 48.3364 210.903 48.9304 210.903 49.5254H198.437C198.432 41.8748 198.432 34.2214 198.437 26.5654Z" fill="black"/>
<path d="M220.077 26.5678C221.829 26.5678 223.577 26.5678 225.336 26.5678C226.518 26.534 227.693 26.7589 228.778 27.2267C229.864 27.6945 230.835 28.3938 231.622 29.2758C232.545 30.4739 233.126 31.899 233.305 33.4006C233.485 34.9021 233.255 36.4242 232.64 37.8058C231.928 39.4107 230.663 40.7062 229.076 41.4558C231.357 44.1388 233.61 46.8468 235.876 49.5408H233.43C231.322 47.0498 229.251 44.5288 227.123 42.0568C225.395 42.227 223.658 42.2794 221.923 42.2138C221.923 44.6558 221.923 47.0988 221.923 49.5408H220.078C220.071 41.8854 220.071 34.2294 220.078 26.5728M221.925 28.3038V40.4738C224.072 40.4388 226.344 40.6998 228.35 39.7628C229.135 39.4027 229.819 38.853 230.338 38.1631C230.858 37.4732 231.198 36.6648 231.328 35.8108C231.746 33.5348 231.162 30.8178 229.121 29.4788C227.014 28.0338 224.341 28.3298 221.924 28.2998L221.925 28.3038Z" fill="black"/>
<path d="M241.608 26.5654H253.728C253.728 27.1428 253.728 27.7198 253.728 28.2964C250.305 28.2964 246.882 28.2964 243.46 28.2964C243.46 31.1984 243.46 34.1018 243.46 37.0064C246.56 37.0064 249.652 37.0064 252.75 37.0064C252.75 37.6064 252.75 38.1974 252.75 38.7934C249.65 38.7934 246.55 38.7934 243.456 38.7934C243.456 41.7761 243.456 44.7581 243.456 47.7394C246.995 47.7394 250.534 47.7394 254.073 47.7394C254.073 48.3348 254.073 48.9311 254.073 49.5284H241.608C241.603 41.8758 241.603 34.2214 241.608 26.5654Z" fill="black"/>
</g>
</g>
<defs>
<clipPath id="clip0_2130_1149">
<rect width="229.186" height="23.658" fill="white" transform="translate(24.8849 26.1709)"/>
</clipPath>
</defs>
</svg>
