<svg width="309" height="76" viewBox="0 0 309 76" fill="none" xmlns="http://www.w3.org/2000/svg">
<g opacity="0.8">
<g clip-path="url(#clip0_2130_1251)">
<mask id="mask0_2130_1251" style="mask-type:luminance" maskUnits="userSpaceOnUse" x="24" y="19" width="37" height="18">
<path d="M60.2248 19.3477H24.9548V36.9817H60.2248V19.3477Z" fill="white"/>
</mask>
<g mask="url(#mask0_2130_1251)">
<path d="M26.7388 36.3846C27.0541 36.3829 27.3631 36.2967 27.6336 36.1349C27.9041 35.9731 28.1263 35.7416 28.2768 35.4646C28.5124 35.0366 28.8073 34.644 29.1528 34.2986C30.1132 33.3438 31.4081 32.8014 32.7623 32.7867C34.1164 32.7719 35.4228 33.286 36.4038 34.2196C37.2132 35.0295 38.1745 35.6716 39.2326 36.1092C40.2907 36.5468 41.4248 36.7712 42.5698 36.7696C43.7263 36.7802 44.8732 36.5602 45.9436 36.1223C47.014 35.6845 47.9863 35.0377 48.8038 34.2196C49.7852 33.2879 51.0912 32.7754 52.4444 32.7911C53.7975 32.8068 55.0913 33.3494 56.0508 34.3036C56.3951 34.6477 56.6893 35.0385 56.9248 35.4646C57.0753 35.7411 57.2974 35.9721 57.5678 36.1335C57.8382 36.2948 58.147 36.3805 58.4618 36.3816C58.7637 36.3826 59.0607 36.3051 59.3236 36.1567C59.5865 36.0083 59.8063 35.7942 59.9614 35.5352C60.1165 35.2762 60.2016 34.9813 60.2083 34.6794C60.2151 34.3776 60.1432 34.0793 59.9998 33.8136C59.6018 33.0891 59.1024 32.425 58.5168 31.8416C57.5689 30.8932 56.4147 30.1766 55.1443 29.7474C53.874 29.3183 52.5217 29.1883 51.1928 29.3676C51.3966 28.0262 51.2836 26.6557 50.8626 25.3658C50.4417 24.076 49.7246 22.9026 48.7688 21.9396L48.8028 21.9056C47.9896 21.0914 47.0228 20.4468 45.9585 20.0092C44.8942 19.5716 43.7535 19.3498 42.6028 19.3566C41.452 19.3501 40.3114 19.5722 39.2471 20.0099C38.1828 20.4476 37.216 21.0923 36.4028 21.9066L36.4378 21.9396C35.4827 22.902 34.766 24.0746 34.3451 25.3635C33.9242 26.6524 33.8107 28.022 34.0138 29.3626C32.6845 29.1825 31.3315 29.3119 30.0604 29.7407C28.7893 30.1694 27.6344 30.8861 26.6858 31.8346C26.0982 32.421 25.5975 33.0884 25.1988 33.8166C25.0559 34.0825 24.9846 34.3809 24.9917 34.6827C24.9988 34.9844 25.0841 35.2792 25.2394 35.538C25.3946 35.7969 25.6144 36.011 25.8773 36.1594C26.1401 36.3078 26.437 36.3854 26.7388 36.3846ZM38.9388 24.3686C39.9119 23.3964 41.2293 22.8473 42.6048 22.8406C43.9805 22.8465 45.2982 23.3956 46.2708 24.3686C46.7569 24.8535 47.1425 25.4295 47.4056 26.0636C47.6687 26.6977 47.8041 27.3775 47.8041 28.0641C47.8041 28.7506 47.6687 29.4304 47.4056 30.0646C47.1425 30.6987 46.7569 31.2747 46.2708 31.7596C45.3042 32.7273 43.9956 33.2758 42.6278 33.2866C41.2829 33.2867 39.9901 32.7668 39.0198 31.8356L38.9338 31.7516C38.4491 31.2666 38.0647 30.6908 37.8025 30.0572C37.5404 29.4236 37.4056 28.7445 37.406 28.0588C37.4064 27.3731 37.5419 26.6941 37.8047 26.0608C38.0675 25.4274 38.4525 24.8521 38.9378 24.3676L38.9388 24.3686Z" fill="black"/>
</g>
<mask id="mask1_2130_1251" style="mask-type:luminance" maskUnits="userSpaceOnUse" x="24" y="39" width="37" height="18">
<path d="M60.5268 39.0918H24.6538V56.6528H60.5268V39.0918Z" fill="white"/>
</mask>
<g mask="url(#mask1_2130_1251)">
<path d="M58.5429 39.4612C58.2236 39.4615 57.9106 39.5494 57.6378 39.7153C57.365 39.8812 57.143 40.1188 56.9959 40.4022C56.7482 40.8767 56.4292 41.3104 56.0499 41.6882C55.0902 42.6439 53.7951 43.1869 52.4408 43.2015C51.0864 43.2161 49.78 42.701 48.7999 41.7662C47.9907 40.9558 47.0292 40.3134 45.9709 39.8757C44.9125 39.4381 43.7781 39.214 42.6329 39.2162C41.477 39.2059 40.3306 39.4262 39.2607 39.864C38.1909 40.3018 37.219 40.9485 36.4019 41.7662C35.4206 42.698 34.1147 43.2107 32.7616 43.1952C31.4084 43.1797 30.1146 42.6373 29.1549 41.6832C28.7777 41.3069 28.46 40.8752 28.2129 40.4032C28.0659 40.12 27.844 39.8825 27.5714 39.7166C27.2989 39.5506 26.986 39.4627 26.6669 39.4622C26.3672 39.4622 26.0725 39.5394 25.8114 39.6865C25.5502 39.8336 25.3314 40.0456 25.1761 40.302C25.0208 40.5583 24.9342 40.8504 24.9247 41.15C24.9152 41.4495 24.9831 41.7465 25.1219 42.0122C25.5312 42.7997 26.0594 43.5195 26.6879 44.1462C27.6363 45.0938 28.7905 45.81 30.0608 46.2389C31.3311 46.6678 32.6831 46.798 34.0119 46.6192C33.8079 47.9606 33.9209 49.3311 34.3419 50.621C34.7628 51.9109 35.48 53.0843 36.4359 54.0472L36.4019 54.0812C37.2153 54.8953 38.182 55.54 39.2463 55.9779C40.3105 56.4158 41.4511 56.6382 42.6019 56.6322C43.7518 56.6375 44.8914 56.4148 45.9548 55.9769C47.0181 55.539 47.9841 54.8947 48.7969 54.0812L48.7639 54.0472C49.7194 53.085 50.4363 51.9124 50.8572 50.6234C51.2781 49.3344 51.3914 47.9648 51.1879 46.6242C52.5171 46.8036 53.8697 46.6737 55.1405 46.2446C56.4112 45.8154 57.5657 45.0987 58.5139 44.1502C59.1448 43.5221 59.6747 42.8002 60.0849 42.0102C60.223 41.7447 60.2905 41.4482 60.2809 41.1491C60.2713 40.8501 60.1849 40.5585 60.03 40.3025C59.8751 40.0464 59.657 39.8346 59.3965 39.6872C59.1361 39.5399 58.8421 39.462 58.5429 39.4612ZM46.2669 51.6192C45.2943 52.5923 43.9767 53.1418 42.6009 53.1482C41.2252 53.1413 39.9078 52.5918 38.9349 51.6192C38.4492 51.1343 38.0638 50.5585 37.8009 49.9245C37.5379 49.2906 37.4026 48.611 37.4026 47.9247C37.4026 47.2383 37.5379 46.5588 37.8009 45.9248C38.0638 45.2909 38.4492 44.715 38.9349 44.2302C39.9017 43.2607 41.2118 42.7116 42.5809 42.7022C43.9247 42.7026 45.2164 43.2217 46.1869 44.1512L46.2719 44.2342C46.7573 44.7195 47.1422 45.2958 47.4046 45.93C47.6671 46.5642 47.8018 47.244 47.8013 47.9304C47.8007 48.6168 47.6648 49.2964 47.4014 49.9302C47.1379 50.564 46.7521 51.1396 46.2659 51.6242L46.2669 51.6192Z" fill="black"/>
</g>
<path d="M77.3108 49.0899C81.1028 49.0899 84.3247 46.8529 84.3247 43.0569C84.3247 35.5329 74.9727 37.3999 74.9727 33.8759C74.9727 32.7229 75.8528 32.1809 76.9358 32.1809C77.5812 32.227 78.2098 32.4074 78.7815 32.7105C79.3532 33.0136 79.8553 33.4326 80.2558 33.9409L83.2378 31.0929C82.4598 30.1932 81.4981 29.4705 80.4174 28.9738C79.3368 28.477 78.1621 28.2175 76.9727 28.2129C73.7507 28.2129 70.4637 30.1479 70.4637 34.2129C70.4637 41.1249 79.8528 39.4629 79.8528 43.0229C79.8528 44.1399 78.9037 44.8849 77.3427 44.8849C76.4805 44.8918 75.6352 44.6448 74.9124 44.1746C74.1895 43.7044 73.621 43.0319 73.2777 42.2409L69.5828 44.5469C70.3338 45.9371 71.451 47.0953 72.8132 47.8961C74.1754 48.6969 75.7307 49.1097 77.3108 49.0899Z" fill="black"/>
<path d="M101.67 45.2929C101.092 45.2929 100.485 45.0929 100.485 43.9689V35.2689H96.1799V36.4539C95.1252 35.4938 93.7439 34.9724 92.3179 34.9959C91.4125 35.0108 90.5192 35.2057 89.6899 35.5693C88.8606 35.9329 88.1119 36.4578 87.4875 37.1136C86.8631 37.7694 86.3754 38.5428 86.0529 39.3889C85.7304 40.235 85.5794 41.1369 85.6089 42.0419C85.5793 42.9472 85.7301 43.8493 86.0525 44.6957C86.375 45.5422 86.8626 46.316 87.4869 46.9722C88.1113 47.6284 88.86 48.1538 89.6893 48.5179C90.5187 48.882 91.4122 49.0774 92.3179 49.0929C93.2191 49.103 94.11 48.8993 94.9173 48.4985C95.7246 48.0976 96.4253 47.511 96.9619 46.7869C97.3942 47.502 98.0065 48.0913 98.7377 48.4959C99.4688 48.9005 100.293 49.1064 101.129 49.0929C101.528 49.0818 101.92 48.9889 102.282 48.8199V45.2969L101.67 45.2929ZM93.1649 45.2599C92.7414 45.2621 92.3216 45.1803 91.93 45.0191C91.5383 44.8579 91.1826 44.6206 90.8833 44.3209C90.5841 44.0212 90.3473 43.6651 90.1867 43.2732C90.0261 42.8813 89.945 42.4614 89.9479 42.0379C89.9447 41.6145 90.0257 41.1947 90.1862 40.8029C90.3468 40.4111 90.5836 40.0551 90.8829 39.7556C91.1823 39.4562 91.5382 39.2193 91.9299 39.0586C92.3217 38.898 92.7415 38.8168 93.1649 38.8199C93.588 38.8192 94.0071 38.902 94.3982 39.0636C94.7893 39.2252 95.1447 39.4623 95.4439 39.7614C95.7432 40.0605 95.9806 40.4157 96.1424 40.8067C96.3042 41.1977 96.3873 41.6168 96.3869 42.0399C96.3869 42.463 96.3035 42.882 96.1415 43.2729C95.9795 43.6639 95.7421 44.0191 95.4428 44.3182C95.1434 44.6173 94.7881 44.8545 94.3971 45.0163C94.0061 45.178 93.587 45.2611 93.1639 45.2609L93.1649 45.2599Z" fill="black"/>
<path d="M112.443 34.9912C111.695 34.997 110.958 35.1739 110.288 35.5084C109.619 35.8429 109.035 36.3262 108.581 36.9212V35.2642H104.244V48.8162H108.581V40.9552C108.586 40.665 108.65 40.3789 108.768 40.1136C108.885 39.8484 109.055 39.6093 109.266 39.4104C109.478 39.2115 109.727 39.0569 109.999 38.9555C110.27 38.8542 110.56 38.8081 110.85 38.8202C111.133 38.8104 111.415 38.859 111.678 38.9628C111.942 39.0667 112.181 39.2236 112.381 39.4238C112.582 39.624 112.738 39.8633 112.842 40.1268C112.946 40.3902 112.995 40.6722 112.985 40.9552V48.8162H117.285V40.2392C117.317 39.5753 117.217 38.9117 116.99 38.287C116.763 37.6622 116.414 37.0889 115.964 36.6004C115.513 36.1119 114.97 35.7181 114.365 35.4418C113.761 35.1655 113.107 35.0123 112.443 34.9912Z" fill="black"/>
<path d="M127.078 49.0892C131.143 49.0892 133.921 46.7142 134.499 43.3252H130.027C129.787 43.9071 129.377 44.4031 128.851 44.7483C128.325 45.0936 127.707 45.2719 127.078 45.2602C126.652 45.2688 126.23 45.1913 125.835 45.0323C125.441 44.8734 125.082 44.6363 124.782 44.3354C124.481 44.0344 124.244 43.6757 124.086 43.2809C123.928 42.8862 123.851 42.4635 123.86 42.0382C123.851 41.6131 123.928 41.1906 124.086 40.7961C124.245 40.4016 124.482 40.0433 124.782 39.7427C125.083 39.442 125.441 39.2053 125.836 39.0468C126.23 38.8882 126.653 38.8112 127.078 38.8202C127.707 38.8068 128.325 38.9841 128.851 39.3288C129.378 39.6734 129.787 40.1693 130.027 40.7512H134.499C133.921 37.3622 131.143 34.9922 127.078 34.9922C122.536 34.9922 119.522 37.9732 119.522 42.0382C119.522 46.1032 122.537 49.0892 127.078 49.0892Z" fill="black"/>
<path d="M142.799 49.0897C146.899 49.0897 149.169 46.9507 149.169 43.6317V35.2637H144.864V43.0557C144.882 43.3379 144.842 43.6208 144.746 43.887C144.651 44.1531 144.501 44.3968 144.308 44.603C144.114 44.8092 143.88 44.9735 143.621 45.0857C143.361 45.198 143.082 45.2558 142.799 45.2557C142.518 45.2524 142.242 45.1919 141.986 45.078C141.729 44.9641 141.499 44.7992 141.309 44.5933C141.118 44.3873 140.972 44.1448 140.879 43.8804C140.785 43.6161 140.747 43.3354 140.766 43.0557V35.2637H136.426V43.6307C136.426 46.9507 138.697 49.0897 142.799 49.0897Z" fill="black"/>
<path d="M156.722 49.0896C159.773 49.0896 161.635 47.2236 161.635 44.6816C161.635 41.9736 159.398 40.8816 157.468 40.1396C156.486 39.7396 156.009 39.5326 156.009 39.0236C156.009 38.5836 156.347 38.2456 157.092 38.2456C157.491 38.2509 157.885 38.3411 158.247 38.5102C158.609 38.6794 158.931 38.9236 159.192 39.2266L161.359 36.7876C160.126 35.6159 158.485 34.9703 156.785 34.9876C153.705 34.9876 151.738 37.0206 151.738 39.3256C151.738 42.0336 154.45 42.9506 156.007 43.5256C157.229 44.0026 157.632 44.3406 157.632 44.8126C157.632 45.3586 157.16 45.6596 156.446 45.6596C155.971 45.6657 155.505 45.5349 155.102 45.2829C154.7 45.0309 154.379 44.6684 154.177 44.2386L150.992 45.8306C151.81 47.9396 154.315 49.0896 156.722 49.0896Z" fill="black"/>
<path d="M183.556 28.4863L178.709 43.0233L173.866 28.4863H168.882L176.201 48.8163H181.216L188.535 28.4863H183.556Z" fill="black"/>
<path d="M203.339 42.006C203.339 37.77 200.427 34.959 196.056 34.959C191.685 34.959 188.602 37.807 188.602 42.038C188.602 46.269 191.653 49.089 196.19 49.089C199.953 49.089 202.458 47.089 203.135 44.14H198.968C198.752 44.7026 198.356 45.1775 197.841 45.4902C197.326 45.8028 196.722 45.9354 196.124 45.867C194.157 45.867 193.143 44.681 192.971 42.751H203.337L203.339 42.006ZM196.125 38.279C196.725 38.2311 197.324 38.3894 197.823 38.7278C198.321 39.0661 198.689 39.5642 198.867 40.14H193.242C193.45 39.5553 193.845 39.0558 194.367 38.7193C194.888 38.3829 195.506 38.2284 196.125 38.28V38.279Z" fill="black"/>
<path d="M214.012 34.9912C213.264 34.9968 212.527 35.1736 211.857 35.5081C211.188 35.8427 210.604 36.3261 210.151 36.9212V35.2642H205.813V48.8162H210.151V40.9552C210.156 40.665 210.22 40.3789 210.338 40.1136C210.455 39.8484 210.625 39.6093 210.836 39.4104C211.047 39.2115 211.296 39.0569 211.568 38.9555C211.84 38.8542 212.13 38.8081 212.42 38.8202C212.703 38.8106 212.985 38.8592 213.248 38.9631C213.511 39.067 213.75 39.2239 213.95 39.4242C214.151 39.6244 214.307 39.8636 214.411 40.127C214.515 40.3904 214.564 40.6723 214.554 40.9552V48.8162H218.854V40.2392C218.886 39.5753 218.786 38.9117 218.559 38.287C218.332 37.6622 217.983 37.0889 217.533 36.6004C217.082 36.1119 216.539 35.7181 215.934 35.4418C215.33 35.1655 214.676 35.0123 214.012 34.9912Z" fill="black"/>
<path d="M230.208 38.6179V35.2659H226.986V30.0479H222.686V35.2659H220.417V38.6179H222.686V43.9709C222.713 45.355 223.289 46.6718 224.286 47.6318C225.284 48.5918 226.622 49.1166 228.006 49.0909C228.754 49.122 229.497 48.9696 230.173 48.6469V45.2949H228.548C228.321 45.289 228.098 45.2355 227.894 45.1378C227.689 45.0402 227.507 44.9006 227.36 44.7281C227.213 44.5556 227.104 44.3541 227.04 44.1366C226.975 43.9191 226.958 43.6906 226.988 43.4659V38.6179H230.208Z" fill="black"/>
<path d="M238.405 49.0897C242.505 49.0897 244.776 46.9507 244.776 43.6317V35.2637H240.471V43.0557C240.489 43.3379 240.449 43.6208 240.353 43.887C240.258 44.1531 240.108 44.3968 239.915 44.603C239.721 44.8092 239.488 44.9735 239.228 45.0857C238.969 45.198 238.689 45.2558 238.406 45.2557C238.126 45.2524 237.849 45.1919 237.593 45.078C237.336 44.9641 237.106 44.7992 236.916 44.5933C236.726 44.3873 236.579 44.1448 236.486 43.8804C236.393 43.6161 236.354 43.3354 236.373 43.0557V35.2637H232.036V43.6307C232.035 46.9507 234.304 49.0897 238.405 49.0897Z" fill="black"/>
<path d="M256.089 34.9915C255.328 34.9966 254.58 35.1951 253.917 35.5684C253.254 35.9417 252.696 36.4775 252.297 37.1256V35.2645H247.959V48.8165H252.297V42.3395C252.271 41.8585 252.35 41.3777 252.527 40.9296C252.703 40.4815 252.974 40.0767 253.321 39.7425C253.668 39.4083 254.083 39.1525 254.537 38.9926C254.992 38.8327 255.475 38.7723 255.955 38.8156C256.376 38.817 256.797 38.8622 257.209 38.9505V35.1225C256.844 35.0225 256.467 34.9783 256.089 34.9915Z" fill="black"/>
<path d="M272.385 42.006C272.385 37.77 269.473 34.959 265.102 34.959C260.731 34.959 257.648 37.807 257.648 42.038C257.648 46.269 260.699 49.089 265.236 49.089C268.999 49.089 271.504 47.089 272.181 44.14H268.014C267.798 44.7026 267.402 45.1775 266.887 45.4902C266.372 45.8028 265.768 45.9354 265.17 45.867C263.203 45.867 262.189 44.681 262.017 42.751H272.383L272.385 42.006ZM265.171 38.279C265.771 38.2311 266.37 38.3894 266.869 38.7278C267.367 39.0661 267.735 39.5642 267.913 40.14H262.288C262.496 39.5553 262.891 39.0558 263.413 38.7193C263.934 38.3829 264.552 38.2284 265.171 38.28V38.279Z" fill="black"/>
<path d="M279.229 49.0897C282.28 49.0897 284.141 47.2237 284.141 44.6817C284.141 41.9737 281.905 40.8816 279.974 40.1396C278.993 39.7396 278.516 39.5326 278.516 39.0236C278.516 38.5836 278.854 38.2457 279.599 38.2457C279.998 38.251 280.392 38.3412 280.754 38.5103C281.116 38.6795 281.438 38.9236 281.699 39.2266L283.865 36.7877C282.632 35.6155 280.992 34.9699 279.291 34.9877C276.211 34.9877 274.244 37.0206 274.244 39.3256C274.244 42.0336 276.957 42.9507 278.513 43.5257C279.735 44.0027 280.138 44.3406 280.138 44.8126C280.138 45.3586 279.666 45.6597 278.952 45.6597C278.477 45.6657 278.011 45.5349 277.608 45.2829C277.206 45.0309 276.885 44.6684 276.683 44.2386L273.498 45.8307C274.317 47.9397 276.822 49.0897 279.229 49.0897Z" fill="black"/>
</g>
</g>
<defs>
<clipPath id="clip0_2130_1251">
<rect width="259.488" height="37.305" fill="white" transform="translate(24.6538 19.3477)"/>
</clipPath>
</defs>
</svg>
