<svg width="151" height="76" viewBox="0 0 151 76" fill="none" xmlns="http://www.w3.org/2000/svg">
<g opacity="0.8">
<g clip-path="url(#clip0_2130_1227)">
<path d="M24.6289 25.2232C24.5819 24.8002 24.7939 24.2602 25.2799 24.2472C28.0369 24.2232 30.7969 24.2372 33.5539 24.2402C36.2949 24.3342 39.1869 24.6242 41.5379 26.1662C42.8604 27.0202 43.9643 28.1723 44.7613 29.53C45.5582 30.8876 46.0259 32.4131 46.1269 33.9842C46.3784 36.2527 45.8047 38.5359 44.5109 40.4162C42.8147 42.522 40.3972 43.9231 37.7269 44.3482C36.4645 44.6081 35.1835 44.7669 33.8959 44.8232C33.8859 46.8872 33.9109 48.9512 33.8859 51.0132C33.8938 51.1082 33.8819 51.2038 33.8507 51.2939C33.8195 51.384 33.7698 51.4666 33.7049 51.5364C33.6399 51.6061 33.561 51.6616 33.4734 51.6991C33.3858 51.7366 33.2912 51.7554 33.1959 51.7542C30.5849 51.7782 27.9719 51.7732 25.3629 51.7542C24.8629 51.8102 24.5749 51.2912 24.6289 50.8482C24.6276 42.3062 24.6276 33.7645 24.6289 25.2232ZM28.9539 27.8232C28.9539 34.6139 28.9539 41.4042 28.9539 48.1942H29.5719C29.5719 45.9735 29.5719 43.7535 29.5719 41.5342C31.7969 41.6149 34.0249 41.5327 36.2379 41.2882C37.642 41.1366 38.9714 40.5784 40.0629 39.6822C41.0449 38.7745 41.6544 37.5342 41.7729 36.2022C42.0684 34.3629 41.6842 32.4788 40.6919 30.9022C39.6478 29.5339 38.1407 28.5931 36.4529 28.2562C34.0009 27.6412 31.4539 27.8692 28.9539 27.8262V27.8232Z" fill="black"/>
<path d="M54.2218 24.8768C54.3378 24.5688 54.5378 24.1868 54.9288 24.2198C56.7288 24.2008 58.5288 24.2078 60.3288 24.2198C60.7208 24.1678 60.9648 24.5197 61.0758 24.8427C64.5925 33.7967 68.1118 42.7498 71.6338 51.7018C71.6218 42.8304 71.6218 33.9587 71.6338 25.0867C71.6178 24.978 71.626 24.8671 71.6578 24.7619C71.6897 24.6568 71.7445 24.5599 71.8181 24.4784C71.8918 24.3969 71.9826 24.3327 72.0841 24.2904C72.1855 24.2481 72.295 24.2287 72.4048 24.2337C75.0048 24.2251 77.6022 24.2251 80.1968 24.2337C80.305 24.2322 80.4122 24.2537 80.5114 24.2969C80.6106 24.3401 80.6994 24.4039 80.7719 24.4842C80.8444 24.5645 80.899 24.6593 80.9319 24.7624C80.9648 24.8654 80.9754 24.9743 80.9628 25.0818C80.9758 26.8978 80.9628 28.7157 80.9678 30.5347C82.9218 28.5177 84.8678 26.4857 86.8208 24.4747C86.9155 24.3726 87.0336 24.2952 87.165 24.2491C87.2965 24.2031 87.4371 24.19 87.5748 24.2108C91.1182 24.2108 94.6622 24.2158 98.2068 24.2258C98.3587 24.2158 98.51 24.2522 98.6408 24.33C98.7715 24.4079 98.8756 24.5236 98.9392 24.6618C99.0028 24.8001 99.023 24.9544 98.997 25.1044C98.971 25.2543 98.9002 25.3929 98.7938 25.5018C95.0268 29.2258 91.2288 32.9188 87.4498 36.6328C91.4278 41.3577 95.4498 46.0398 99.3318 50.8488C102.746 42.1821 106.156 33.5114 109.564 24.8367C109.677 24.5217 109.907 24.1697 110.293 24.2187C112.093 24.2054 113.895 24.2054 115.7 24.2187C116.084 24.1797 116.3 24.5467 116.412 24.8567C119.792 33.4707 123.177 42.0838 126.568 50.6958C126.626 50.8049 126.655 50.9272 126.653 51.0509C126.65 51.1746 126.616 51.2956 126.553 51.4022C126.49 51.5088 126.401 51.5974 126.294 51.6595C126.187 51.7216 126.066 51.7551 125.942 51.7567C123.542 51.7807 121.133 51.7567 118.727 51.7697C118.395 51.7447 117.941 51.8257 117.749 51.4787C117.419 50.8407 117.227 50.1417 116.949 49.4787C114.316 49.4787 111.683 49.4787 109.049 49.4787C108.773 50.1417 108.579 50.8407 108.249 51.4787C108.129 51.7177 107.842 51.7518 107.606 51.7598C101.275 51.7668 94.9428 51.8107 88.6058 51.7767C88.4606 51.7741 88.3181 51.7363 88.1907 51.6667C88.0632 51.597 87.9545 51.4976 87.8738 51.3768C85.5678 48.6228 83.2622 45.8681 80.9568 43.1127C80.9498 45.7337 80.9668 48.3568 80.9498 50.9778C80.958 51.0835 80.9434 51.1898 80.9071 51.2895C80.8708 51.3892 80.8136 51.4799 80.7394 51.5557C80.6651 51.6315 80.5756 51.6905 80.4766 51.7288C80.3777 51.7671 80.2717 51.7838 80.1658 51.7778C74.5528 51.8128 68.9428 51.7387 63.3318 51.7657C63.0038 51.7507 62.5558 51.8007 62.3888 51.4427C62.0778 50.8097 61.8808 50.1278 61.6108 49.4778C58.9795 49.4778 56.3481 49.4778 53.7168 49.4778C53.4538 50.1178 53.2518 50.7778 52.9578 51.4068C52.8128 51.7708 52.3768 51.7617 52.0508 51.7657C49.6368 51.7587 47.2228 51.7658 44.8088 51.7608C44.7037 51.7753 44.5967 51.7668 44.4952 51.7358C44.3938 51.7048 44.3003 51.6521 44.2213 51.5813C44.1423 51.5104 44.0796 51.4232 44.0378 51.3257C43.9959 51.2283 43.9758 51.1228 43.9788 51.0168C44.0845 50.5941 44.2288 50.182 44.4098 49.7858C47.6865 41.4838 50.9572 33.1808 54.2218 24.8768ZM49.4358 48.1967H50.0928C50.3502 47.5101 50.6081 46.8231 50.8668 46.1358C55.3955 46.1358 59.9245 46.1358 64.4538 46.1358C64.7205 46.8244 64.9915 47.5111 65.2668 48.1958H65.9198C63.1745 41.1958 60.4271 34.1978 57.6778 27.2018C54.9305 34.1998 52.1831 41.1981 49.4358 48.1967ZM104.765 48.1967C104.928 48.1967 105.257 48.1967 105.42 48.1967C105.678 47.5097 105.937 46.8248 106.191 46.1378C110.724 46.1324 115.255 46.1324 119.783 46.1378C120.049 46.8248 120.322 47.5097 120.593 48.1947H121.25C118.504 41.1947 115.757 34.1967 113.008 27.2007C110.258 34.2001 107.51 41.1987 104.764 48.1967H104.765ZM75.9648 27.8257V48.1967C76.1858 48.1967 76.4038 48.1967 76.6248 48.1967C76.6248 46.1074 76.6248 44.0177 76.6248 41.9277C78.3315 40.2511 80.0395 38.5761 81.7488 36.9028C84.7568 40.6668 87.7638 44.4314 90.7698 48.1967H91.5698C88.4131 44.2741 85.2555 40.3534 82.0968 36.4348C84.9115 33.5628 87.7285 30.6931 90.5478 27.8257C90.2108 27.8257 89.8758 27.8257 89.5398 27.8257C85.2405 32.2817 80.9355 36.7331 76.6248 41.1797C76.6215 36.7271 76.6215 32.2737 76.6248 27.8197L75.9648 27.8257Z" fill="black"/>
<path d="M29.5718 28.4859C31.1718 28.4939 32.7718 28.4609 34.3718 28.5249C35.479 28.5226 36.5774 28.7212 37.6138 29.1109C38.9851 29.7453 40.084 30.8496 40.7118 32.2239C41.2804 33.5827 41.4247 35.0817 41.1258 36.5239C41.0041 37.2029 40.7404 37.8485 40.352 38.4186C39.9636 38.9886 39.4592 39.4703 38.8718 39.8319C37.7571 40.4361 36.5178 40.7742 35.2508 40.8199C33.3608 40.9399 31.4668 40.8649 29.5758 40.8839L29.5718 28.4859ZM33.8948 31.7529C33.8948 33.4583 33.8948 35.1629 33.8948 36.8669C33.9238 37.0769 33.8208 37.3769 34.0668 37.4879C34.5111 37.521 34.9571 37.4545 35.3724 37.293C35.7876 37.1316 36.1615 36.8794 36.4668 36.5549C36.894 35.8326 37.0536 34.9831 36.9178 34.1549C36.9035 33.7068 36.7718 33.2703 36.5357 32.8891C36.2997 32.5079 35.9676 32.1954 35.5728 31.9829C35.0521 31.7298 34.4643 31.6492 33.8948 31.7529Z" fill="black"/>
<path d="M51.1399 45.4739C53.3186 39.9285 55.4986 34.3835 57.6799 28.8389C59.8579 34.3842 62.0372 39.9292 64.2179 45.4739C59.8579 45.4759 55.4986 45.4759 51.1399 45.4739ZM57.5129 40.0739C57.1709 40.7439 56.9589 41.4739 56.6609 42.1629C56.6019 42.4069 56.3509 42.7069 56.5999 42.9209C57.3881 43.0276 58.1895 42.9808 58.9599 42.7829C58.622 41.8407 58.2338 40.9174 57.7969 40.0169L57.5129 40.0739Z" fill="black"/>
<path d="M113.005 28.834C115.186 34.3807 117.366 39.9273 119.545 45.474H106.467C108.645 39.9273 110.824 34.3807 113.005 28.834ZM112.805 40.134C112.475 40.856 112.221 41.612 111.923 42.349C111.862 42.527 111.682 42.886 112.007 42.921C112.729 42.9818 113.455 42.9684 114.175 42.881L114.241 42.724C113.93 41.8051 113.57 40.9037 113.162 40.024C113.088 40.024 112.94 40.024 112.867 40.024L112.805 40.134Z" fill="black"/>
</g>
</g>
<defs>
<clipPath id="clip0_2130_1227">
<rect width="102.031" height="27.585" fill="white" transform="translate(24.6229 24.207)"/>
</clipPath>
</defs>
</svg>
