<svg width="134" height="62" viewBox="0 0 134 62" fill="none" xmlns="http://www.w3.org/2000/svg">
<path d="M12.4657 13.6211H18.3658V39.655H12.4657V13.6211Z" fill="black"/>
<path d="M28.7892 18.5518H34.6893V38.4322H28.7892V18.5518Z" fill="black"/>
<path d="M88.2815 19.5381H94.1816V39.2607H88.2815V19.5381Z" fill="black"/>
<path d="M43.5393 18.5518H49.4394V38.4322H43.5393V18.5518Z" fill="black"/>
<path d="M103.032 29.3994H108.932V33.3439H103.032V29.3994Z" fill="black"/>
<path d="M57.8962 19.5381H63.7963V23.4826H57.8962V19.5381Z" fill="black"/>
<path d="M72.6464 29.3994H78.5464V33.3439H72.6464V29.3994Z" fill="black"/>
<path d="M28.7892 19.5379V13.6211H49.4394V19.5379H28.7892Z" fill="black"/>
<path d="M88.2815 19.5379V13.6211H108.932V19.5379H88.2815Z" fill="black"/>
<path d="M57.8962 19.5379V13.6211H78.5465V19.5379H57.8962Z" fill="black"/>
<path d="M57.8962 29.3992V23.4824H78.5465V29.3992H57.8962Z" fill="black"/>
<path d="M57.8962 39.2605V33.3438H78.5465V39.2605H57.8962Z" fill="black"/>
<path d="M98.115 29.3992V23.4824H108.932V29.3992H98.115Z" fill="black"/>
<path d="M28.7892 39.6551V33.7383H49.4394V39.6551H28.7892Z" fill="black"/>
<path d="M88.2815 39.2605V33.3438H108.932V39.2605H88.2815Z" fill="black"/>
<path d="M21.9294 44.083H20.401L17.2207 53.6665H17.1898L14.0404 44.083H12.4502L16.3407 55.1373H18.0081L21.9294 44.083ZM26.6587 55.1373H34.3162V53.8988H28.1254V50.0746H33.8531V48.8361H28.1254V45.3216H34.2699V44.083H26.6587V55.1373ZM42.9437 50.6242V49.3315H44.2328V50.6242H42.9437ZM41.6585 49.3315V48.0425H42.9437V49.3315H41.6585ZM39.0841 55.1373V44.172H40.3732V46.7537H41.6585V48.0425H40.3732V55.1373H39.0841ZM45.5181 55.1373V51.9131H44.2328V50.6242H45.5181V44.172H46.8033V55.1373H45.5181ZM54.7002 55.1373H56.1669V45.3216H59.8412V44.083H51.0258V45.3216H54.7002V55.1373ZM65.3408 55.1373V53.8484H70.4856V55.1373H65.3408ZM64.0517 53.8484V44.172H65.3408V53.8484H64.0517ZM70.4856 53.8484V44.172H71.771V53.8484H70.4856ZM83.0373 55.1373V53.8484H84.3226V55.1373H83.0373ZM81.752 53.8484V52.5595H83.0373V53.8484H81.752ZM80.463 52.5595V51.2668H81.752V52.5595H80.463ZM83.0373 48.6889V45.4609H84.3226V48.6889H83.0373ZM76.6033 55.1373V44.172H83.0373V45.4609H77.8924V48.6889H83.0373V49.9778H80.463V51.2668H79.1776V49.9778H77.8924V55.1373H76.6033ZM89.7182 55.1373H97.3755V53.8988H91.1853V50.0746H96.9124V48.8361H91.1853V45.3216H97.3293V44.083H89.7182V55.1373ZM102.789 55.1373V53.8484H108.578V55.1373H102.789ZM108.578 53.8484V49.9778H109.863V53.8484H108.578ZM103.433 49.9778V48.6889H108.578V49.9778H103.433ZM102.144 48.6889V45.4609H103.433V48.6889H102.144ZM103.433 45.4609V44.172H109.222V45.4609H103.433Z" fill="black"/>
<path d="M108.932 13.6211H105.982V16.5795H108.932V13.6211Z" fill="black"/>
<path d="M108.932 23.4824H105.982V26.4408H108.932V23.4824Z" fill="black"/>
<path d="M78.5465 13.6211H75.5964V16.5795H78.5465V13.6211Z" fill="black"/>
<path d="M49.4395 34.3295V31.3711H46.4894V34.3295H49.4395Z" fill="black"/>
<path d="M105.982 16.5791H103.032V19.5375H105.982V16.5791Z" fill="black"/>
<path d="M105.982 26.4404H103.032V29.3988H105.982V26.4404Z" fill="black"/>
<path d="M75.5964 16.5791H72.6464V19.5375H75.5964V16.5791Z" fill="black"/>
<path d="M103.032 13.6211H100.082V16.5795H103.032V13.6211Z" fill="black"/>
<path d="M49.4395 28.4135V25.4551H46.4894V28.4135H49.4395Z" fill="black"/>
<path d="M18.3657 28.4135V25.4551H15.4157V28.4135H18.3657Z" fill="black"/>
<path d="M69.6964 16.5791H66.7463V19.5375H69.6964V16.5791Z" fill="black"/>
<path d="M63.698 16.5791H60.7479V19.5375H63.698V16.5791Z" fill="black"/>
<path d="M72.6463 13.6211H69.6963V16.5795H72.6463V13.6211Z" fill="black"/>
<path d="M15.4156 25.4545V22.4961H12.4656V25.4545H15.4156Z" fill="black"/>
<path d="M94.1816 16.5791H91.2316V19.5375H94.1816V16.5791Z" fill="black"/>
<path d="M100.082 16.5791H97.1316V19.5375H100.082V16.5791Z" fill="black"/>
<path d="M103.032 23.5811H100.082V26.5394H103.032V23.5811Z" fill="black"/>
<path d="M108.932 29.3994H105.982V32.3578H108.932V29.3994Z" fill="black"/>
<path d="M34.6892 19.5375V16.5791H31.7392V19.5375H34.6892Z" fill="black"/>
<path d="M37.6393 16.5795V13.6211H34.6892V16.5795H37.6393Z" fill="black"/>
<path d="M40.5894 19.5375V16.5791H37.6393V19.5375H40.5894Z" fill="black"/>
<path d="M46.4894 19.5375V16.5791H43.5393V19.5375H46.4894Z" fill="black"/>
<path d="M49.4395 22.4965V19.5381H46.4894V22.4965H49.4395Z" fill="black"/>
<path d="M46.4894 25.4545V22.4961H43.5393V25.4545H46.4894Z" fill="black"/>
<path d="M46.4894 31.4701V28.5117H43.5393V31.4701H46.4894Z" fill="black"/>
<path d="M31.7393 16.5795V13.6211H28.7892V16.5795H31.7393Z" fill="black"/>
<path d="M78.5465 26.5391H75.5964V29.4975H78.5465V26.5391Z" fill="black"/>
<path d="M72.6463 26.4404H69.6963V29.3988H72.6463V26.4404Z" fill="black"/>
<path d="M75.5964 29.3994H72.6464V32.3578H75.5964V29.3994Z" fill="black"/>
<path d="M78.5465 32.3574H75.5964V35.3158H78.5465V32.3574Z" fill="black"/>
<path d="M97.1317 13.6211H94.1816V16.5795H97.1317V13.6211Z" fill="black"/>
<path d="M66.7463 13.6211H63.7963V16.5795H66.7463V13.6211Z" fill="black"/>
<path d="M18.3657 22.4965V19.5381H15.4157V22.4965H18.3657Z" fill="black"/>
<path d="M15.4156 19.5375V16.5791H12.4656V19.5375H15.4156Z" fill="black"/>
<path d="M60.8463 13.6211H57.8962V16.5795H60.8463V13.6211Z" fill="black"/>
<path d="M49.4395 16.5795V13.6211H46.4894V16.5795H49.4395Z" fill="black"/>
<path d="M18.3657 16.5795V13.6211H15.4157V16.5795H18.3657Z" fill="black"/>
<path d="M43.5393 16.5795V13.6211H40.5893V16.5795H43.5393Z" fill="black"/>
<path d="M75.5964 23.5811H72.6464V26.5394H75.5964V23.5811Z" fill="black"/>
<path d="M69.6964 23.4824H66.7463V26.4408H69.6964V23.4824Z" fill="black"/>
<path d="M65.1729 4.35156H62.2229V7.30996H65.1729V4.35156Z" fill="black"/>
<path d="M57.7978 7.7041H54.8478V10.6625H57.7978V7.7041Z" fill="black"/>
<path d="M23.8724 4.74609H20.9224V7.70449H23.8724V4.74609Z" fill="black"/>
<path d="M76.9731 6.22461H74.0231V9.183H76.9731V6.22461Z" fill="black"/>
<path d="M115.815 22.0029H112.865V24.9613H115.815V22.0029Z" fill="black"/>
<path d="M122.305 31.0752H119.355V34.0336H122.305V31.0752Z" fill="black"/>
<path d="M114.93 36.1045H111.98V39.0629H114.93V36.1045Z" fill="black"/>
</svg>
