<svg width="186" height="76" viewBox="0 0 186 76" fill="none" xmlns="http://www.w3.org/2000/svg">
<g opacity="0.8">
<g clip-path="url(#clip0_2130_1384)">
<path d="M90.4537 52.2061C90.3658 52.2008 90.2784 52.2229 90.2037 52.2695C90.1289 52.3161 90.0706 52.3848 90.0367 52.4661C89.9109 52.7857 89.7628 53.0962 89.5937 53.3951C89.4461 53.6571 89.2515 53.8896 89.0197 54.0811C88.7682 54.2799 88.4785 54.4249 88.1687 54.5071C87.7578 54.6143 87.3342 54.6641 86.9097 54.6551C86.2991 54.6584 85.696 54.5215 85.1467 54.2551C84.5917 53.9852 84.1005 53.6004 83.7057 53.1261C83.2776 52.6105 82.945 52.0226 82.7237 51.3901C82.4746 50.6816 82.3514 49.935 82.3597 49.1841C82.3513 48.5218 82.4479 47.8623 82.6457 47.2301C82.8207 46.6758 83.1106 46.1647 83.4967 45.7301C83.8822 45.307 84.357 44.975 84.8867 44.7581C85.4904 44.5164 86.1365 44.3984 86.7867 44.4111C87.4752 44.3666 88.1605 44.5364 88.7487 44.8971C89.257 45.3106 89.6068 45.8872 89.7387 46.5291C89.743 46.5715 89.759 46.6118 89.785 46.6455C89.811 46.6792 89.8458 46.7051 89.8857 46.7201C89.9674 46.7444 90.0524 46.7562 90.1377 46.7551C90.2344 46.7541 90.3296 46.7304 90.4157 46.6861C90.2997 46.2234 90.207 45.7661 90.1377 45.3141C90.0758 44.9347 90.035 44.5521 90.0157 44.1681C89.715 44.0874 89.4257 44.0151 89.1477 43.9511C88.8697 43.8871 88.586 43.8351 88.2967 43.7951C88.0073 43.7544 87.7037 43.7254 87.3857 43.7081C87.0677 43.6908 86.7177 43.6821 86.3357 43.6821C85.4551 43.6626 84.5817 43.8438 83.7817 44.2121C83.0877 44.5379 82.4694 45.0053 81.9667 45.5841C81.4909 46.1375 81.1256 46.7771 80.8907 47.4681C80.6584 48.1327 80.5381 48.8311 80.5347 49.5351C80.5283 50.316 80.6485 51.0927 80.8907 51.8351C81.1139 52.5239 81.4806 53.1575 81.9667 53.6941C82.4716 54.2379 83.0917 54.6619 83.7817 54.9351C84.5951 55.2518 85.4629 55.4054 86.3357 55.3871C87.041 55.3871 87.6893 55.3611 88.2807 55.3091C88.872 55.2571 89.4507 55.1848 90.0167 55.0921C90.1093 54.6054 90.2253 54.1191 90.3647 53.6331C90.504 53.1471 90.6427 52.7014 90.7807 52.2961C90.7352 52.2681 90.6856 52.2475 90.6337 52.2351C90.5752 52.2175 90.5147 52.2077 90.4537 52.2061Z" fill="black"/>
<path d="M99.2416 54.7071C99.1848 54.7069 99.1285 54.7189 99.0766 54.7421C98.99 54.7706 98.8987 54.7825 98.8076 54.7771C98.7028 54.7762 98.5997 54.7494 98.5076 54.6991C98.3869 54.6221 98.2929 54.5096 98.2386 54.3771C98.1712 54.244 98.1273 54.1002 98.1086 53.9521C98.0731 53.6612 98.0584 53.3681 98.0646 53.0751V50.0871C98.0782 49.674 98.0158 49.2618 97.8806 48.8711C97.7721 48.5786 97.5869 48.3207 97.3446 48.1241C97.098 47.9335 96.8104 47.8027 96.5046 47.7421C96.1425 47.6705 95.7738 47.6369 95.4046 47.6421C95.0556 47.6469 94.7097 47.7087 94.3806 47.8251C94.029 47.9425 93.6931 48.1027 93.3806 48.3021C93.0919 48.4827 92.8365 48.7117 92.6256 48.9791C92.4424 49.1927 92.3367 49.4619 92.3257 49.7431C92.3257 49.9864 92.3836 50.1081 92.4996 50.1081C92.5876 50.1055 92.6751 50.0938 92.7607 50.0731C92.8607 50.0501 92.9516 50.0271 93.0206 50.0041C93.2311 49.9507 93.4371 49.8808 93.6366 49.7951C93.6941 49.7697 93.745 49.7315 93.7855 49.6835C93.826 49.6356 93.8551 49.579 93.8706 49.5181C93.9373 49.2981 94.0066 49.1068 94.0786 48.9441C94.1364 48.801 94.2186 48.669 94.3216 48.5541C94.4171 48.4536 94.5365 48.379 94.6686 48.3371C94.8306 48.2879 94.9994 48.2646 95.1686 48.2681C95.3848 48.2457 95.603 48.2833 95.7991 48.3768C95.9953 48.4703 96.1619 48.6161 96.2806 48.7981C96.5037 49.2106 96.6118 49.6755 96.5936 50.1441C96.6046 50.3029 96.5839 50.4624 96.5326 50.6131C96.4618 50.714 96.354 50.7826 96.2326 50.8041C96.0873 50.8551 95.9395 50.8985 95.7896 50.9341C95.6216 50.9748 95.439 51.0121 95.2416 51.0461C94.8946 51.1271 94.5326 51.2251 94.1566 51.3461C93.792 51.4567 93.4421 51.6112 93.1146 51.8061C92.8044 51.9899 92.538 52.239 92.3336 52.5361C92.1246 52.8587 92.0198 53.2379 92.0336 53.6221C92.0178 53.9441 92.0959 54.2638 92.2586 54.5421C92.4013 54.7668 92.5984 54.9518 92.8316 55.0801C93.0609 55.2068 93.3108 55.2921 93.5696 55.3321C93.8137 55.3714 94.0604 55.3917 94.3076 55.3931C94.7836 55.4027 95.2556 55.305 95.6886 55.1071C96.1357 54.8673 96.4968 54.4939 96.7217 54.0391C96.7449 54.2116 96.7924 54.3799 96.8626 54.5391C96.9334 54.7019 97.0353 54.8494 97.1626 54.9731C97.299 55.1043 97.4606 55.2064 97.6376 55.2731C97.8503 55.3531 98.0765 55.3915 98.3037 55.3861C98.7088 55.4027 99.1092 55.2934 99.4496 55.0731C99.4416 54.8281 99.3676 54.7071 99.2416 54.7071ZM96.6016 52.6751C96.6049 52.9489 96.5547 53.2207 96.4536 53.4751C96.362 53.7064 96.2322 53.9207 96.0696 54.1091C95.915 54.2866 95.724 54.4289 95.5096 54.5261C95.3045 54.6218 95.081 54.672 94.8546 54.6731C94.697 54.6772 94.5402 54.6484 94.3942 54.5887C94.2482 54.5289 94.1163 54.4395 94.0067 54.3261C93.8863 54.189 93.7943 54.0294 93.736 53.8566C93.6776 53.6838 93.654 53.5011 93.6666 53.3191C93.6566 53.0339 93.7258 52.7514 93.8666 52.5031C94.0009 52.283 94.1831 52.096 94.3996 51.9561C94.6342 51.8051 94.8905 51.6908 95.1596 51.6171C95.445 51.5365 95.739 51.4671 96.0416 51.4091L96.6006 51.3221L96.6016 52.6751Z" fill="black"/>
<path d="M107.56 48.6023C107.3 48.2996 106.978 48.0567 106.615 47.8903C106.253 47.7239 105.859 47.638 105.46 47.6383C104.889 47.6188 104.327 47.7797 103.853 48.0983C103.407 48.4164 103.012 48.8001 102.681 49.2363C102.681 48.8656 102.689 48.5846 102.707 48.3933C102.724 48.2023 102.733 48.0373 102.733 47.8983C102.733 47.7243 102.657 47.6373 102.507 47.6373C102.357 47.6469 102.208 47.6731 102.064 47.7153C101.838 47.7716 101.609 47.815 101.378 47.8453C101.163 47.885 100.945 47.911 100.727 47.9233C100.467 47.9403 100.261 47.9493 100.111 47.9493C100.089 48.0286 100.077 48.1102 100.076 48.1923C100.076 48.3196 100.151 48.395 100.302 48.4183C100.577 48.4073 100.846 48.5001 101.057 48.6783C101.185 48.8863 101.243 49.1299 101.222 49.3733V58.3343C101.226 58.4177 101.205 58.5005 101.162 58.5718C101.119 58.6432 101.055 58.6998 100.979 58.7343C100.779 58.8276 100.569 58.8974 100.354 58.9423C100.306 58.9504 100.263 58.9765 100.234 59.0152C100.205 59.0539 100.192 59.1023 100.198 59.1503C100.2 59.2439 100.212 59.337 100.233 59.4283C100.533 59.405 100.852 59.3846 101.188 59.3673C101.524 59.35 101.842 59.3413 102.143 59.3413C102.548 59.3413 102.981 59.35 103.443 59.3673C103.904 59.3846 104.269 59.405 104.537 59.4283C104.557 59.3369 104.569 59.2439 104.572 59.1503C104.574 59.1229 104.571 59.0952 104.563 59.069C104.555 59.0428 104.541 59.0184 104.523 58.9974C104.506 58.9764 104.484 58.9591 104.459 58.9466C104.435 58.934 104.408 58.9264 104.381 58.9243C103.938 58.8993 103.501 58.8149 103.081 58.6733C102.956 58.6279 102.85 58.5432 102.778 58.4321C102.706 58.321 102.672 58.1895 102.681 58.0573V54.9133C103.032 55.0769 103.401 55.1993 103.781 55.2783C104.139 55.3468 104.502 55.3803 104.867 55.3783C105.271 55.368 105.67 55.2765 106.039 55.1093C106.473 54.9219 106.87 54.6573 107.211 54.3283C107.583 53.9657 107.888 53.5393 108.111 53.0693C108.362 52.5315 108.487 51.943 108.475 51.3493C108.483 50.812 108.398 50.2773 108.223 49.7693C108.076 49.3427 107.851 48.9471 107.56 48.6023ZM106.717 52.9783C106.644 53.3104 106.514 53.6276 106.335 53.9163C106.175 54.1688 105.958 54.3799 105.701 54.5323C105.431 54.6867 105.125 54.7648 104.815 54.7583C104.405 54.7654 104 54.6728 103.634 54.4883C103.278 54.3024 102.955 54.0588 102.679 53.7673V50.7123C102.68 50.4388 102.743 50.169 102.861 49.9223C102.98 49.6663 103.138 49.4302 103.33 49.2223C103.513 49.0199 103.726 48.8472 103.963 48.7103C104.173 48.5834 104.412 48.5144 104.658 48.5103C104.98 48.5066 105.297 48.5969 105.569 48.7703C105.85 48.9532 106.088 49.1964 106.264 49.4823C106.465 49.8064 106.612 50.161 106.699 50.5323C106.798 50.9445 106.847 51.3672 106.846 51.7913C106.849 52.1906 106.807 52.589 106.718 52.9783H106.717Z" fill="black"/>
<path d="M114.021 54.0291C113.974 54.0302 113.928 54.0416 113.886 54.0625C113.844 54.0834 113.807 54.1133 113.778 54.1501C113.628 54.2643 113.468 54.3647 113.3 54.4501C113.131 54.5372 112.944 54.5818 112.754 54.5801C112.647 54.5817 112.541 54.5641 112.441 54.5281C112.335 54.4811 112.249 54.3983 112.198 54.2941C112.115 54.1311 112.062 53.9547 112.041 53.7731C112.002 53.4768 111.984 53.178 111.989 52.8791V48.5721H113.656C113.717 48.5765 113.777 48.5611 113.829 48.5284C113.881 48.4956 113.921 48.4472 113.943 48.3901C114.003 48.2144 114.03 48.0287 114.021 47.8431H111.99V46.0371H111.677C111.55 46.0371 111.434 46.1588 111.33 46.4021C111.225 46.6455 111.103 46.9058 110.965 47.1831C110.848 47.4233 110.683 47.6362 110.479 47.8081C110.261 47.977 109.99 48.0631 109.715 48.0511C109.678 48.0461 109.64 48.0531 109.607 48.0711C109.574 48.0891 109.548 48.1171 109.532 48.1511C109.502 48.2225 109.487 48.299 109.488 48.3761V48.5671H110.53V53.3601C110.52 53.7035 110.564 54.0463 110.66 54.3761C110.729 54.6064 110.851 54.8174 111.016 54.9921C111.164 55.1401 111.35 55.2439 111.554 55.2921C111.77 55.3452 111.991 55.3714 112.214 55.3701C112.606 55.3707 112.991 55.2624 113.326 55.0571C113.689 54.8357 114.017 54.5606 114.299 54.2411C114.217 54.1005 114.125 54.0298 114.021 54.0291Z" fill="black"/>
<path d="M118.641 54.7767C118.382 54.7371 118.128 54.6673 117.886 54.5687C117.805 54.5387 117.735 54.4839 117.687 54.4121C117.638 54.3403 117.614 54.2551 117.617 54.1687V49.3757C117.612 49.0768 117.63 48.778 117.669 48.4817C117.701 48.2892 117.718 48.0947 117.721 47.8997C117.721 47.7257 117.639 47.6387 117.475 47.6387C117.32 47.6485 117.167 47.6747 117.018 47.7167C116.807 47.7687 116.567 47.818 116.298 47.8647C116.123 47.8873 115.899 47.9077 115.627 47.9257C115.355 47.9427 115.144 47.9517 114.993 47.9517C114.972 48.0253 114.96 48.1012 114.958 48.1777C114.956 48.2087 114.96 48.2398 114.971 48.269C114.981 48.2983 114.997 48.3252 115.019 48.348C115.04 48.3708 115.065 48.3891 115.094 48.4017C115.122 48.4144 115.153 48.4212 115.184 48.4217C115.473 48.4111 115.755 48.51 115.974 48.6987C116.115 48.921 116.179 49.1835 116.156 49.4457V54.1697C116.158 54.2572 116.132 54.3432 116.082 54.4152C116.032 54.4871 115.961 54.5412 115.878 54.5697C115.643 54.6649 115.398 54.7346 115.149 54.7777C115.101 54.7856 115.058 54.8116 115.029 54.8503C114.999 54.889 114.986 54.9375 114.992 54.9857C114.994 55.038 115 55.0902 115.01 55.1417C115.021 55.2117 115.027 55.2527 115.027 55.2637C115.062 55.2637 115.143 55.2577 115.27 55.2457C115.397 55.2337 115.548 55.2227 115.722 55.2107C115.896 55.1987 116.085 55.1907 116.289 55.1847C116.493 55.1787 116.696 55.1757 116.895 55.1757C117.094 55.1757 117.295 55.1757 117.5 55.1847C117.705 55.1937 117.894 55.1997 118.067 55.2107C118.24 55.2217 118.389 55.2337 118.51 55.2457C118.631 55.2577 118.71 55.2637 118.744 55.2637C118.762 55.2257 118.771 55.1838 118.77 55.1417C118.776 55.0727 118.779 55.0207 118.779 54.9857C118.786 54.9399 118.776 54.8931 118.75 54.8545C118.725 54.8158 118.686 54.7881 118.641 54.7767Z" fill="black"/>
<path d="M117.581 45.4672C117.674 45.3708 117.747 45.2564 117.795 45.1309C117.843 45.0054 117.864 44.8714 117.859 44.7372C117.863 44.47 117.763 44.2115 117.581 44.0162C117.494 43.9187 117.386 43.8414 117.266 43.7896C117.146 43.7378 117.016 43.7128 116.886 43.7162C116.751 43.7123 116.617 43.737 116.493 43.7887C116.369 43.8404 116.257 43.918 116.165 44.0162C115.977 44.2092 115.874 44.4684 115.878 44.7372C115.872 44.8722 115.895 45.0068 115.944 45.1325C115.994 45.2582 116.069 45.3722 116.165 45.4672C116.26 45.5595 116.373 45.6316 116.497 45.6794C116.621 45.7271 116.753 45.7495 116.886 45.7452C117.014 45.7489 117.142 45.7261 117.262 45.6783C117.382 45.6305 117.49 45.5586 117.581 45.4672Z" fill="black"/>
<path d="M126.004 53.8569C125.954 53.858 125.906 53.8733 125.865 53.9009C125.819 53.9289 125.778 53.9549 125.744 53.9789C125.534 54.1077 125.316 54.2235 125.092 54.3259C124.798 54.4508 124.481 54.5102 124.163 54.4999C123.778 54.5122 123.396 54.4337 123.048 54.2707C122.7 54.1077 122.395 53.8649 122.158 53.5619C121.612 52.8005 121.345 51.8741 121.403 50.9389C121.366 50.2584 121.545 49.5837 121.915 49.0109C122.058 48.7903 122.255 48.6094 122.488 48.4849C122.72 48.3605 122.979 48.2965 123.243 48.2989C123.512 48.2824 123.778 48.359 123.998 48.5159C124.165 48.6472 124.309 48.8058 124.424 48.9849C124.528 49.1529 124.623 49.3093 124.711 49.4539C124.744 49.5193 124.795 49.5742 124.858 49.6125C124.921 49.6508 124.993 49.671 125.067 49.6709C125.09 49.6709 125.168 49.6652 125.302 49.6539C125.441 49.6414 125.58 49.621 125.718 49.5929C125.851 49.5678 125.982 49.5303 126.109 49.4809C126.225 49.4349 126.283 49.3809 126.283 49.3069C126.281 49.0804 126.211 48.8596 126.083 48.6729C125.935 48.4572 125.742 48.2763 125.518 48.1429C125.242 47.9791 124.943 47.8565 124.632 47.7789C124.252 47.6822 123.861 47.6355 123.469 47.6399C123.026 47.6469 122.591 47.7492 122.192 47.9399C121.753 48.1399 121.353 48.4162 121.011 48.7559C120.647 49.1189 120.353 49.5457 120.143 50.0149C119.913 50.5252 119.797 51.0794 119.804 51.6389C119.792 52.1989 119.886 52.756 120.082 53.2809C120.248 53.7206 120.505 54.12 120.837 54.4529C121.153 54.7632 121.532 55.0019 121.949 55.1529C122.38 55.3105 122.836 55.3897 123.295 55.3869C123.671 55.3914 124.047 55.3535 124.415 55.2739C124.712 55.2103 125.001 55.1113 125.275 54.9789C125.496 54.8712 125.706 54.7401 125.9 54.5879C126.058 54.464 126.204 54.3247 126.335 54.1719C126.296 54.1032 126.249 54.0392 126.196 53.9809C126.174 53.9479 126.146 53.9197 126.113 53.8984C126.08 53.877 126.043 53.8629 126.004 53.8569Z" fill="black"/>
<path d="M134.583 54.7071C134.526 54.7069 134.47 54.7189 134.418 54.7421C134.331 54.7706 134.24 54.7825 134.149 54.7771C134.044 54.7762 133.941 54.7495 133.849 54.6991C133.728 54.622 133.634 54.5096 133.579 54.3771C133.512 54.2438 133.468 54.1001 133.449 53.9521C133.413 53.6612 133.398 53.3681 133.405 53.0751V50.0871C133.419 49.674 133.356 49.2617 133.221 48.8711C133.112 48.5787 132.927 48.3207 132.685 48.1241C132.438 47.9334 132.15 47.8026 131.845 47.7421C131.482 47.6704 131.114 47.6369 130.745 47.6421C130.395 47.6468 130.049 47.7086 129.72 47.8251C129.368 47.9427 129.032 48.1029 128.72 48.3021C128.431 48.4829 128.176 48.7119 127.965 48.9791C127.783 49.1935 127.68 49.4626 127.67 49.7431C127.67 49.9861 127.727 50.1081 127.844 50.1081C127.931 50.1055 128.018 50.0938 128.104 50.0731C128.192 50.0545 128.279 50.0315 128.365 50.0041C128.575 49.9507 128.781 49.8808 128.981 49.7951C129.038 49.7696 129.089 49.7314 129.129 49.6835C129.17 49.6355 129.199 49.579 129.215 49.5181C129.281 49.2981 129.351 49.1068 129.423 48.9441C129.48 48.801 129.563 48.669 129.666 48.5541C129.761 48.4537 129.881 48.379 130.013 48.3371C130.175 48.2879 130.343 48.2646 130.513 48.2681C130.729 48.2457 130.947 48.2833 131.143 48.3768C131.339 48.4703 131.506 48.6161 131.625 48.7981C131.848 49.2106 131.956 49.6755 131.938 50.1441C131.949 50.303 131.928 50.4624 131.877 50.6131C131.806 50.714 131.698 50.7826 131.577 50.8041C131.431 50.8551 131.283 50.8985 131.134 50.9341C130.966 50.9741 130.784 51.0121 130.587 51.0461C130.239 51.1275 129.878 51.2275 129.502 51.3461C129.137 51.4567 128.787 51.6112 128.46 51.8061C128.149 51.9898 127.883 52.2389 127.679 52.5361C127.47 52.8588 127.365 53.2379 127.379 53.6221C127.363 53.9442 127.442 54.2639 127.605 54.5421C127.747 54.7668 127.944 54.9518 128.178 55.0801C128.407 55.2069 128.657 55.2922 128.916 55.3321C129.16 55.3714 129.406 55.3918 129.654 55.3931C130.13 55.4028 130.602 55.3051 131.035 55.1071C131.482 54.8677 131.843 54.4942 132.068 54.0391C132.091 54.2115 132.139 54.3798 132.209 54.5391C132.279 54.7021 132.381 54.8495 132.509 54.9731C132.645 55.1041 132.806 55.2061 132.983 55.2731C133.195 55.353 133.421 55.3914 133.649 55.3861C134.054 55.4026 134.454 55.2933 134.795 55.0731C134.781 54.8281 134.711 54.7071 134.583 54.7071ZM131.943 52.6751C131.946 52.9489 131.895 53.2206 131.795 53.4751C131.703 53.7065 131.573 53.9208 131.41 54.1091C131.255 54.2866 131.065 54.4288 130.851 54.5261C130.645 54.6218 130.422 54.6719 130.196 54.6731C130.038 54.6772 129.881 54.6484 129.735 54.5887C129.589 54.5289 129.457 54.4395 129.348 54.3261C129.227 54.189 129.135 54.0294 129.077 53.8566C129.019 53.6838 128.995 53.5011 129.008 53.3191C128.998 53.0339 129.067 52.7514 129.208 52.5031C129.342 52.2829 129.524 52.0958 129.741 51.9561C129.975 51.8053 130.231 51.691 130.5 51.6171C130.786 51.5361 131.08 51.4671 131.383 51.4091L131.942 51.3221L131.943 52.6751Z" fill="black"/>
<path d="M139.238 54.7767C138.991 54.7358 138.749 54.6688 138.517 54.5767C138.426 54.5525 138.346 54.4997 138.288 54.4262C138.23 54.3526 138.198 54.2623 138.196 54.1687V44.8767C138.193 44.5722 138.211 44.2679 138.248 43.9657C138.28 43.7384 138.297 43.5093 138.3 43.2797C138.303 43.2119 138.285 43.1448 138.247 43.0887C138.219 43.0619 138.186 43.0417 138.15 43.0296C138.113 43.0175 138.075 43.0138 138.037 43.0187C137.881 43.0295 137.728 43.0587 137.58 43.1057C137.343 43.1684 137.103 43.2148 136.86 43.2447C136.64 43.2677 136.395 43.2877 136.129 43.3057C135.863 43.3237 135.654 43.3317 135.504 43.3317C135.482 43.411 135.47 43.4926 135.469 43.5747C135.467 43.6057 135.471 43.6367 135.482 43.6659C135.492 43.6952 135.508 43.7219 135.53 43.7447C135.551 43.7674 135.576 43.7856 135.605 43.7981C135.633 43.8107 135.664 43.8174 135.695 43.8177C135.989 43.8154 136.277 43.9033 136.52 44.0697C136.604 44.1748 136.667 44.2957 136.704 44.4254C136.741 44.555 136.752 44.6908 136.737 44.8247V54.1687C136.733 54.2633 136.699 54.3543 136.64 54.4279C136.58 54.5015 136.499 54.5537 136.407 54.5767C136.176 54.6665 135.938 54.7335 135.695 54.7767C135.647 54.7846 135.604 54.8106 135.575 54.8493C135.545 54.888 135.532 54.9365 135.538 54.9847C135.54 55.0783 135.552 55.1714 135.573 55.2627C135.862 55.2394 136.172 55.219 136.504 55.2017C136.835 55.1844 137.159 55.1757 137.475 55.1757C137.791 55.1757 138.106 55.1844 138.42 55.2017C138.733 55.219 139.04 55.2394 139.342 55.2627C139.362 55.1713 139.374 55.0783 139.377 54.9847C139.383 54.939 139.373 54.8925 139.347 54.854C139.321 54.8156 139.282 54.7881 139.238 54.7767Z" fill="black"/>
<path d="M85.8777 39.4856C85.9271 39.485 85.9763 39.4796 86.0247 39.4696C86.073 39.4594 86.1223 39.4541 86.1717 39.4536L94.2147 20.1126C94.3533 19.7407 94.6185 19.4295 94.9637 19.2336C95.4467 19.0235 95.967 18.9126 96.4937 18.9076C96.7317 18.8646 96.8517 18.6686 96.8517 18.3216C96.8511 18.2722 96.8457 18.223 96.8357 18.1746C96.8242 18.1156 96.8188 18.0556 96.8197 17.9956C96.7994 17.9212 96.7883 17.8446 96.7867 17.7676C96.678 17.7889 96.3253 17.8223 95.7287 17.8676C95.132 17.9129 94.4753 17.9346 93.7587 17.9326C93.4113 17.9326 93.0424 17.9272 92.6517 17.9166C92.261 17.9059 91.8977 17.8896 91.5617 17.8676C91.2244 17.8463 90.9367 17.8242 90.6987 17.8016C90.4597 17.7806 90.3187 17.7696 90.2757 17.7696C90.256 17.844 90.2453 17.9206 90.2437 17.9976C90.2207 18.0932 90.2096 18.1913 90.2107 18.2896C90.2107 18.6376 90.341 18.8222 90.6017 18.8436C91.1055 18.8872 91.5996 19.0079 92.0667 19.2016C92.2025 19.2567 92.3186 19.3514 92.3999 19.4734C92.4813 19.5954 92.524 19.739 92.5227 19.8856C92.5174 20.1085 92.4734 20.3287 92.3927 20.5366L86.6927 34.4736L81.1567 20.3096C81.1123 20.173 81.0904 20.0302 81.0917 19.8866C81.0917 19.3219 81.732 18.9746 83.0127 18.8446C83.2734 18.8012 83.4037 18.6166 83.4037 18.2906C83.3981 18.1156 83.3763 17.9415 83.3387 17.7706C82.6654 17.8139 81.938 17.8519 81.1567 17.8846C80.3754 17.9172 79.7134 17.9336 79.1707 17.9336C78.606 17.9336 77.944 17.9172 77.1847 17.8846C76.4254 17.8519 75.7197 17.8139 75.0677 17.7706C75.0247 17.9406 75.0029 18.1152 75.0027 18.2906C75.0027 18.6606 75.1217 18.8556 75.3607 18.8776C75.9192 18.9293 76.4674 19.0606 76.9887 19.2676C77.282 19.4087 77.5138 19.6519 77.6407 19.9516L85.2927 38.9346C85.4407 39.3019 85.6357 39.4856 85.8777 39.4856Z" fill="black"/>
<path d="M94.9747 29.453C94.5451 30.4157 94.3285 31.4598 94.3397 32.514C94.3166 33.5596 94.4991 34.5996 94.8767 35.575C95.2008 36.3923 95.6885 37.1348 96.3097 37.757C96.8962 38.3357 97.602 38.7793 98.3777 39.057C99.1718 39.341 100.009 39.4842 100.853 39.48C101.61 39.4905 102.365 39.4031 103.1 39.22C103.708 39.0635 104.294 38.8282 104.842 38.52C105.323 38.2482 105.767 37.914 106.161 37.526C106.516 37.1728 106.842 36.792 107.137 36.387C106.941 36.0183 106.736 35.834 106.521 35.834C106.428 35.8369 106.338 35.8587 106.254 35.8979C106.17 35.9371 106.095 35.9929 106.034 36.062C105.584 36.5748 105.038 36.9949 104.428 37.299C103.81 37.6201 103.124 37.7878 102.428 37.788C101.706 37.8 100.991 37.6496 100.335 37.348C99.7266 37.0613 99.1892 36.6441 98.7607 36.126C98.3121 35.5758 97.9708 34.9462 97.7547 34.27C97.5104 33.5129 97.3898 32.7214 97.3977 31.926L106.808 31.502C106.835 31.5067 106.863 31.5048 106.89 31.4964C106.916 31.4881 106.94 31.4734 106.96 31.4538C106.979 31.4342 106.994 31.4102 107.002 31.3838C107.011 31.3573 107.012 31.3293 107.008 31.302C107.084 29.6586 106.595 28.0386 105.624 26.711C105.077 26.0933 104.393 25.6126 103.627 25.3072C102.861 25.0019 102.033 24.8806 101.212 24.953C100.394 24.9664 99.589 25.1553 98.8507 25.507C98.0219 25.8869 97.2669 26.4106 96.6207 27.054C95.9283 27.7448 95.3701 28.5583 94.9747 29.453ZM98.2417 27.402C98.5217 26.9942 98.9003 26.6638 99.3424 26.4418C99.7844 26.2197 100.275 26.1131 100.77 26.132C101.265 26.1203 101.754 26.2501 102.179 26.506C102.57 26.7483 102.907 27.0698 103.167 27.45C103.428 27.8335 103.625 28.2571 103.751 28.704C103.875 29.1262 103.941 29.5637 103.946 30.004C103.946 30.2866 103.784 30.4276 103.46 30.427L97.3357 30.72C97.2817 29.5466 97.5987 28.385 98.2417 27.402Z" fill="black"/>
<path d="M121.687 37.2035C121.613 37.0749 121.526 36.9548 121.426 36.8455C121.385 36.7847 121.332 36.7329 121.271 36.6937C121.209 36.6544 121.14 36.6285 121.068 36.6175C120.975 36.6195 120.885 36.6476 120.808 36.6985C120.72 36.7525 120.644 36.8015 120.58 36.8455C120.186 37.0872 119.778 37.3046 119.359 37.4965C118.808 37.7298 118.214 37.8407 117.617 37.8215C116.896 37.8448 116.179 37.6977 115.526 37.3923C114.872 37.0868 114.3 36.6316 113.856 36.0635C112.833 34.636 112.332 32.8996 112.439 31.1465C112.371 29.8708 112.707 28.6062 113.4 27.5325C113.669 27.1189 114.039 26.7798 114.474 26.5464C114.91 26.3131 115.397 26.1932 115.891 26.1975C116.396 26.1667 116.896 26.3104 117.308 26.6045C117.622 26.8504 117.892 27.1476 118.108 27.4835C118.303 27.7982 118.482 28.0912 118.646 28.3625C118.708 28.4855 118.804 28.5886 118.922 28.6605C119.04 28.7323 119.176 28.7701 119.314 28.7695C119.356 28.7695 119.503 28.7585 119.753 28.7365C120.015 28.7134 120.276 28.6753 120.535 28.6225C120.785 28.5747 121.03 28.5037 121.268 28.4105C121.484 28.3239 121.593 28.2152 121.593 28.0845C121.589 27.6602 121.458 27.2466 121.219 26.8965C120.942 26.4921 120.581 26.1531 120.16 25.9035C119.642 25.5959 119.083 25.3655 118.499 25.2195C117.786 25.0381 117.052 24.9504 116.317 24.9585C115.488 24.9694 114.672 25.1584 113.924 25.5125C113.101 25.8878 112.351 26.4058 111.71 27.0425C111.027 27.7231 110.475 28.523 110.082 29.4025C109.651 30.359 109.435 31.3978 109.447 32.4465C109.425 33.4959 109.602 34.5398 109.968 35.5235C110.279 36.3488 110.761 37.0987 111.384 37.7235C111.976 38.3067 112.687 38.7561 113.468 39.0415C114.276 39.3376 115.131 39.4866 115.992 39.4815C116.697 39.4894 117.402 39.4183 118.092 39.2695C118.649 39.1498 119.189 38.9641 119.703 38.7165C120.118 38.514 120.511 38.2683 120.875 37.9835C121.17 37.7511 121.443 37.4898 121.687 37.2035Z" fill="black"/>
<path d="M130.351 38.8948C131.032 38.4796 131.647 37.9638 132.175 37.3648C132.023 37.0838 131.85 36.9418 131.654 36.9418C131.593 36.9447 131.533 36.9554 131.475 36.9738C131.368 37.0175 131.273 37.0861 131.198 37.1738C130.915 37.3904 130.614 37.5812 130.298 37.7438C129.981 37.9072 129.628 37.9909 129.272 37.9878C129.072 37.9903 128.873 37.9564 128.686 37.8878C128.487 37.7992 128.326 37.6435 128.231 37.4478C128.076 37.1421 127.977 36.8113 127.938 36.4708C127.863 35.9151 127.83 35.3545 127.838 34.7938V26.7188H130.964C131.078 26.7269 131.192 26.698 131.289 26.6364C131.385 26.5748 131.46 26.4839 131.501 26.3768C131.615 26.0474 131.665 25.6991 131.648 25.3508H127.839V21.9648H127.253C127.013 21.9648 126.796 22.1925 126.602 22.6478C126.407 23.1032 126.179 23.5915 125.918 24.1128C125.7 24.5635 125.39 24.9629 125.007 25.2848C124.598 25.6021 124.09 25.7638 123.574 25.7408C123.503 25.7327 123.431 25.7477 123.369 25.7838C123.308 25.8199 123.259 25.875 123.232 25.9408C123.177 26.0749 123.149 26.2188 123.151 26.3638V26.7218H125.105V35.7088C125.086 36.351 125.169 36.9921 125.349 37.6088C125.478 38.0409 125.707 38.4367 126.017 38.7648C126.294 39.0447 126.643 39.242 127.026 39.3348C127.43 39.4345 127.846 39.4838 128.263 39.4818C129 39.4832 129.722 39.28 130.351 38.8948Z" fill="black"/>
<path d="M145.736 26.9785C145.075 26.3361 144.293 25.8323 143.436 25.4965C142.502 25.1301 141.507 24.9474 140.505 24.9585C139.526 24.9504 138.556 25.1444 137.656 25.5285C135.919 26.2613 134.539 27.6471 133.814 29.3875C133.433 30.2828 133.239 31.2465 133.244 32.2195C133.231 33.2329 133.413 34.2394 133.782 35.1835C134.118 36.0393 134.629 36.8155 135.282 37.4625C135.942 38.1051 136.724 38.609 137.582 38.9445C138.515 39.3106 139.51 39.493 140.513 39.4815C141.491 39.4896 142.461 39.2955 143.362 38.9115C145.093 38.1788 146.471 36.8013 147.205 35.0705C147.589 34.1701 147.783 33.2002 147.775 32.2215C147.785 31.2138 147.602 30.2136 147.237 29.2745C146.903 28.4125 146.391 27.6303 145.736 26.9785ZM143.685 36.9785C143.342 37.4088 142.902 37.7512 142.401 37.9773C141.9 38.2034 141.352 38.3066 140.803 38.2785C140.062 38.2993 139.337 38.0633 138.751 37.6105C138.174 37.1509 137.703 36.5737 137.367 35.9175C136.993 35.1922 136.724 34.4179 136.567 33.6175C136.397 32.8034 136.309 31.9742 136.307 31.1425C136.19 29.7919 136.566 28.4447 137.365 27.3495C137.712 26.9583 138.142 26.6488 138.624 26.4433C139.105 26.2377 139.626 26.1411 140.149 26.1605C140.923 26.1361 141.679 26.3901 142.282 26.8765C142.871 27.3727 143.348 27.9887 143.682 28.6835C144.052 29.4471 144.315 30.258 144.463 31.0935C144.621 31.9253 144.703 32.7698 144.707 33.6165C144.761 34.8199 144.4 36.0053 143.685 36.9745V36.9785Z" fill="black"/>
<path d="M160.796 25.4476C160.604 25.2827 160.382 25.1575 160.141 25.0792C159.901 25.0009 159.648 24.9712 159.396 24.9916C158.536 24.9818 157.697 25.2501 157.003 25.7566C156.24 26.317 155.536 26.9536 154.903 27.6566V25.4796C154.903 25.1546 154.748 24.9916 154.441 24.9916C154.167 25.0086 153.896 25.058 153.634 25.1386C153.271 25.2366 152.848 25.3289 152.366 25.4156C152.038 25.4589 151.619 25.4969 151.11 25.5296C150.6 25.5623 150.204 25.5786 149.921 25.5786C149.881 25.7274 149.859 25.8805 149.856 26.0346C149.856 26.2739 149.997 26.415 150.279 26.4576C150.605 26.4893 150.928 26.5564 151.24 26.6576C151.468 26.7293 151.668 26.8719 151.81 27.0646C151.954 27.2859 152.049 27.5361 152.087 27.7976C152.146 28.1742 152.174 28.5553 152.168 28.9366V37.2076C152.161 37.3759 152.103 37.5381 152.001 37.6722C151.899 37.8062 151.758 37.9055 151.598 37.9566C151.177 38.1424 150.733 38.2735 150.279 38.3466C150.189 38.3619 150.109 38.411 150.055 38.4838C150 38.5565 149.976 38.6474 149.987 38.7376C149.992 38.9129 150.013 39.0874 150.051 39.2586C150.615 39.2146 151.215 39.1766 151.851 39.1446C152.486 39.1126 153.098 39.0963 153.688 39.0956C154.04 39.0956 154.423 39.1009 154.838 39.1116C155.252 39.1223 155.655 39.1386 156.047 39.1606C156.437 39.1819 156.812 39.1983 157.17 39.2096C157.528 39.221 157.828 39.2373 158.07 39.2586C158.107 39.0873 158.129 38.9129 158.135 38.7376C158.143 38.6429 158.113 38.5488 158.052 38.4757C157.991 38.4026 157.904 38.3562 157.81 38.3466C157.072 38.2671 156.348 38.086 155.66 37.8086C155.44 37.7322 155.25 37.5891 155.116 37.3994C154.982 37.2097 154.911 36.9829 154.912 36.7506V31.1506C154.91 30.662 154.971 30.1752 155.091 29.7016C155.196 29.2669 155.364 28.8501 155.591 28.4646C155.787 28.1293 156.053 27.8407 156.372 27.6186C156.669 27.4148 157.021 27.3069 157.382 27.3096C157.701 27.3065 158.014 27.3973 158.282 27.5706C158.546 27.7382 158.783 27.9468 158.982 28.1886C159.503 27.9499 159.91 27.7499 160.204 27.5886C160.44 27.4612 160.668 27.3196 160.887 27.1646C161.019 27.081 161.126 26.9627 161.197 26.8226C161.241 26.7085 161.263 26.587 161.262 26.4646C161.258 26.2722 161.215 26.0825 161.135 25.9075C161.055 25.7326 160.939 25.576 160.796 25.4476Z" fill="black"/>
<path d="M68.6317 16.5704H50.6937C49.9289 16.5704 49.1778 16.7739 48.5176 17.16C47.8573 17.5462 47.3118 18.1011 46.9368 18.7677C46.5619 19.4344 46.3712 20.1888 46.3842 20.9536C46.3971 21.7183 46.6134 22.4658 47.0107 23.1194L51.7607 30.9304L48.0957 36.9594C47.9006 37.2804 47.6261 37.5457 47.2986 37.7298C46.9712 37.9139 46.6019 38.0106 46.2262 38.0106C45.8506 38.0106 45.4813 37.9139 45.1539 37.7298C44.8264 37.5457 44.5519 37.2804 44.3567 36.9594L31.9567 16.5704H24.6567V27.6704L39.6987 52.4134C40.3794 53.5325 41.3366 54.4576 42.4784 55.0995C43.6201 55.7414 44.9079 56.0786 46.2177 56.0786C47.5276 56.0786 48.8153 55.7414 49.9571 55.0995C51.0988 54.4576 52.0561 53.5325 52.7367 52.4134L71.4617 21.6134C71.7681 21.1098 71.9349 20.5337 71.945 19.9443C71.9551 19.3549 71.8082 18.7735 71.5192 18.2597C71.2303 17.7458 70.8098 17.3182 70.301 17.0206C69.7921 16.723 69.2132 16.5663 68.6237 16.5664L68.6317 16.5704ZM48.1537 19.4514C48.4045 18.9983 48.7727 18.6211 49.2197 18.3596C49.6667 18.0981 50.1759 17.962 50.6937 17.9654H59.6417L52.5767 29.5864L48.2037 22.3934C47.9317 21.9528 47.7835 21.447 47.7747 20.9293C47.7659 20.4115 47.8968 19.901 48.1537 19.4514ZM43.1647 37.6804C43.4822 38.2078 43.9312 38.6438 44.4678 38.9457C45.0044 39.2475 45.6101 39.4049 46.2257 39.4024C46.8415 39.405 47.4474 39.2476 47.9842 38.9458C48.5209 38.6439 48.9701 38.2079 49.2877 37.6804L53.1737 31.2894L61.2737 17.9624H65.8467L49.0547 45.5834C48.7593 46.0693 48.3438 46.4709 47.8481 46.7497C47.3525 47.0284 46.7934 47.1748 46.2247 47.1748C45.6561 47.1748 45.097 47.0284 44.6014 46.7497C44.1057 46.4709 43.6902 46.0693 43.3947 45.5834L26.6027 17.9624H31.1747L43.1647 37.6804ZM70.2767 20.8884L51.5527 51.6884C50.9968 52.6029 50.2148 53.3588 49.2819 53.8834C48.3491 54.4079 47.2969 54.6835 46.2267 54.6835C45.1565 54.6835 44.1044 54.4079 43.1715 53.8834C42.2387 53.3588 41.4567 52.6029 40.9007 51.6884L26.0607 27.2804V19.7584L42.2037 46.3114C42.6236 47.0022 43.2144 47.5732 43.919 47.9694C44.6236 48.3657 45.4184 48.5739 46.2267 48.5739C47.0351 48.5739 47.8299 48.3657 48.5345 47.9694C49.2391 47.5732 49.8298 47.0022 50.2497 46.3114L67.4827 17.9654H68.6327C68.9745 17.9653 69.3101 18.0561 69.6052 18.2287C69.9002 18.4012 70.144 18.6491 70.3115 18.947C70.479 19.2449 70.5641 19.5821 70.5582 19.9238C70.5523 20.2655 70.4555 20.5995 70.2777 20.8914L70.2767 20.8884Z" fill="black"/>
</g>
</g>
<defs>
<clipPath id="clip0_2130_1384">
<rect width="136.586" height="42.859" fill="white" transform="translate(24.6648 16.5703)"/>
</clipPath>
</defs>
</svg>
