<svg width="36" height="36" viewBox="0 0 36 36" fill="none" xmlns="http://www.w3.org/2000/svg">
<path d="M10.6087 9C8.06031 9 5.6163 10.0009 3.81432 11.7825C2.01234 13.5641 1 15.9804 1 18.5C1 21.0196 2.01234 23.4359 3.81432 25.2175C5.6163 26.9991 8.06031 28 10.6087 28C13.1571 28 15.6011 26.9991 17.4031 25.2175C19.205 23.4359 20.2174 21.0196 20.2174 18.5C20.2174 15.9804 19.205 13.5641 17.4031 11.7825C15.6011 10.0009 13.1571 9 10.6087 9ZM25.7609 9.73077C23.1074 9.73077 20.9565 13.6572 20.9565 18.5C20.9565 19.4083 21.0319 20.2838 21.1723 21.1074C21.3593 22.2057 21.6617 23.2113 22.0534 24.078C22.2493 24.5113 22.4673 24.9096 22.7046 25.2669C23.1791 25.9816 23.7305 26.5333 24.3321 26.8753C24.7837 27.1311 25.2634 27.2692 25.7609 27.2692C26.2583 27.2692 26.738 27.1311 27.1896 26.8753C27.7913 26.5333 28.3427 25.9816 28.8172 25.2669C29.0544 24.9096 29.2725 24.5113 29.4683 24.078C29.8601 23.212 30.1624 22.2057 30.3494 21.1074C30.4898 20.2838 30.5652 19.4083 30.5652 18.5C30.5652 13.6572 28.4143 9.73077 25.7609 9.73077ZM33.1522 10.4615C32.9607 10.4615 32.776 10.588 32.603 10.8233C32.487 10.9797 32.3761 11.1843 32.2719 11.432C32.2194 11.5555 32.1684 11.69 32.1196 11.8347C32.0213 12.1233 31.9297 12.4529 31.8461 12.8161C31.6791 13.5432 31.5438 14.4099 31.45 15.3716C31.4034 15.8524 31.3672 16.3574 31.342 16.8806C31.3169 17.4031 31.3043 17.9453 31.3043 18.5C31.3043 19.0547 31.3169 19.5969 31.342 20.1201C31.3664 20.6433 31.4027 21.1483 31.45 21.6292C31.5438 22.5908 31.6791 23.4568 31.8461 24.1847C31.9297 24.5486 32.0213 24.8774 32.1196 25.1661C32.1684 25.3108 32.2194 25.4452 32.2719 25.5687C32.3768 25.8165 32.4877 26.0211 32.603 26.1775C32.776 26.412 32.9607 26.5385 33.1522 26.5385C34.1729 26.5385 35 22.9394 35 18.5C35 14.0606 34.1729 10.4615 33.1522 10.4615Z" fill="white"/>
</svg>
