<svg width="31" height="26" viewBox="0 0 31 26" fill="none" xmlns="http://www.w3.org/2000/svg">
<path d="M15.5 0C10.509 0 4.03102 1.23941 4.03102 1.23941L4.01472 1.25788C1.74156 1.6182 0 3.55415 0 5.90857V12.9988V13.0012V20.0891V20.0914C0.00221823 21.2159 0.408806 22.3027 1.14676 23.1568C1.88471 24.0108 2.90569 24.5762 4.02637 24.7514L4.03102 24.7583C4.03102 24.7583 10.509 26 15.5 26C20.491 26 26.969 24.7583 26.969 24.7583L26.9713 24.756C28.0932 24.5812 29.1153 24.0154 29.8539 23.1603C30.5924 22.3052 30.9988 21.217 31 20.0914V20.0891V13.0012V12.9988V5.90857C30.9983 4.78373 30.592 3.69634 29.854 2.84179C29.116 1.98724 28.0947 1.42154 26.9736 1.24634L26.969 1.23941C26.969 1.23941 20.491 0 15.5 0ZM11.9231 7.56112L21.4615 12.9988L11.9231 18.4366V7.56112Z" fill="white"/>
</svg>
