<svg width="183" height="26" viewBox="0 0 183 26" fill="none" xmlns="http://www.w3.org/2000/svg">
<mask id="mask0_1778_9699" style="mask-type:luminance" maskUnits="userSpaceOnUse" x="0" y="0" width="24" height="26">
<path d="M0.5 10.8633C1.00991 11.7376 1.36005 12.6958 1.534 13.693C2.95378 12.9523 4.57968 12.7059 6.155 12.9926C7.21729 13.2155 8.20843 13.6966 9.041 14.3934C9.61197 14.8709 10.2576 15.2512 10.952 15.519C12.0897 15.7945 13.2737 15.8195 14.422 15.592C17.655 15.0787 19.786 15.2338 21.58 16.0613C21.346 16.1043 21.099 16.1614 20.832 16.2254C18.7885 15.5945 16.6139 15.5199 14.532 16.0093C13.5821 16.1717 12.6145 16.2037 11.656 16.1043C10.9099 15.9954 10.1968 15.7238 9.567 15.3089C9.301 15.1228 9.009 14.8996 8.704 14.6805C7.99701 14.1638 7.21489 13.7589 6.385 13.4798C5.60378 13.297 4.79661 13.2523 4 13.3478C3.31481 13.4521 2.64992 13.662 2.029 13.9701C1.56463 14.2218 1.18269 14.6023 0.929 15.0657C0.977 15.3386 1.02033 15.56 1.059 15.7301C1.075 15.7071 1.459 14.5204 2.37 14.4584C3.281 14.3964 3.593 15.43 3.721 15.9993C3.84486 16.737 3.85666 17.4893 3.756 18.2306C3.721 18.6398 3.685 19.062 3.685 19.4743C3.67567 20.1227 3.75303 20.7695 3.915 21.3974C4.175 21.6915 4.451 21.9697 4.74 22.2378C4.27082 21.3963 4.05156 20.4382 4.108 19.4763C4.108 19.084 4.143 18.6758 4.175 18.2686C4.28167 17.4795 4.26683 16.6788 4.131 15.8942C4.08747 15.5575 3.97307 15.2338 3.79535 14.9446C3.61764 14.6554 3.38064 14.4071 3.1 14.2163C4.06643 14.1576 5.02858 14.3867 5.865 14.8746C6.706 15.4279 7.054 16.2024 7.932 17.0169C8.91794 17.913 10.127 18.5269 11.432 18.7939C12.3197 18.8791 13.2151 18.7547 14.046 18.4307C14.936 18.1435 16.546 17.4391 17.477 17.1539C18.1461 16.9542 18.8341 16.8247 19.53 16.7677C18.68 17.1539 17.53 18.0885 17.559 18.7949C17.588 19.5213 17.944 19.9846 17.752 20.689C17.56 21.3934 17.166 21.7366 17.166 22.2499C13.976 23.1043 11.341 22.9202 9.351 21.6965C7.96933 20.842 6.93024 19.5304 6.414 17.9894L6.321 17.6892H5.867C6.36686 19.5068 7.5321 21.0696 9.131 22.0667C10.464 22.8446 11.9886 23.2322 13.531 23.1854C14.7865 23.1686 16.0345 22.9893 17.244 22.6521C17.308 23.0083 17.389 23.0183 17.652 23.5256C17.9451 23.9524 18.074 24.4709 18.015 24.9854C16.4563 25.6545 14.778 25.9997 13.082 26C12.3864 25.9996 11.692 25.9417 11.006 25.8269C7.63674 25.2227 4.6424 23.3113 2.67476 20.5088C0.707124 17.7064 -0.0745107 14.2397 0.5 10.8633ZM22.22 17.0079C22.476 16.9685 22.7377 17.0186 22.961 17.1499L23.149 17.268C23.3714 17.42 23.5605 17.6156 23.7049 17.843C23.8493 18.0704 23.946 18.3248 23.989 18.5908C24.0062 18.9073 23.948 19.2234 23.8192 19.5131C23.6903 19.8027 23.4946 20.0576 23.248 20.2567C23.2287 20.277 23.2054 20.293 23.1796 20.3036C23.1537 20.3143 23.1259 20.3195 23.098 20.3187C23.0768 20.3219 23.0552 20.3219 23.034 20.3187L18.914 19.049L18.876 19.034C18.7834 19.1582 18.7342 19.3094 18.736 19.4643C18.7522 19.6285 18.7895 19.7899 18.847 19.9445C19.0159 20.3527 19.0319 20.8082 18.892 21.2273C18.813 21.4627 18.7073 21.6883 18.577 21.8997C18.4483 22.0472 18.3733 22.234 18.364 22.4296C18.3547 22.6252 18.4118 22.8182 18.526 22.9773C18.609 23.1384 18.698 23.2774 18.774 23.4045C19.0847 23.8029 19.2397 24.3009 19.21 24.8053C19.2055 24.8581 19.1815 24.9072 19.1426 24.9431C19.1038 24.979 19.0529 24.9991 19 24.9994H18.984C18.9573 24.998 18.9312 24.9913 18.9071 24.9796C18.8831 24.9679 18.8616 24.9515 18.844 24.9314C18.8694 24.4165 18.718 23.9084 18.415 23.4916C18.342 23.3585 18.253 23.2064 18.167 23.0363C18.0527 22.8601 17.9962 22.6526 18.0054 22.4428C18.0145 22.233 18.0889 22.0312 18.218 21.8656C18.3484 21.6375 18.453 21.3955 18.53 21.1442C18.6664 20.7024 18.6494 20.2274 18.482 19.7965C18.4224 19.6277 18.386 19.4517 18.374 19.2732C18.3688 19.1706 18.3862 19.0681 18.425 18.973C18.629 18.63 18.9114 18.3402 19.249 18.1275C19.8043 17.7311 20.4227 17.4317 21.078 17.242C21.298 17.186 21.504 17.1369 21.698 17.0969L21.914 17.0599L22.068 17.0309L22.22 17.0079ZM22.459 17.4081H22.347C22.0468 17.4396 21.7492 17.4915 21.456 17.5632C20.7525 17.7325 20.0882 18.0355 19.499 18.4557C19.399 18.5327 19.289 18.6138 19.187 18.6968L23.033 19.8895C23.2067 19.7285 23.344 19.5322 23.4356 19.3137C23.5272 19.0952 23.571 18.8596 23.564 18.6228C23.4922 18.2083 23.2597 17.8389 22.917 17.5952L22.771 17.5051C22.6444 17.4273 22.4961 17.3922 22.348 17.4051L22.459 17.4081ZM8.633 9.37449C8.30904 9.561 7.97101 9.72191 7.622 9.85576C6.01477 10.4674 4.25381 10.547 2.598 10.0829C2.68431 10.6206 2.65367 11.1706 2.50819 11.6953C2.36271 12.2201 2.1058 12.7073 1.755 13.1236C1.52525 11.778 0.9164 10.5259 0 9.51456C0.447257 9.49217 0.892936 9.44508 1.335 9.37348C6.711 8.54301 8.229 9.09933 8.633 9.37449ZM9.416 9.39049C9.37278 10.079 9.19315 10.752 8.88756 11.3704C8.58198 11.9888 8.15654 12.5402 7.636 12.9926C5.91822 12.4045 4.05378 12.4045 2.336 12.9926C2.8323 12.2818 3.07276 11.4235 3.018 10.5582C4.1065 10.8251 5.23907 10.8591 6.3416 10.6579C7.44413 10.4566 8.49178 10.0248 9.416 9.39049ZM19.179 1.58002C21.0535 2.6323 22.6373 4.13413 23.788 5.95052L24 6.29572L18.887 9.30645C18.861 9.26342 18.836 9.2244 18.81 9.18237C18.33 8.41644 17.7016 7.75437 16.962 7.23518C16.2223 6.716 15.3862 6.35019 14.503 6.15932C13.6198 5.96845 12.7074 5.95637 11.8195 6.1238C10.9316 6.29123 10.0862 6.63478 9.333 7.1342C11.8503 4.17001 15.3412 2.20076 19.179 1.58002ZM17.889 0.951662C16.2165 1.34435 14.6121 1.98513 13.129 2.85275C10.7373 4.25868 8.71078 6.20925 7.214 8.54601C5.22756 8.43736 3.23527 8.56804 1.28 8.93523C1.164 8.95524 1.055 8.97125 0.93 8.98426C1.03 8.68409 1.135 8.37891 1.254 8.08375C1.86545 6.51278 2.78366 5.0795 3.95499 3.86762C5.12632 2.65575 6.52727 1.68958 8.076 1.02558C9.62473 0.361579 11.2902 0.0130516 12.9751 0.000359597C14.6599 -0.0123324 16.3305 0.311066 17.889 0.951662Z" fill="white"/>
</mask>
<g mask="url(#mask0_1778_9699)">
<mask id="mask1_1778_9699" style="mask-type:luminance" maskUnits="userSpaceOnUse" x="-9" y="-88" width="202" height="202">
<path d="M-9 114H193V-88H-9V114Z" fill="white"/>
</mask>
<g mask="url(#mask1_1778_9699)">
<path d="M-1 -1H25V27H-1V-1Z" fill="white"/>
</g>
</g>
<mask id="mask2_1778_9699" style="mask-type:luminance" maskUnits="userSpaceOnUse" x="33" y="6" width="145" height="13">
<path d="M66.1588 9.02235C66.8237 8.986 67.4888 9.08964 68.1114 9.3266C68.7339 9.56357 69.3001 9.9286 69.7734 10.3982C70.2467 10.8678 70.6167 11.4316 70.8595 12.0532C71.1023 12.6748 71.2126 13.3405 71.1833 14.0075C71.2087 14.6764 71.0945 15.3433 70.8481 15.9654C70.6017 16.5876 70.2284 17.1513 69.7522 17.6206C69.276 18.0898 68.7074 18.4542 68.0826 18.6905C67.4579 18.9267 66.7908 19.0297 66.1241 18.9926C65.461 19.0284 64.7977 18.924 64.1774 18.6863C63.557 18.4487 62.9933 18.083 62.5229 17.613C62.0525 17.1431 61.6858 16.5793 61.4466 15.9581C61.2074 15.337 61.101 14.6725 61.1343 14.0075C61.1064 13.3409 61.2178 12.6759 61.4611 12.0549C61.7045 11.434 62.0745 10.8708 62.5475 10.4015C63.0205 9.93226 63.586 9.56717 64.2079 9.32968C64.8297 9.09218 65.4942 8.9875 66.1588 9.02235ZM153.549 9.02235C154.214 8.986 154.879 9.08964 155.502 9.3266C156.125 9.56357 156.691 9.9286 157.164 10.3982C157.637 10.8678 158.007 11.4316 158.25 12.0532C158.493 12.6748 158.603 13.3405 158.574 14.0075C158.599 14.6764 158.485 15.3433 158.239 15.9654C157.992 16.5876 157.619 17.1513 157.143 17.6206C156.667 18.0898 156.098 18.4542 155.473 18.6905C154.848 18.9267 154.181 19.0297 153.515 18.9926C152.852 19.0284 152.188 18.924 151.568 18.6863C150.948 18.4487 150.384 18.083 149.914 17.613C149.443 17.1431 149.076 16.5793 148.837 15.9581C148.598 15.337 148.492 14.6725 148.525 14.0075C148.497 13.3408 148.608 12.6755 148.852 12.0544C149.095 11.4334 149.466 10.8701 149.939 10.4008C150.412 9.93148 150.978 9.56644 151.6 9.32907C152.222 9.09169 152.887 8.98722 153.551 9.02235H153.549ZM76.8594 9.02235C77.445 8.99215 78.0282 9.11568 78.5515 9.38071C79.0748 9.64574 79.5201 10.0431 79.8433 10.5335V9.16131H82.8041V18.8537H79.8385V17.4815C79.5106 17.9704 79.0625 18.3664 78.5375 18.6311C78.0124 18.8958 77.4282 19.0203 76.8411 18.9926C74.4848 18.9926 72.5963 17.0472 72.5963 13.9901C72.5963 10.933 74.4858 9.02235 76.8594 9.02235ZM119.42 9.02235C120.062 8.98491 120.705 9.08406 121.305 9.31329C121.906 9.54252 122.452 9.89664 122.906 10.3524C123.361 10.8081 123.714 11.3551 123.943 11.9575C124.172 12.5598 124.27 13.2039 124.233 13.8473C124.233 14.1376 124.215 14.4276 124.181 14.7158H117.476C117.468 14.9607 117.509 15.2047 117.598 15.4329C117.687 15.6611 117.822 15.8686 117.994 16.0427C118.166 16.2168 118.372 16.3537 118.598 16.4452C118.825 16.5366 119.068 16.5806 119.313 16.5744C119.634 16.5946 119.954 16.5156 120.23 16.3479C120.505 16.1802 120.722 15.9319 120.853 15.6364H124.006C123.739 16.6374 123.137 17.5163 122.301 18.1263C121.466 18.7364 120.447 19.0408 119.415 18.9888C118.757 19.0222 118.099 18.9155 117.486 18.6756C116.872 18.4357 116.316 18.0681 115.854 17.5971C115.392 17.126 115.036 16.5622 114.807 15.9428C114.579 15.3234 114.484 14.6625 114.529 14.0036C114.481 13.3439 114.575 12.6817 114.803 12.0611C115.031 11.4404 115.388 10.8756 115.851 10.4043C116.314 9.93297 116.872 9.56593 117.487 9.32764C118.103 9.08935 118.762 8.98528 119.42 9.02235ZM48.1707 6.52109C49.4772 6.45308 50.7668 6.84196 51.8191 7.6213C52.8713 8.40064 53.6211 9.52209 53.9402 10.7941H50.683C50.4611 10.3095 50.1004 9.90217 49.6468 9.62378C49.1933 9.34539 48.6674 9.20859 48.1361 9.23079C46.3168 9.23079 45.0694 10.5818 45.0694 12.7395C45.0694 14.8972 46.3168 16.2482 48.1361 16.2482C48.6674 16.2704 49.1933 16.1336 49.6468 15.8552C50.1004 15.5768 50.4611 15.1694 50.683 14.6849H53.9402C53.6202 15.9551 52.8696 17.0742 51.8171 17.8505C50.7645 18.6269 49.4755 19.0122 48.1707 18.9405C47.3531 18.9724 46.5378 18.8332 45.7768 18.5319C45.0158 18.2306 44.3257 17.7738 43.7504 17.1905C43.1751 16.6072 42.7272 15.9102 42.4353 15.1439C42.1433 14.3776 42.0137 13.5588 42.0547 12.7395C42.0134 11.9194 42.1427 11.0996 42.4344 10.3322C42.726 9.56482 43.1735 8.86661 43.7486 8.28188C44.3237 7.69714 45.0138 7.23867 45.7751 6.93555C46.5363 6.63243 47.3521 6.49129 48.1707 6.52109ZM135.641 9.16131L137.01 16.0919L138.639 9.16131H141.775L143.421 16.0571L144.768 9.16131H147.559L144.945 18.8537H141.673L140.148 12.5658L138.569 18.8537H135.312L132.678 9.16131H135.641ZM40.4155 9.16131V11.5197L36.3131 16.4045H40.5059V18.8537H33V16.4914L37.0196 11.6105H33.0347V9.16131H40.4155ZM104.631 6.66005L109.586 14.2159V6.66005H112.547V18.8537H109.584L104.629 11.3325V18.8537H101.67V6.66005H104.631ZM166.571 9.05709V12.201H165.756C164.353 12.201 163.543 12.6835 163.543 14.3549V18.8537H160.578V9.16131H163.541V10.7767C163.86 10.2565 164.305 9.82594 164.836 9.52521C165.366 9.22449 165.963 9.06343 166.573 9.05709H166.571ZM59.1486 6V18.8537H56.1858V6H59.1486ZM88.3397 6V13.1043L91.2678 9.16131H94.9255L90.903 14.0287L94.9572 18.8537H91.2841L88.3388 14.7891V18.8537H85.376V6H88.3397ZM129.653 6.79901V9.16131H131.594V11.6278H129.653V15.5187C129.653 16.0919 129.896 16.3351 130.554 16.3351H131.613V18.8537H130.104C128.094 18.8537 126.69 18.0026 126.69 15.4839V11.624H125.512V9.15745H126.69V6.79515L129.653 6.79901ZM171.381 6V13.1043L174.309 9.16131H177.966L173.945 14.0287L178 18.8537H174.327L171.382 14.7891V18.8537H168.419V6H171.381ZM66.1578 11.5969C65.0836 11.5969 64.148 12.3612 64.148 14.0094C64.148 15.6422 65.049 16.4219 66.1232 16.4219C66.4211 16.4144 66.7141 16.3439 66.9831 16.215C67.252 16.0862 67.4907 15.9019 67.6837 15.6742C67.8767 15.4464 68.0195 15.1805 68.1029 14.8936C68.1863 14.6067 68.2084 14.3054 68.1676 14.0094C68.1686 12.3574 67.1983 11.5931 66.1588 11.5931L66.1578 11.5969ZM153.548 11.5969C152.474 11.5969 151.539 12.3612 151.539 14.0094C151.539 15.6422 152.44 16.4219 153.514 16.4219C153.812 16.4144 154.105 16.3439 154.374 16.215C154.643 16.0862 154.881 15.9019 155.074 15.6742C155.267 15.4464 155.41 15.1805 155.494 14.8936C155.577 14.6067 155.599 14.3054 155.558 14.0094C155.558 12.3574 154.588 11.5931 153.551 11.5931L153.548 11.5969ZM77.7248 11.6143C77.4254 11.6176 77.13 11.6834 76.8575 11.8075C76.5849 11.9317 76.3412 12.1115 76.1419 12.3355C75.9427 12.5594 75.7922 12.8226 75.7001 13.1082C75.608 13.3938 75.5763 13.6955 75.6071 13.994C75.5764 14.2942 75.6079 14.5975 75.6996 14.8849C75.7913 15.1723 75.9413 15.4376 76.1402 15.6641C76.339 15.8906 76.5824 16.0735 76.8551 16.2012C77.1278 16.329 77.4239 16.3989 77.7248 16.4065C78.0254 16.4024 78.3219 16.3355 78.5952 16.2099C78.8686 16.0843 79.1128 15.9029 79.3121 15.6773C79.5115 15.4516 79.6616 15.1867 79.7529 14.8995C79.8442 14.6123 79.8747 14.3091 79.8424 14.0094C79.875 13.7096 79.8447 13.4062 79.7535 13.1188C79.6624 12.8313 79.5123 12.5662 79.3129 12.3403C79.1135 12.1144 78.8692 11.9328 78.5957 11.8071C78.3223 11.6815 78.0256 11.6145 77.7248 11.6105V11.6143ZM119.385 11.4059C118.917 11.3887 118.46 11.552 118.109 11.8622C117.758 12.1724 117.538 12.6059 117.496 13.0734H121.204C121.204 12.8403 121.156 12.6096 121.063 12.3962C120.969 12.1828 120.832 11.9914 120.661 11.834C120.489 11.6767 120.287 11.557 120.066 11.4827C119.846 11.4083 119.612 11.3808 119.381 11.402L119.385 11.4059Z" fill="white"/>
</mask>
<g mask="url(#mask2_1778_9699)">
<mask id="mask3_1778_9699" style="mask-type:luminance" maskUnits="userSpaceOnUse" x="4" y="-84" width="194" height="195">
<path d="M4 111H198V-84H4V111Z" fill="white"/>
</mask>
<g mask="url(#mask3_1778_9699)">
<path d="M32 5H179V20H32V5Z" fill="white"/>
</g>
</g>
</svg>
